<svg width="224" height="286" viewBox="0 0 224 286" fill="none" xmlns="http://www.w3.org/2000/svg">
<mask id="mask0_229_343" style="mask-type:alpha" maskUnits="userSpaceOnUse" x="0" y="15" width="224" height="256">
<path fill-rule="evenodd" clip-rule="evenodd" d="M0.75 260V15.5H223.25V270.5H0.75V260ZM210.75 93.5H19.75V182.5H210.75V93.5Z" fill="#D9D9D9"/>
</mask>
<g mask="url(#mask0_229_343)">
<path d="M51.75 182.5H169.75V246.5C169.75 257.546 160.796 266.5 149.75 266.5H71.75C60.7043 266.5 51.75 257.546 51.75 246.5V182.5Z" fill="#5FA928"/>
<rect x="51.25" y="30" width="119" height="236" rx="17.5" stroke="#777777" stroke-width="5"/>
</g>
<path d="M49.6587 160.41C40.8187 160.41 34.7737 157.29 30.2887 152.35L38.2837 144.42C41.5987 147.735 44.9137 149.62 49.1387 149.62C52.7787 149.62 54.9237 147.8 54.9237 145.005V144.875C54.9237 141.95 52.3887 140.195 47.5137 140.195H42.1837L40.4287 133.63L50.8287 124.205H33.4737V114H66.2987V122.97L55.4437 132.33C61.9437 133.76 67.2087 137.335 67.2087 145.135V145.265C67.2087 154.43 59.7337 160.41 49.6587 160.41ZM88.4047 160.41C81.9047 160.41 77.8097 158.525 74.4947 155.21C71.1147 151.83 68.9047 146.695 68.9047 138.18V138.05C68.9047 123.88 75.7947 113.09 90.0297 113.09C96.4647 113.09 100.755 114.78 105.175 118.095L99.2597 126.935C96.4647 124.855 93.8647 123.49 90.2247 123.49C83.6597 123.49 81.9697 129.6 81.6447 133.24C84.5697 130.965 87.5597 129.73 91.4597 129.73C99.4547 129.73 106.475 134.8 106.475 143.9V144.03C106.475 154.17 98.3497 160.41 88.4047 160.41ZM87.8847 150.595C91.8497 150.595 94.2547 148.06 94.2547 144.745V144.615C94.2547 141.3 91.7197 138.765 87.7547 138.765C83.7897 138.765 81.4497 141.235 81.4497 144.55V144.68C81.4497 147.995 83.9197 150.595 87.8847 150.595ZM138.449 159.825L123.239 114H136.564L144.494 140.325L153.269 113.87H164.124L172.899 140.325L180.829 114H193.894L178.684 159.825H167.699L158.599 133.63L149.434 159.825H138.449Z" fill="#777777"/>
</svg>
