<?xml version="1.0" encoding="UTF-8"?>
<svg id="Vrstva_1" data-name="Vrstva 1" xmlns="http://www.w3.org/2000/svg" viewBox="0 0 196.17 266.48">
  <defs>
    <style>
      .cls-1 {
        fill: #4d4d4d;
        fill-rule: evenodd;
      }
    </style>
  </defs>
  <path class="cls-1" d="M79.41,18.83c-29.82,0-54.08,24.25-54.08,54.06s24.26,54.06,54.08,54.06c1.74,0,3.54-.09,5.35-.27l.23-.02v-16.46l-.29.04c-1.77.25-3.55.38-5.29.38-20.81,0-37.74-16.92-37.74-37.73s16.93-37.72,37.74-37.72c1.74,0,3.52.13,5.29.38l.29.04v-16.46l-.23-.02c-1.81-.18-3.61-.27-5.35-.27Z"/>
  <path class="cls-1" d="M140.42,43.61c6.7-5.45,15.14-8.45,23.76-8.45,1.73,0,3.52.13,5.31.38l.29.04v-16.46l-.23-.02c-1.83-.18-3.63-.27-5.36-.27-29.81,0-54.06,24.25-54.06,54.06s24.25,54.06,54.06,54.06c1.73,0,3.54-.09,5.37-.27l.23-.02v-16.46l-.29.04c-1.77.25-3.55.38-5.3.38-8.62,0-17.06-3-23.76-8.45-6.21-5.05-10.74-12.08-12.76-19.78l-.27-1.02h31.04v-16.95h-31.04l.27-1.02c2.01-7.71,6.54-14.74,12.76-19.79Z"/>
  <polygon class="cls-1" points="79.44 238.15 78.44 234.72 76.98 238.15 73.07 238.15 76.5 240.58 75.01 244 78.44 242.06 81.38 244 80.41 240.58 83.35 238.15 79.44 238.15"/>
  <polygon class="cls-1" points="65.21 223.95 64.24 220.52 63.27 223.95 59.33 223.95 62.27 226.41 61.3 229.84 64.24 227.87 67.18 229.84 66.21 226.41 69.16 223.95 65.21 223.95"/>
  <polygon class="cls-1" points="60.81 207.33 64.24 204.87 60.33 204.87 58.84 201.44 57.87 204.87 53.96 204.87 57.38 207.33 55.9 210.76 58.84 208.78 62.27 210.76 60.81 207.33"/>
  <polygon class="cls-1" points="64.24 182.39 63.27 185.82 59.33 185.82 62.27 188.28 61.3 191.68 64.24 189.25 67.18 191.68 66.21 188.28 69.16 185.82 65.21 185.82 64.24 182.39"/>
  <polygon class="cls-1" points="78.44 168.2 76.98 171.62 73.07 171.62 76.5 174.08 75.01 177.51 78.44 175.54 81.38 177.51 80.41 174.08 83.35 171.62 79.44 171.62 78.44 168.2"/>
  <polygon class="cls-1" points="97.52 162.83 96.06 166.74 92.64 166.74 95.58 168.68 94.61 172.59 97.52 170.17 100.46 172.59 99.49 168.68 102.44 166.74 98.52 166.74 97.52 162.83"/>
  <polygon class="cls-1" points="116.63 168.2 115.66 171.62 111.75 171.62 114.69 174.08 113.72 177.51 116.63 175.54 120.09 177.51 118.61 174.08 121.55 171.62 118.12 171.62 116.63 168.2"/>
  <polygon class="cls-1" points="131.83 185.82 130.86 182.39 129.89 185.82 125.95 185.82 128.89 188.28 127.92 191.68 130.86 189.25 133.81 191.68 132.84 188.28 135.78 185.82 131.83 185.82"/>
  <polygon class="cls-1" points="137.24 204.87 135.78 201.44 134.78 204.87 130.86 204.87 134.29 207.33 132.84 210.76 135.78 208.78 139.21 210.76 137.72 207.33 141.15 204.87 137.24 204.87"/>
  <polygon class="cls-1" points="131.83 223.95 130.86 220.52 129.89 223.95 125.95 223.95 128.89 226.41 127.92 229.84 130.86 227.87 133.81 229.84 132.84 226.41 135.78 223.95 131.83 223.95"/>
  <polygon class="cls-1" points="118.12 238.15 116.63 234.72 115.66 238.15 111.75 238.15 114.69 240.58 113.72 244 116.63 242.06 120.09 244 118.61 240.58 121.55 238.15 118.12 238.15"/>
  <polygon class="cls-1" points="98.52 243.52 97.52 239.61 96.06 243.52 92.64 243.52 95.58 245.49 94.61 249.4 97.52 246.95 100.46 249.4 99.49 245.49 102.44 243.52 98.52 243.52"/>
</svg>