<svg width="230" height="167" viewBox="0 0 230 167" fill="none" xmlns="http://www.w3.org/2000/svg">
<path d="M82.8832 166.383C37.1812 166.383 0 129.201 0 83.5001C0 37.7987 37.1812 0.617188 82.8832 0.617188C90.699 0.617188 101 2.23108 105.89 3.64053V29.6333C100.18 26.8761 87.9772 26.8761 82.8832 26.8761C53.1808 26.8761 29.0162 53.7978 29.0162 83.5001C29.0162 113.202 53.1808 140.124 82.8832 140.124C87.9768 140.124 101.099 140.124 105.889 137.367V163.131C98.5 166.383 90.6977 166.383 82.8832 166.383Z" fill="#777777"/>
<path d="M206.762 140.124C182.085 140.124 161.232 120.686 154.882 98.0084H194.312V68.9922H154.882C161.232 46.3145 182.085 26.8765 206.762 26.8765C211.857 26.8765 224.83 26.8765 230 29.6338V3.65098C222.5 0.617188 214.578 0.617188 206.762 0.617188C161.061 0.617188 123.879 37.7987 123.879 83.5001C123.879 129.201 161.061 166.383 206.762 166.383C214.577 166.383 222.5 166.383 230 163.913V137.367C225.289 140.124 211.856 140.124 206.762 140.124Z" fill="#777777"/>
</svg>
