<svg width="70" height="70" viewBox="0 0 70 70" fill="none" xmlns="http://www.w3.org/2000/svg">
<path d="M27.0001 30L34.0401 20.56C36.4401 17.36 37.2001 15.84 37.2001 14.12C37.2001 12.28 35.8401 11.12 34.2401 11.12C32.5601 11.12 31.3201 12.2 29.8001 14L26.6801 10.28C28.8001 7.52 31.8001 6 34.7601 6C39.1601 6 42.6001 8.76 42.6001 13.64V13.72C42.6001 16.84 41.5201 18.92 38.2001 23.2L33.4001 29.4H42.3601V34.44H27.0001V30Z" fill="#4D4D4D"/>
<path d="M8 8.52002L14.14 20.2L8 31.87H10.78H13.55L19.68 20.2L13.55 8.52002H8Z" fill="#4D4D4D"/>
<path d="M61.2801 8.52002L55.1501 20.2L61.2801 31.87H58.5101H55.7301L49.6001 20.2L55.7301 8.52002H61.2801Z" fill="#4D4D4D"/>
</svg>
