<?xml version="1.0" encoding="UTF-8"?>
<svg id="Vrstva_1" data-name="Vrstva 1" xmlns="http://www.w3.org/2000/svg" viewBox="0 0 125.68 68">
  <defs>
    <style>
      .cls-1 {
        fill: #4d4d4d;
      }
    </style>
  </defs>
  <path class="cls-1" d="M33.45,10.61c1.6,0,2.96,1.16,2.96,3,0,1.72-.76,3.24-3.16,6.44l-7.04,9.44v4.44h15.36v-5.04h-8.96l4.8-6.2c3.32-4.28,4.4-6.36,4.4-9.48v-.08c0-4.88-3.44-7.64-7.84-7.64-2.96,0-5.96,1.52-8.08,4.28l3.12,3.72c1.52-1.8,2.76-2.88,4.44-2.88Z"/>
  <polygon class="cls-1" points="10.77 31.35 13.55 31.35 19.68 19.68 13.55 8 8 8 14.13 19.68 8 31.35 10.77 31.35"/>
  <polygon class="cls-1" points="56.96 31.35 59.74 31.35 53.61 19.68 59.74 8 54.19 8 48.06 19.68 54.19 31.35 56.96 31.35"/>
  <path class="cls-1" d="M17.98,45.64c-.99-.63-2.12-.95-3.4-.95s-2.41.32-3.4.95-1.77,1.52-2.33,2.64-.85,2.43-.85,3.92.28,2.77.85,3.9,1.34,2.01,2.33,2.64,2.12.95,3.4.95,2.41-.32,3.4-.95,1.77-1.52,2.33-2.64.84-2.42.84-3.9-.28-2.79-.84-3.92-1.34-2.01-2.33-2.64ZM18.73,55.38c-.44.87-1.02,1.53-1.75,1.98s-1.53.67-2.4.67-1.68-.22-2.41-.67-1.31-1.11-1.75-1.98-.65-1.93-.65-3.18.22-2.32.65-3.19,1.02-1.53,1.75-1.98,1.53-.67,2.41-.67,1.67.22,2.4.67,1.31,1.11,1.75,1.98.65,1.94.65,3.2-.22,2.31-.65,3.18Z"/>
  <path class="cls-1" d="M30.7,49.52c-.68-.45-1.46-.67-2.36-.67-.5,0-.96.08-1.37.22s-.77.36-1.08.62-.56.56-.76.9h-.05v-5.67h-1.68v14.55h1.64v-1.59h.06c.22.35.49.66.8.93s.67.48,1.08.63.86.23,1.36.23c.9,0,1.69-.23,2.36-.68s1.2-1.09,1.58-1.9.56-1.76.56-2.83-.19-2.03-.56-2.84-.9-1.45-1.58-1.89ZM30.76,56.36c-.25.58-.61,1.03-1.06,1.34s-.99.46-1.61.46-1.2-.16-1.67-.49-.82-.78-1.07-1.37-.38-1.27-.38-2.06.12-1.47.37-2.06.61-1.04,1.07-1.36,1.03-.48,1.67-.48,1.16.15,1.61.46.81.75,1.06,1.33.38,1.28.38,2.11-.13,1.53-.38,2.11Z"/>
  <path class="cls-1" d="M41.75,49.5c-.72-.47-1.57-.7-2.54-.7s-1.8.23-2.52.7-1.29,1.11-1.69,1.93-.61,1.77-.61,2.84.2,2.01.61,2.82.97,1.45,1.69,1.91,1.57.69,2.52.69,1.82-.23,2.54-.69,1.29-1.1,1.69-1.91.61-1.75.61-2.82-.2-2.02-.61-2.84-.97-1.46-1.69-1.93ZM41.98,56.3c-.24.59-.6,1.05-1.06,1.38s-1.03.5-1.7.5-1.23-.17-1.69-.5-.82-.79-1.06-1.38-.36-1.26-.36-2.03.12-1.46.36-2.05.59-1.06,1.06-1.39,1.03-.5,1.69-.5,1.24.17,1.7.51.82.8,1.06,1.39.37,1.27.37,2.05-.12,1.44-.37,2.03Z"/>
  <path class="cls-1" d="M52.97,55.17c0,.67-.12,1.23-.37,1.67s-.57.76-.98.97-.87.31-1.38.31c-.77,0-1.37-.23-1.8-.68s-.65-1.12-.65-2v-6.41h-1.68v6.52c0,.91.17,1.67.5,2.29s.79,1.07,1.36,1.37,1.21.45,1.9.45c.81,0,1.52-.22,2.13-.65.39-.28.72-.67,1-1.16v1.63h1.64v-10.45h-1.68v6.15Z"/>
  <path class="cls-1" d="M62.01,53.72l-1.66-.39c-.53-.12-.93-.31-1.22-.55s-.43-.56-.43-.95c0-.44.2-.82.59-1.12s.9-.46,1.53-.46c.68,0,1.21.17,1.59.52s.6.78.63,1.29l1.62-.09c-.05-.65-.25-1.21-.58-1.68s-.78-.84-1.34-1.1-1.2-.39-1.92-.39-1.4.13-1.97.39-1.02.62-1.35,1.08-.49.98-.49,1.58c0,.75.25,1.38.74,1.87s1.22.85,2.18,1.08l1.69.39c.48.11.86.29,1.14.52s.42.55.42.94c0,.46-.21.83-.63,1.14s-.99.45-1.72.45-1.26-.16-1.68-.47-.66-.78-.74-1.38l-1.65.09c.06.72.28,1.32.65,1.8s.85.83,1.45,1.07,1.26.35,2.01.35,1.46-.12,2.07-.38,1.09-.61,1.44-1.07.52-1.02.52-1.66c0-.74-.23-1.35-.7-1.82s-1.19-.83-2.18-1.06Z"/>
  <path class="cls-1" d="M70.94,58.03c-.17,0-.33,0-.47,0-.43,0-.73-.09-.9-.26s-.26-.47-.26-.89v-6.43h2.12v-1.45h-2.12v-2.76h-1.68v2.76h-1.8v1.45h1.8v6.6c0,.8.23,1.41.68,1.82s1.13.62,2.03.62c.18,0,.38,0,.59,0s.4-.02.57-.03l-.08-1.45c-.14,0-.3.01-.47.02Z"/>
  <path class="cls-1" d="M77.39,48.86c-.65,0-1.19.16-1.63.49s-.74.76-.93,1.3h-.06v-1.64h-1.61v10.45h1.68v-6.46c0-.57.1-1.04.31-1.41s.48-.65.83-.84.72-.28,1.13-.28c.24,0,.46.01.64.04s.32.05.38.07v-1.68c-.08-.01-.19-.03-.32-.04s-.28-.02-.42-.02Z"/>
  <path class="cls-1" d="M86.54,49.71c-.36-.29-.78-.51-1.26-.65s-1-.21-1.54-.21c-.76,0-1.44.13-2.05.39s-1.1.62-1.49,1.08-.62,1.02-.71,1.66l1.69.12c.05-.32.19-.61.41-.88s.51-.48.88-.64.8-.24,1.28-.24.9.08,1.25.25.6.4.78.69.26.64.26,1.04v.09c0,.26-.08.44-.25.55s-.44.18-.83.23-.91.11-1.56.21c-.51.07-1.02.15-1.51.26s-.94.27-1.33.48-.71.51-.94.88-.35.87-.35,1.46c0,.69.16,1.27.48,1.74s.75.83,1.3,1.07,1.16.36,1.85.36c.62,0,1.14-.08,1.56-.25s.74-.38.99-.63.43-.5.56-.75h.06v1.46h1.66v-7.13c0-.59-.1-1.1-.31-1.53s-.49-.8-.85-1.09ZM86.03,55.55c0,.45-.1.87-.3,1.26s-.52.71-.95.96-.98.37-1.65.37c-.44,0-.82-.06-1.14-.19s-.58-.31-.75-.54-.26-.52-.26-.85c0-.4.11-.71.33-.95s.51-.42.87-.54.74-.22,1.14-.27c.26-.03.54-.07.83-.12s.57-.09.83-.14.49-.1.68-.16.32-.12.38-.18v1.34Z"/>
  <path class="cls-1" d="M96.93,49.3c-.57-.3-1.21-.45-1.91-.45-.81,0-1.52.21-2.13.64-.39.28-.72.67-1,1.16v-1.63h-1.64v10.45h1.68v-6.15c0-.68.12-1.23.37-1.67s.57-.75.99-.96.87-.31,1.37-.31c.77,0,1.38.23,1.81.68s.64,1.13.64,2.01v6.4h1.68v-6.52c0-.92-.17-1.68-.5-2.29s-.79-1.06-1.36-1.36Z"/>
  <path class="cls-1" d="M108.03,49.3c-.57-.3-1.21-.45-1.91-.45-.81,0-1.52.21-2.13.64-.39.28-.72.67-1,1.16v-1.63h-1.64v10.45h1.68v-6.15c0-.68.12-1.23.37-1.67s.57-.75.99-.96.87-.31,1.37-.31c.77,0,1.38.23,1.81.68s.64,1.13.64,2.01v6.4h1.68v-6.52c0-.92-.17-1.68-.5-2.29s-.79-1.06-1.36-1.36Z"/>
  <polygon class="cls-1" points="118.41 44.77 116.51 44.77 115.14 47.67 116.53 47.67 118.41 44.77"/>
  <path class="cls-1" d="M118.96,49.02l-2.22,6.05c-.2.53-.38,1.07-.56,1.6-.1.28-.19.56-.28.85-.09-.28-.18-.56-.27-.84-.18-.53-.36-1.07-.57-1.61l-2.25-6.05h-1.83l4.03,10.39-.51,1.35c-.12.34-.27.61-.42.8s-.34.33-.53.41-.41.11-.66.09h-.83s-.11,1.46-.11,1.46c.16.01.33.02.51.03s.37.01.58.01c.45,0,.86-.09,1.24-.26s.7-.42.99-.76.53-.74.72-1.23l4.77-12.3h-1.81Z"/>
</svg>