<svg width="146" height="146" viewBox="0 0 146 146" fill="none" xmlns="http://www.w3.org/2000/svg">
<path fill-rule="evenodd" clip-rule="evenodd" d="M67.5131 20.1121L73.0041 16.8609L78.4872 20.1121L77.0984 13.8825L81.8831 9.66786L75.5331 9.06577L73.0044 3.21338L70.4675 9.06577L64.1175 9.66786L68.9101 13.8825L67.5131 20.1121ZM75.5328 131.514L73.0041 125.654L70.4672 131.514L64.1172 132.108L68.9098 136.323L67.5131 142.552L73.0041 139.301L78.4872 142.552L77.0984 136.323L81.8831 132.108L75.5328 131.514ZM142.67 70.8879L136.32 70.2937L133.791 64.4334L131.254 70.2937L124.904 70.8879L129.697 75.1025L128.3 81.3321L133.791 78.0809L139.274 81.3321L137.885 75.1025L142.67 70.8879ZM12.2177 78.0807L17.7008 81.3318L16.3119 75.1022L21.0967 70.8876L14.7467 70.2934L12.218 64.4331L9.68103 70.2934L3.33105 70.8876L8.1237 75.1022L6.72694 81.3318L12.2177 78.0807ZM20.3419 33.7512L17.8132 39.6036L11.4632 40.1977L16.2477 44.4203L14.8509 50.642L20.3419 47.3908L25.833 50.642L24.4362 44.4203L29.2206 40.1977L22.8706 39.6036L20.3419 33.7512ZM35.2013 27.1282L40.6923 23.8849L46.1834 27.1282L44.7866 20.9065L49.5792 16.6919L43.2213 16.0898L40.6926 10.2374L38.1639 16.0898L31.8139 16.6919L36.5986 20.9065L35.2013 27.1282ZM119.253 50.6417L124.744 47.3905L130.235 50.6417L128.838 44.42L133.623 40.1974L127.273 39.6033L124.744 33.7509L122.215 39.6033L115.865 40.1974L120.65 44.42L119.253 50.6417ZM104.393 10.2377L101.856 16.0901L95.5063 16.6921L100.291 20.9068L98.9022 27.1285L104.393 23.8852L109.876 27.1285L108.487 20.9068L113.272 16.6921L106.922 16.0901L104.393 10.2377ZM44.7622 122.378L42.2335 116.526L39.6966 122.378L33.3466 122.98L38.1311 127.195L36.7422 133.417L42.2332 130.173L47.7163 133.417L46.3275 127.195L51.1122 122.98L44.7622 122.378ZM22.6616 98.8646L20.1247 93.0123L17.596 98.8646L11.246 99.4667L16.0307 103.681L14.634 109.903L20.125 106.66L25.616 109.903L24.2193 103.681L29.0119 99.4667L22.6616 98.8646ZM106.416 122.378L103.879 116.526L101.35 122.378L95.0002 122.98L99.7849 127.195L98.3882 133.417L103.879 130.173L109.37 133.417L107.973 127.195L112.766 122.98L106.416 122.378ZM128.516 98.8646L125.988 93.0123L123.451 98.8646L117.101 99.4667L121.886 103.681L120.497 109.903L125.988 106.66L131.471 109.903L130.082 103.681L134.867 99.4667L128.516 98.8646Z" fill="#777777"/>
</svg>
