<svg width="55" height="55" viewBox="0 0 55 55" fill="none" xmlns="http://www.w3.org/2000/svg">
<path d="M14.5709 18.5091C14.815 18.7909 14.815 19.2093 14.5709 19.4911L3.56304 32.2019C3.10844 32.7268 2.24609 32.4053 2.24609 31.7109L2.24609 6.28934C2.24609 5.59493 3.10844 5.27343 3.56304 5.79836L14.5709 18.5091Z" fill="#777777"/>
<path d="M51.2705 5.44L45.6705 33H40.7905L35.7105 9.92L30.5905 33H25.8305L20.2305 5.44H23.9505L28.3905 29.68L33.7105 5.44H37.7505L43.1905 29.68L47.7905 5.44H51.2705Z" fill="#777777"/>
<path d="M13.8954 50H12.1854L9.81535 44.41C9.87535 44.9033 9.91868 45.35 9.94535 45.75C9.97868 46.15 9.99535 46.6267 9.99535 47.18V50H8.79535V43.09H10.4654L12.8754 48.69C12.8354 48.4233 12.7954 48.0733 12.7554 47.64C12.7154 47.2 12.6954 46.7633 12.6954 46.33V43.09H13.8954V50ZM18.8841 48.6C18.8841 48.8067 18.9141 48.96 18.9741 49.06C19.0408 49.1533 19.1441 49.2267 19.2841 49.28L19.0141 50.13C18.7141 50.1033 18.4674 50.03 18.2741 49.91C18.0874 49.79 17.9441 49.6067 17.8441 49.36C17.6641 49.6267 17.4374 49.8267 17.1641 49.96C16.8974 50.0867 16.5974 50.15 16.2641 50.15C15.7374 50.15 15.3208 50 15.0141 49.7C14.7074 49.4 14.5541 49.0067 14.5541 48.52C14.5541 47.9467 14.7608 47.51 15.1741 47.21C15.5941 46.9033 16.1908 46.75 16.9641 46.75H17.6241V46.45C17.6241 46.11 17.5441 45.8733 17.3841 45.74C17.2308 45.6 16.9808 45.53 16.6341 45.53C16.2474 45.53 15.7808 45.6233 15.2341 45.81L14.9341 44.94C15.5941 44.6867 16.2341 44.56 16.8541 44.56C18.2074 44.56 18.8841 45.1667 18.8841 46.38V48.6ZM16.6041 49.22C17.0374 49.22 17.3774 49.0033 17.6241 48.57V47.5H17.0941C16.2674 47.5 15.8541 47.8067 15.8541 48.42C15.8541 48.6733 15.9174 48.87 16.0441 49.01C16.1708 49.15 16.3574 49.22 16.6041 49.22ZM17.6241 41.8L18.1441 42.8L15.8841 43.7L15.5241 43.05L17.6241 41.8ZM21.5054 44.56C22.2188 44.56 22.8454 44.77 23.3854 45.19L22.8854 45.94C22.4321 45.6533 21.9888 45.51 21.5554 45.51C21.3021 45.51 21.1054 45.56 20.9654 45.66C20.8254 45.7533 20.7554 45.88 20.7554 46.04C20.7554 46.16 20.7854 46.26 20.8454 46.34C20.9054 46.42 21.0121 46.4967 21.1654 46.57C21.3254 46.6367 21.5588 46.7133 21.8654 46.8C22.4388 46.9533 22.8621 47.1567 23.1354 47.41C23.4154 47.6633 23.5554 48.0167 23.5554 48.47C23.5554 48.9967 23.3421 49.41 22.9154 49.71C22.4888 50.0033 21.9588 50.15 21.3254 50.15C20.8921 50.15 20.4954 50.0833 20.1354 49.95C19.7821 49.8167 19.4754 49.6333 19.2154 49.4L19.8554 48.68C20.3154 49.0267 20.7954 49.2 21.2954 49.2C21.5821 49.2 21.8088 49.1433 21.9754 49.03C22.1488 48.9167 22.2354 48.76 22.2354 48.56C22.2354 48.4067 22.2021 48.2867 22.1354 48.2C22.0754 48.1067 21.9621 48.0267 21.7954 47.96C21.6354 47.8867 21.3821 47.8 21.0354 47.7C20.4954 47.5533 20.0988 47.35 19.8454 47.09C19.5921 46.8233 19.4654 46.4933 19.4654 46.1C19.4654 45.8067 19.5488 45.5433 19.7154 45.31C19.8888 45.0767 20.1288 44.8933 20.4354 44.76C20.7488 44.6267 21.1054 44.56 21.5054 44.56ZM27.1213 49.75C26.9346 49.8833 26.7246 49.9833 26.4913 50.05C26.2646 50.1167 26.0313 50.15 25.7913 50.15C25.2713 50.1433 24.8746 49.9967 24.6013 49.71C24.3346 49.4167 24.2013 48.9867 24.2013 48.42V45.63H23.3713V44.71H24.2013V43.54L25.4813 43.39V44.71H26.7113L26.5813 45.63H25.4813V48.39C25.4813 48.65 25.5246 48.8367 25.6113 48.95C25.7046 49.0633 25.848 49.12 26.0413 49.12C26.2346 49.12 26.4446 49.0567 26.6713 48.93L27.1213 49.75ZM31.5153 47.23C31.5153 47.2967 31.5053 47.47 31.4853 47.75H28.1653C28.2053 48.2633 28.3386 48.63 28.5653 48.85C28.7919 49.07 29.0919 49.18 29.4653 49.18C29.6986 49.18 29.9186 49.1433 30.1253 49.07C30.3319 48.99 30.5519 48.87 30.7853 48.71L31.3153 49.44C30.7286 49.9133 30.0753 50.15 29.3553 50.15C28.5486 50.15 27.9253 49.9033 27.4853 49.41C27.0519 48.9167 26.8353 48.2433 26.8353 47.39C26.8353 46.85 26.9286 46.3667 27.1153 45.94C27.3019 45.5067 27.5719 45.17 27.9253 44.93C28.2786 44.6833 28.6986 44.56 29.1853 44.56C29.9253 44.56 30.4986 44.7967 30.9053 45.27C31.3119 45.7367 31.5153 46.39 31.5153 47.23ZM30.2453 46.86C30.2453 45.9333 29.9019 45.47 29.2153 45.47C28.9019 45.47 28.6553 45.5867 28.4753 45.82C28.3019 46.0467 28.1986 46.4133 28.1653 46.92H30.2453V46.86ZM30.5153 42L31.0053 42.56L29.6153 43.81H28.8153L27.4253 42.56L27.9153 42L29.2153 42.88L30.5153 42ZM34.9836 44.56C35.4569 44.56 35.8236 44.7033 36.0836 44.99C36.3502 45.27 36.4836 45.6633 36.4836 46.17V50H35.2036V46.37C35.2036 46.0567 35.1469 45.8367 35.0336 45.71C34.9269 45.5833 34.7669 45.52 34.5536 45.52C34.3336 45.52 34.1336 45.59 33.9536 45.73C33.7802 45.8633 33.6102 46.06 33.4436 46.32V50H32.1636V44.71H33.2736L33.3736 45.4C33.8069 44.84 34.3436 44.56 34.9836 44.56ZM40.2941 44.56C40.7674 44.56 41.1341 44.7033 41.3941 44.99C41.6608 45.27 41.7941 45.6633 41.7941 46.17V50H40.5141V46.37C40.5141 46.0567 40.4574 45.8367 40.3441 45.71C40.2374 45.5833 40.0774 45.52 39.8641 45.52C39.6441 45.52 39.4441 45.59 39.2641 45.73C39.0908 45.8633 38.9208 46.06 38.7541 46.32V50H37.4741V44.71H38.5841L38.6841 45.4C39.1174 44.84 39.6541 44.56 40.2941 44.56ZM45.2861 50.02C45.0727 50.6733 44.7494 51.18 44.3161 51.54C43.8827 51.9067 43.2894 52.12 42.5361 52.18L42.4061 51.25C42.7527 51.1967 43.0294 51.12 43.2361 51.02C43.4494 50.9267 43.6194 50.8 43.7461 50.64C43.8727 50.48 43.9894 50.2667 44.0961 50H43.6561L41.9761 44.71H43.3361L44.4861 49.15L45.6861 44.71H47.0061L45.2861 50.02ZM45.2461 41.8L45.7661 42.8L43.5061 43.7L43.1461 43.05L45.2461 41.8Z" fill="#777777"/>
</svg>
