<svg width="55" height="55" viewBox="0 0 55 55" fill="none" xmlns="http://www.w3.org/2000/svg">
<path d="M25.5748 18.509C25.8189 18.7908 25.8189 19.2092 25.5748 19.491L14.5669 32.2018C14.1123 32.7267 13.25 32.4052 13.25 31.7108L13.25 6.28923C13.25 5.59482 14.1123 5.27332 14.5669 5.79825L25.5748 18.509Z" fill="#777777"/>
<path d="M41.2677 6.24V33H37.5877V10.16L31.3477 13.96L29.7477 11.36L38.0277 6.24H41.2677Z" fill="#777777"/>
<path d="M2.39492 48.99C2.39492 49.73 2.21826 50.2867 1.86492 50.66C1.51826 51.04 1.01826 51.3367 0.364922 51.55L0.0149219 50.6C0.308255 50.4867 0.528255 50.3567 0.674922 50.21C0.828255 50.07 0.931589 49.9033 0.984922 49.71C1.03826 49.51 1.06492 49.2533 1.06492 48.94V43.09H2.39492V48.99ZM7.77016 47.23C7.77016 47.2967 7.76016 47.47 7.74016 47.75H4.42016C4.46016 48.2633 4.59349 48.63 4.82016 48.85C5.04682 49.07 5.34682 49.18 5.72016 49.18C5.95349 49.18 6.17349 49.1433 6.38016 49.07C6.58682 48.99 6.80682 48.87 7.04016 48.71L7.57016 49.44C6.98349 49.9133 6.33016 50.15 5.61016 50.15C4.80349 50.15 4.18016 49.9033 3.74016 49.41C3.30682 48.9167 3.09016 48.2433 3.09016 47.39C3.09016 46.85 3.18349 46.3667 3.37016 45.94C3.55682 45.5067 3.82682 45.17 4.18016 44.93C4.53349 44.6833 4.95349 44.56 5.44016 44.56C6.18016 44.56 6.75349 44.7967 7.16016 45.27C7.56682 45.7367 7.77016 46.39 7.77016 47.23ZM6.50016 46.86C6.50016 45.9333 6.15682 45.47 5.47016 45.47C5.15682 45.47 4.91016 45.5867 4.73016 45.82C4.55682 46.0467 4.45349 46.4133 4.42016 46.92H6.50016V46.86ZM12.8684 42.59V50H11.7384L11.6484 49.33C11.4818 49.5833 11.2684 49.7833 11.0084 49.93C10.7551 50.0767 10.4651 50.15 10.1384 50.15C9.49177 50.15 8.9951 49.9 8.64844 49.4C8.30177 48.9 8.12844 48.22 8.12844 47.36C8.12844 46.82 8.2151 46.34 8.38844 45.92C8.56177 45.4933 8.80844 45.16 9.12844 44.92C9.4551 44.68 9.83177 44.56 10.2584 44.56C10.7651 44.56 11.2084 44.75 11.5884 45.13V42.45L12.8684 42.59ZM10.4984 49.18C10.7251 49.18 10.9251 49.1267 11.0984 49.02C11.2718 48.9067 11.4351 48.7333 11.5884 48.5V46.08C11.4351 45.8933 11.2784 45.7533 11.1184 45.66C10.9651 45.5667 10.7851 45.52 10.5784 45.52C10.2384 45.52 9.96844 45.6733 9.76844 45.98C9.5751 46.28 9.47844 46.7367 9.47844 47.35C9.47844 48.0033 9.5651 48.4733 9.73844 48.76C9.91177 49.04 10.1651 49.18 10.4984 49.18ZM16.7248 44.56C17.1981 44.56 17.5648 44.7033 17.8248 44.99C18.0914 45.27 18.2248 45.6633 18.2248 46.17V50H16.9448V46.37C16.9448 46.0567 16.8881 45.8367 16.7748 45.71C16.6681 45.5833 16.5081 45.52 16.2948 45.52C16.0748 45.52 15.8748 45.59 15.6948 45.73C15.5214 45.8633 15.3514 46.06 15.1848 46.32V50H13.9048V44.71H15.0148L15.1148 45.4C15.5481 44.84 16.0848 44.56 16.7248 44.56ZM21.3753 44.56C22.1553 44.56 22.762 44.81 23.1953 45.31C23.6353 45.8033 23.8553 46.4833 23.8553 47.35C23.8553 47.9033 23.7553 48.3933 23.5553 48.82C23.3553 49.24 23.0686 49.5667 22.6953 49.8C22.322 50.0333 21.8786 50.15 21.3653 50.15C20.5853 50.15 19.9753 49.9033 19.5353 49.41C19.0953 48.91 18.8753 48.2233 18.8753 47.35C18.8753 46.7967 18.9753 46.31 19.1753 45.89C19.3753 45.47 19.662 45.1433 20.0353 44.91C20.4153 44.6767 20.862 44.56 21.3753 44.56ZM21.3753 45.53C20.6086 45.53 20.2253 46.1367 20.2253 47.35C20.2253 47.9767 20.3186 48.44 20.5053 48.74C20.6986 49.0333 20.9853 49.18 21.3653 49.18C21.7453 49.18 22.0286 49.03 22.2153 48.73C22.4086 48.43 22.5053 47.97 22.5053 47.35C22.5053 46.73 22.4086 46.2733 22.2153 45.98C22.0286 45.68 21.7486 45.53 21.3753 45.53ZM26.2252 44.56C26.9385 44.56 27.5652 44.77 28.1052 45.19L27.6052 45.94C27.1518 45.6533 26.7085 45.51 26.2752 45.51C26.0218 45.51 25.8252 45.56 25.6852 45.66C25.5452 45.7533 25.4752 45.88 25.4752 46.04C25.4752 46.16 25.5052 46.26 25.5652 46.34C25.6252 46.42 25.7318 46.4967 25.8852 46.57C26.0452 46.6367 26.2785 46.7133 26.5852 46.8C27.1585 46.9533 27.5818 47.1567 27.8552 47.41C28.1352 47.6633 28.2752 48.0167 28.2752 48.47C28.2752 48.9967 28.0618 49.41 27.6352 49.71C27.2085 50.0033 26.6785 50.15 26.0452 50.15C25.6118 50.15 25.2152 50.0833 24.8552 49.95C24.5018 49.8167 24.1952 49.6333 23.9352 49.4L24.5752 48.68C25.0352 49.0267 25.5152 49.2 26.0152 49.2C26.3018 49.2 26.5285 49.1433 26.6952 49.03C26.8685 48.9167 26.9552 48.76 26.9552 48.56C26.9552 48.4067 26.9218 48.2867 26.8552 48.2C26.7952 48.1067 26.6818 48.0267 26.5152 47.96C26.3552 47.8867 26.1018 47.8 25.7552 47.7C25.2152 47.5533 24.8185 47.35 24.5652 47.09C24.3118 46.8233 24.1852 46.4933 24.1852 46.1C24.1852 45.8067 24.2685 45.5433 24.4352 45.31C24.6085 45.0767 24.8485 44.8933 25.1552 44.76C25.4685 44.6267 25.8252 44.56 26.2252 44.56ZM31.841 49.75C31.6543 49.8833 31.4443 49.9833 31.211 50.05C30.9843 50.1167 30.751 50.15 30.511 50.15C29.991 50.1433 29.5943 49.9967 29.321 49.71C29.0543 49.4167 28.921 48.9867 28.921 48.42V45.63H28.091V44.71H28.921V43.54L30.201 43.39V44.71H31.431L31.301 45.63H30.201V48.39C30.201 48.65 30.2443 48.8367 30.331 48.95C30.4243 49.0633 30.5677 49.12 30.761 49.12C30.9543 49.12 31.1643 49.0567 31.391 48.93L31.841 49.75ZM34.671 44.57C34.8643 44.57 35.041 44.5933 35.201 44.64L34.981 45.88C34.821 45.84 34.6643 45.82 34.511 45.82C34.1977 45.82 33.951 45.9333 33.771 46.16C33.591 46.38 33.4477 46.72 33.341 47.18V50H32.061V44.71H33.171L33.291 45.75C33.4177 45.37 33.601 45.08 33.841 44.88C34.081 44.6733 34.3577 44.57 34.671 44.57ZM39.055 48.6C39.055 48.8067 39.085 48.96 39.145 49.06C39.2117 49.1533 39.315 49.2267 39.455 49.28L39.185 50.13C38.885 50.1033 38.6383 50.03 38.445 49.91C38.2583 49.79 38.115 49.6067 38.015 49.36C37.835 49.6267 37.6083 49.8267 37.335 49.96C37.0683 50.0867 36.7683 50.15 36.435 50.15C35.9083 50.15 35.4917 50 35.185 49.7C34.8783 49.4 34.725 49.0067 34.725 48.52C34.725 47.9467 34.9317 47.51 35.345 47.21C35.765 46.9033 36.3617 46.75 37.135 46.75H37.795V46.45C37.795 46.11 37.715 45.8733 37.555 45.74C37.4017 45.6 37.1517 45.53 36.805 45.53C36.4183 45.53 35.9517 45.6233 35.405 45.81L35.105 44.94C35.765 44.6867 36.405 44.56 37.025 44.56C38.3783 44.56 39.055 45.1667 39.055 46.38V48.6ZM36.775 49.22C37.2083 49.22 37.5483 49.0033 37.795 48.57V47.5H37.265C36.4383 47.5 36.025 47.8067 36.025 48.42C36.025 48.6733 36.0883 48.87 36.215 49.01C36.3417 49.15 36.5283 49.22 36.775 49.22ZM42.924 44.56C43.3973 44.56 43.764 44.7033 44.024 44.99C44.2907 45.27 44.424 45.6633 44.424 46.17V50H43.144V46.37C43.144 46.0567 43.0873 45.8367 42.974 45.71C42.8673 45.5833 42.7073 45.52 42.494 45.52C42.274 45.52 42.074 45.59 41.894 45.73C41.7207 45.8633 41.5507 46.06 41.384 46.32V50H40.104V44.71H41.214L41.314 45.4C41.7473 44.84 42.284 44.56 42.924 44.56ZM48.2345 44.56C48.7079 44.56 49.0745 44.7033 49.3345 44.99C49.6012 45.27 49.7345 45.6633 49.7345 46.17V50H48.4545V46.37C48.4545 46.0567 48.3979 45.8367 48.2845 45.71C48.1779 45.5833 48.0179 45.52 47.8045 45.52C47.5845 45.52 47.3845 45.59 47.2045 45.73C47.0312 45.8633 46.8612 46.06 46.6945 46.32V50H45.4145V44.71H46.5245L46.6245 45.4C47.0579 44.84 47.5945 44.56 48.2345 44.56ZM53.2265 50.02C53.0132 50.6733 52.6898 51.18 52.2565 51.54C51.8232 51.9067 51.2298 52.12 50.4765 52.18L50.3465 51.25C50.6932 51.1967 50.9698 51.12 51.1765 51.02C51.3898 50.9267 51.5598 50.8 51.6865 50.64C51.8132 50.48 51.9298 50.2667 52.0365 50H51.5965L49.9165 44.71H51.2765L52.4265 49.15L53.6265 44.71H54.9465L53.2265 50.02ZM53.1865 41.8L53.7065 42.8L51.4465 43.7L51.0865 43.05L53.1865 41.8Z" fill="#777777"/>
</svg>
