<svg width="59" height="55" viewBox="0 0 59 55" fill="none" xmlns="http://www.w3.org/2000/svg">
<path d="M17.0748 18.509C17.3189 18.7908 17.3189 19.2092 17.0748 19.491L6.06694 32.2018C5.61234 32.7267 4.75 32.4052 4.75 31.7108L4.75 6.28923C4.75 5.59482 5.61235 5.27332 6.06695 5.79825L17.0748 18.509Z" fill="#777777"/>
<path d="M28.7177 5.84C30.3177 5.84 31.7177 6.16 32.9177 6.8C34.1443 7.44 35.091 8.32 35.7577 9.44C36.4243 10.5333 36.7577 11.7733 36.7577 13.16C36.7577 14.7867 36.3843 16.3467 35.6377 17.84C34.9177 19.3333 33.7977 20.9467 32.2777 22.68C30.7577 24.4133 28.451 26.8267 25.3577 29.92H37.3977L36.9577 33H21.1577V30.08C24.731 26.3733 27.2643 23.6667 28.7577 21.96C30.251 20.2267 31.3177 18.72 31.9577 17.44C32.5977 16.16 32.9177 14.7867 32.9177 13.32C32.9177 11.9333 32.5177 10.8533 31.7177 10.08C30.9177 9.28 29.851 8.88 28.5177 8.88C27.4243 8.88 26.4643 9.10667 25.6377 9.56C24.811 10.0133 23.931 10.76 22.9977 11.8L20.5977 9.88C21.691 8.52 22.9043 7.50667 24.2377 6.84C25.571 6.17333 27.0643 5.84 28.7177 5.84Z" fill="#777777"/>
<path d="M41.9252 19.491C41.6811 19.2092 41.6811 18.7908 41.9252 18.509L52.9331 5.79825C53.3877 5.27332 54.25 5.59482 54.25 6.28924L54.25 31.7108C54.25 32.4052 53.3877 32.7267 52.9331 32.2018L41.9252 19.491Z" fill="#777777"/>
<path d="M6.13383 42.94C6.75383 42.94 7.29049 43.08 7.74383 43.36C8.19716 43.64 8.54383 44.05 8.78383 44.59C9.03049 45.13 9.15383 45.78 9.15383 46.54C9.15383 47.2933 9.03049 47.94 8.78383 48.48C8.53716 49.02 8.18716 49.4333 7.73383 49.72C7.2805 50.0067 6.74716 50.15 6.13383 50.15C5.51383 50.15 4.97716 50.01 4.52383 49.73C4.07049 49.45 3.72049 49.04 3.47383 48.5C3.22716 47.96 3.10383 47.31 3.10383 46.55C3.10383 45.8033 3.22716 45.16 3.47383 44.62C3.72049 44.0733 4.07049 43.6567 4.52383 43.37C4.98383 43.0833 5.52049 42.94 6.13383 42.94ZM6.13383 43.95C5.60049 43.95 5.19383 44.16 4.91383 44.58C4.63383 44.9933 4.49383 45.65 4.49383 46.55C4.49383 48.2767 5.04049 49.14 6.13383 49.14C6.66716 49.14 7.0705 48.9333 7.34383 48.52C7.62383 48.1067 7.76383 47.4467 7.76383 46.54C7.76383 45.64 7.62383 44.9833 7.34383 44.57C7.0705 44.1567 6.66716 43.95 6.13383 43.95ZM12.5979 44.56C13.2112 44.56 13.6912 44.8067 14.0379 45.3C14.3846 45.7867 14.5579 46.47 14.5579 47.35C14.5579 47.8967 14.4712 48.3833 14.2979 48.81C14.1312 49.23 13.8912 49.56 13.5779 49.8C13.2646 50.0333 12.8946 50.15 12.4679 50.15C12.1812 50.15 11.9179 50.09 11.6779 49.97C11.4446 49.85 11.2412 49.68 11.0679 49.46L10.9879 50H9.85789V42.59L11.1379 42.45V45.31C11.3112 45.07 11.5212 44.8867 11.7679 44.76C12.0212 44.6267 12.2979 44.56 12.5979 44.56ZM12.1179 49.19C12.4646 49.19 12.7346 49.0433 12.9279 48.75C13.1212 48.45 13.2179 47.9833 13.2179 47.35C13.2179 46.6833 13.1279 46.2133 12.9479 45.94C12.7679 45.66 12.5146 45.52 12.1879 45.52C11.7812 45.52 11.4312 45.76 11.1379 46.24V48.58C11.2512 48.7733 11.3912 48.9233 11.5579 49.03C11.7312 49.1367 11.9179 49.19 12.1179 49.19ZM17.4749 44.56C18.2549 44.56 18.8616 44.81 19.2949 45.31C19.7349 45.8033 19.9549 46.4833 19.9549 47.35C19.9549 47.9033 19.8549 48.3933 19.6549 48.82C19.4549 49.24 19.1683 49.5667 18.7949 49.8C18.4216 50.0333 17.9783 50.15 17.4649 50.15C16.6849 50.15 16.0749 49.9033 15.6349 49.41C15.1949 48.91 14.9749 48.2233 14.9749 47.35C14.9749 46.7967 15.0749 46.31 15.2749 45.89C15.4749 45.47 15.7616 45.1433 16.1349 44.91C16.5149 44.6767 16.9616 44.56 17.4749 44.56ZM17.4749 45.53C16.7083 45.53 16.3249 46.1367 16.3249 47.35C16.3249 47.9767 16.4183 48.44 16.6049 48.74C16.7983 49.0333 17.0849 49.18 17.4649 49.18C17.8449 49.18 18.1283 49.03 18.3149 48.73C18.5083 48.43 18.6049 47.97 18.6049 47.35C18.6049 46.73 18.5083 46.2733 18.3149 45.98C18.1283 45.68 17.8483 45.53 17.4749 45.53ZM24.8848 50H23.7748L23.7048 49.26C23.5114 49.56 23.2814 49.7833 23.0148 49.93C22.7548 50.0767 22.4448 50.15 22.0848 50.15C21.6114 50.15 21.2448 50.0067 20.9848 49.72C20.7314 49.4267 20.6048 49.0233 20.6048 48.51V44.71H21.8848V48.35C21.8848 48.65 21.9348 48.8633 22.0348 48.99C22.1414 49.1167 22.3081 49.18 22.5348 49.18C22.9414 49.18 23.2981 48.93 23.6048 48.43V44.71H24.8848V50ZM27.5963 44.56C28.3096 44.56 28.9363 44.77 29.4763 45.19L28.9763 45.94C28.5229 45.6533 28.0796 45.51 27.6463 45.51C27.3929 45.51 27.1963 45.56 27.0563 45.66C26.9163 45.7533 26.8463 45.88 26.8463 46.04C26.8463 46.16 26.8763 46.26 26.9363 46.34C26.9963 46.42 27.1029 46.4967 27.2563 46.57C27.4163 46.6367 27.6496 46.7133 27.9563 46.8C28.5296 46.9533 28.9529 47.1567 29.2263 47.41C29.5063 47.6633 29.6463 48.0167 29.6463 48.47C29.6463 48.9967 29.4329 49.41 29.0063 49.71C28.5796 50.0033 28.0496 50.15 27.4163 50.15C26.9829 50.15 26.5863 50.0833 26.2263 49.95C25.8729 49.8167 25.5663 49.6333 25.3063 49.4L25.9463 48.68C26.4063 49.0267 26.8863 49.2 27.3863 49.2C27.6729 49.2 27.8996 49.1433 28.0663 49.03C28.2396 48.9167 28.3263 48.76 28.3263 48.56C28.3263 48.4067 28.2929 48.2867 28.2263 48.2C28.1663 48.1067 28.0529 48.0267 27.8863 47.96C27.7263 47.8867 27.4729 47.8 27.1263 47.7C26.5863 47.5533 26.1896 47.35 25.9363 47.09C25.6829 46.8233 25.5563 46.4933 25.5563 46.1C25.5563 45.8067 25.6396 45.5433 25.8063 45.31C25.9796 45.0767 26.2196 44.8933 26.5263 44.76C26.8396 44.6267 27.1963 44.56 27.5963 44.56ZM33.2121 49.75C33.0254 49.8833 32.8154 49.9833 32.5821 50.05C32.3554 50.1167 32.1221 50.15 31.8821 50.15C31.3621 50.1433 30.9654 49.9967 30.6921 49.71C30.4254 49.4167 30.2921 48.9867 30.2921 48.42V45.63H29.4621V44.71H30.2921V43.54L31.5721 43.39V44.71H32.8021L32.6721 45.63H31.5721V48.39C31.5721 48.65 31.6154 48.8367 31.7021 48.95C31.7954 49.0633 31.9388 49.12 32.1321 49.12C32.3254 49.12 32.5354 49.0567 32.7621 48.93L33.2121 49.75ZM36.0421 44.57C36.2354 44.57 36.4121 44.5933 36.5721 44.64L36.3521 45.88C36.1921 45.84 36.0354 45.82 35.8821 45.82C35.5688 45.82 35.3221 45.9333 35.1421 46.16C34.9621 46.38 34.8188 46.72 34.7121 47.18V50H33.4321V44.71H34.5421L34.6621 45.75C34.7888 45.37 34.9721 45.08 35.2121 44.88C35.4521 44.6733 35.7288 44.57 36.0421 44.57ZM40.4261 48.6C40.4261 48.8067 40.4561 48.96 40.5161 49.06C40.5828 49.1533 40.6861 49.2267 40.8261 49.28L40.5561 50.13C40.2561 50.1033 40.0094 50.03 39.8161 49.91C39.6294 49.79 39.4861 49.6067 39.3861 49.36C39.2061 49.6267 38.9794 49.8267 38.7061 49.96C38.4394 50.0867 38.1394 50.15 37.8061 50.15C37.2794 50.15 36.8628 50 36.5561 49.7C36.2494 49.4 36.0961 49.0067 36.0961 48.52C36.0961 47.9467 36.3028 47.51 36.7161 47.21C37.1361 46.9033 37.7328 46.75 38.5061 46.75H39.1661V46.45C39.1661 46.11 39.0861 45.8733 38.9261 45.74C38.7728 45.6 38.5228 45.53 38.1761 45.53C37.7894 45.53 37.3228 45.6233 36.7761 45.81L36.4761 44.94C37.1361 44.6867 37.7761 44.56 38.3961 44.56C39.7494 44.56 40.4261 45.1667 40.4261 46.38V48.6ZM38.1461 49.22C38.5794 49.22 38.9194 49.0033 39.1661 48.57V47.5H38.6361C37.8094 47.5 37.3961 47.8067 37.3961 48.42C37.3961 48.6733 37.4594 48.87 37.5861 49.01C37.7128 49.15 37.8994 49.22 38.1461 49.22ZM44.2951 44.56C44.7684 44.56 45.1351 44.7033 45.3951 44.99C45.6617 45.27 45.7951 45.6633 45.7951 46.17V50H44.5151V46.37C44.5151 46.0567 44.4584 45.8367 44.3451 45.71C44.2384 45.5833 44.0784 45.52 43.8651 45.52C43.6451 45.52 43.4451 45.59 43.2651 45.73C43.0917 45.8633 42.9217 46.06 42.7551 46.32V50H41.4751V44.71H42.5851L42.6851 45.4C43.1184 44.84 43.6551 44.56 44.2951 44.56ZM49.6056 44.56C50.079 44.56 50.4456 44.7033 50.7056 44.99C50.9723 45.27 51.1056 45.6633 51.1056 46.17V50H49.8256V46.37C49.8256 46.0567 49.769 45.8367 49.6556 45.71C49.549 45.5833 49.389 45.52 49.1756 45.52C48.9556 45.52 48.7556 45.59 48.5756 45.73C48.4023 45.8633 48.2323 46.06 48.0656 46.32V50H46.7856V44.71H47.8956L47.9956 45.4C48.429 44.84 48.9656 44.56 49.6056 44.56ZM54.5976 50.02C54.3842 50.6733 54.0609 51.18 53.6276 51.54C53.1942 51.9067 52.6009 52.12 51.8476 52.18L51.7176 51.25C52.0642 51.1967 52.3409 51.12 52.5476 51.02C52.7609 50.9267 52.9309 50.8 53.0576 50.64C53.1842 50.48 53.3009 50.2667 53.4076 50H52.9676L51.2876 44.71H52.6476L53.7976 49.15L54.9976 44.71H56.3176L54.5976 50.02ZM54.5576 41.8L55.0776 42.8L52.8176 43.7L52.4576 43.05L54.5576 41.8Z" fill="#777777"/>
</svg>
