<?xml version="1.0" encoding="UTF-8"?>
<svg id="Vrstva_1" data-name="Vrstva 1" xmlns="http://www.w3.org/2000/svg" viewBox="0 0 135.62 68">
  <defs>
    <style>
      .cls-1 {
        fill: #4d4d4d;
      }
    </style>
  </defs>
  <polygon class="cls-1" points="30.48 11.41 30.48 33.92 35.84 33.92 35.84 5.73 32.08 5.73 26.4 7.49 26.88 12.45 30.48 11.41"/>
  <polygon class="cls-1" points="10.77 31.35 13.55 31.35 19.67 19.68 13.55 8 8 8 14.13 19.68 8 31.35 10.77 31.35"/>
  <path class="cls-1" d="M14.82,55.33c0,.9-.23,1.58-.69,2.05s-1.07.7-1.83.7-1.37-.23-1.84-.7-.69-1.15-.69-2.05v-.78h-1.78v.78c0,1.39.4,2.46,1.2,3.21s1.84,1.12,3.11,1.12,2.3-.37,3.1-1.12,1.21-1.82,1.21-3.22v-10.4h-1.79v10.41Z"/>
  <path class="cls-1" d="M26.93,50.25c-.42-.47-.92-.83-1.49-1.07s-1.2-.37-1.88-.37c-.93,0-1.75.24-2.46.71s-1.26,1.12-1.67,1.94-.6,1.76-.6,2.83.19,1.99.58,2.81.94,1.46,1.67,1.92,1.6.69,2.62.69c.75,0,1.43-.13,2.04-.41s1.12-.64,1.53-1.12.68-1.04.82-1.67l-1.67-.1c-.11.36-.29.67-.53.94s-.55.48-.92.62-.79.22-1.26.22c-.67,0-1.24-.15-1.72-.46s-.84-.73-1.09-1.28c-.23-.49-.34-1.06-.36-1.69h7.73v-.52c0-.85-.12-1.61-.35-2.28s-.56-1.24-.98-1.7ZM20.54,53.31c.05-.49.14-.95.33-1.34.25-.52.6-.92,1.06-1.22s1-.44,1.62-.44,1.16.14,1.62.43.8.7,1.04,1.23c.18.39.27.85.32,1.34h-5.99Z"/>
  <path class="cls-1" d="M37.54,50.59h-.05c-.2-.34-.45-.64-.76-.9s-.67-.47-1.07-.62-.86-.22-1.37-.22c-.9,0-1.69.22-2.36.67s-1.2,1.08-1.58,1.89-.57,1.76-.57,2.84.19,2.02.56,2.83.9,1.45,1.58,1.9,1.47.68,2.36.68c.51,0,.96-.08,1.37-.23s.76-.36,1.08-.63.58-.58.8-.93h.06v1.59h1.64v-14.55h-1.68v5.67ZM37.28,56.3c-.25.59-.6,1.05-1.07,1.37s-1.02.49-1.67.49-1.15-.15-1.61-.46-.82-.75-1.07-1.34-.38-1.29-.38-2.11.13-1.53.38-2.11.61-1.02,1.06-1.33,1-.46,1.62-.46,1.2.16,1.67.48.82.77,1.07,1.36.37,1.27.37,2.06-.12,1.47-.37,2.06Z"/>
  <path class="cls-1" d="M48.47,49.3c-.57-.3-1.21-.45-1.91-.45-.81,0-1.52.21-2.13.64-.39.28-.72.67-1,1.16v-1.63h-1.64v10.45h1.68v-6.15c0-.68.12-1.23.37-1.67s.57-.75.99-.96.87-.31,1.37-.31c.77,0,1.38.23,1.81.68s.64,1.13.64,2.01v6.4h1.68v-6.52c0-.92-.17-1.68-.5-2.29s-.79-1.06-1.36-1.36Z"/>
  <path class="cls-1" d="M59.71,49.5c-.72-.47-1.57-.7-2.54-.7s-1.8.23-2.52.7-1.29,1.11-1.69,1.93-.61,1.77-.61,2.84.2,2.01.61,2.82.97,1.45,1.69,1.91,1.57.69,2.52.69,1.82-.23,2.54-.69,1.29-1.1,1.69-1.91.61-1.75.61-2.82-.2-2.02-.61-2.84-.97-1.46-1.69-1.93ZM59.94,56.3c-.24.59-.6,1.05-1.06,1.38s-1.03.5-1.7.5-1.23-.17-1.69-.5-.82-.79-1.06-1.38-.36-1.26-.36-2.03.12-1.46.36-2.05.59-1.06,1.06-1.39,1.03-.5,1.69-.5,1.24.17,1.7.51.82.8,1.06,1.39.37,1.27.37,2.05-.12,1.44-.37,2.03Z"/>
  <path class="cls-1" d="M68.7,53.72l-1.66-.39c-.53-.12-.93-.31-1.22-.55s-.43-.56-.43-.95c0-.44.2-.82.59-1.12s.9-.46,1.53-.46c.68,0,1.21.17,1.59.52s.6.78.63,1.29l1.62-.09c-.05-.65-.25-1.21-.58-1.68s-.78-.84-1.34-1.1-1.2-.39-1.92-.39-1.4.13-1.97.39-1.02.62-1.35,1.08-.49.98-.49,1.58c0,.75.25,1.38.74,1.87s1.22.85,2.18,1.08l1.69.39c.48.11.86.29,1.14.52s.42.55.42.94c0,.46-.21.83-.63,1.14s-.99.45-1.72.45-1.26-.16-1.68-.47-.66-.78-.74-1.38l-1.65.09c.06.72.28,1.32.65,1.8s.85.83,1.45,1.07,1.26.35,2.01.35,1.46-.12,2.07-.38,1.09-.61,1.44-1.07.52-1.02.52-1.66c0-.74-.23-1.35-.7-1.82s-1.19-.83-2.18-1.06Z"/>
  <path class="cls-1" d="M77.63,58.03c-.17,0-.33,0-.47,0-.43,0-.73-.09-.9-.26s-.26-.47-.26-.89v-6.43h2.12v-1.45h-2.12v-2.76h-1.68v2.76h-1.8v1.45h1.8v6.6c0,.8.23,1.41.68,1.82s1.13.62,2.03.62c.18,0,.38,0,.59,0s.4-.02.57-.03l-.08-1.45c-.14,0-.3.01-.47.02Z"/>
  <path class="cls-1" d="M84.08,48.86c-.65,0-1.19.16-1.63.49s-.74.76-.93,1.3h-.06v-1.64h-1.61v10.45h1.68v-6.46c0-.57.1-1.04.31-1.41s.48-.65.83-.84.72-.28,1.13-.28c.24,0,.46.01.64.04s.32.05.38.07v-1.68c-.08-.01-.19-.03-.32-.04s-.28-.02-.42-.02Z"/>
  <path class="cls-1" d="M93.23,49.71c-.36-.29-.78-.51-1.26-.65s-1-.21-1.54-.21c-.76,0-1.44.13-2.05.39s-1.1.62-1.49,1.08-.62,1.02-.71,1.66l1.69.12c.05-.32.19-.61.41-.88s.51-.48.88-.64.8-.24,1.28-.24.9.08,1.25.25.6.4.78.69.26.64.26,1.04v.09c0,.26-.08.44-.25.55s-.44.18-.83.23-.91.11-1.56.21c-.51.07-1.02.15-1.51.26s-.94.27-1.33.48-.71.51-.94.88-.35.87-.35,1.46c0,.69.16,1.27.48,1.74s.75.83,1.3,1.07,1.16.36,1.85.36c.62,0,1.14-.08,1.56-.25s.74-.38.99-.63.43-.5.56-.75h.06v1.46h1.66v-7.13c0-.59-.1-1.1-.31-1.53s-.49-.8-.85-1.09ZM92.72,55.55c0,.45-.1.87-.3,1.26s-.52.71-.95.96-.98.37-1.65.37c-.44,0-.82-.06-1.14-.19s-.58-.31-.75-.54-.26-.52-.26-.85c0-.4.11-.71.33-.95s.51-.42.87-.54.74-.22,1.14-.27c.26-.03.54-.07.83-.12s.57-.09.83-.14.49-.1.68-.16.32-.12.38-.18v1.34Z"/>
  <path class="cls-1" d="M103.62,49.3c-.57-.3-1.21-.45-1.91-.45-.81,0-1.52.21-2.13.64-.39.28-.72.67-1,1.16v-1.63h-1.64v10.45h1.68v-6.15c0-.68.12-1.23.37-1.67s.57-.75.99-.96.87-.31,1.37-.31c.77,0,1.38.23,1.81.68s.64,1.13.64,2.01v6.4h1.68v-6.52c0-.92-.17-1.68-.5-2.29s-.79-1.06-1.36-1.36Z"/>
  <path class="cls-1" d="M114.71,49.3c-.57-.3-1.21-.45-1.91-.45-.81,0-1.52.21-2.13.64-.39.28-.72.67-1,1.16v-1.63h-1.64v10.45h1.68v-6.15c0-.68.12-1.23.37-1.67s.57-.75.99-.96.87-.31,1.37-.31c.77,0,1.38.23,1.81.68s.64,1.13.64,2.01v6.4h1.68v-6.52c0-.92-.17-1.68-.5-2.29s-.79-1.06-1.36-1.36Z"/>
  <polygon class="cls-1" points="125.09 44.77 123.19 44.77 121.82 47.67 123.22 47.67 125.09 44.77"/>
  <path class="cls-1" d="M125.64,49.02l-2.22,6.05c-.2.53-.38,1.07-.56,1.6-.1.28-.19.56-.28.85-.09-.28-.18-.56-.27-.84-.18-.53-.36-1.07-.57-1.61l-2.25-6.05h-1.83l4.03,10.39-.51,1.35c-.12.34-.27.61-.42.8s-.34.33-.53.41-.41.11-.66.09h-.83s-.11,1.46-.11,1.46c.16.01.33.02.51.03s.37.01.58.01c.45,0,.86-.09,1.24-.26s.7-.42.99-.76.53-.74.72-1.23l4.77-12.3h-1.81Z"/>
</svg>