<svg width="251" height="206" viewBox="0 0 251 206" fill="none" xmlns="http://www.w3.org/2000/svg">
<mask id="path-1-inside-1_229_320" fill="white">
<path d="M246.626 106.881C248.287 108.04 249.677 109.739 250.835 112.095C250.951 112.365 251.029 112.674 250.99 112.983V116.304C250.99 116.807 250.797 117.309 250.449 117.656C248.557 119.587 246.24 120.398 243.536 120.012C241.219 119.664 239.79 120.475 237.898 123.179C237.319 123.951 236.894 124.801 236.43 125.689L236.384 125.777C235.04 128.311 233.373 131.456 229.517 132.525C226.968 133.22 225.733 134.842 225.153 138.318L225.138 138.417C224.495 142.503 223.702 147.543 217.844 148.874C217.652 148.918 217.469 149.011 217.348 149.168C217.248 149.297 217.151 149.441 217.082 149.556L216.773 149.981C209.126 160.061 201.518 162.764 191.361 158.979C189.005 158.13 188.233 158.632 187.345 160.408C186.07 162.841 184.796 165.236 183.483 167.669L181.745 170.874C181.397 171.454 180.779 171.84 180.084 171.878C179.35 171.956 178.732 171.531 178.385 170.952C176.686 168.171 176.686 168.171 173.055 167.283C170.97 166.742 169.309 165.661 167.648 163.73C166.953 162.88 165.254 162.223 163.748 162.223C162.937 162.185 162.358 162.455 162.319 162.532C159.89 166.349 156.422 166.086 153.875 165.893L153.861 165.892L153.243 165.854C148.145 165.429 142.353 164.579 137.988 159.829C137.859 159.673 137.659 159.535 137.495 159.449C137.367 159.382 137.219 159.38 137.077 159.404C132.043 160.259 128.052 157.751 124.549 155.542C123.738 155.04 122.965 154.538 122.154 154.075C119.721 152.684 118.447 152.028 116.979 152.8C115.743 153.534 112.77 155.272 110.182 151.526C109.857 151.024 109.216 150.77 108.518 150.799C108.408 150.804 107.981 151.378 107.981 151.487L107.865 152.993L107.865 152.998C107.556 157.631 107.206 162.881 100.025 165.274C97.4763 166.124 96.0088 169.368 96.6267 172.805C96.7812 173.539 96.4722 174.273 95.8929 174.698C95.275 175.122 94.5026 175.2 93.8461 174.852C86.6242 171.145 86.6242 171.145 83.3415 174.582L82.6077 175.354C82.2215 175.74 81.7195 175.933 81.2174 175.933H79.5181C79.1706 175.933 78.8616 175.818 78.5526 175.663C77.0851 174.813 75.3472 174.35 73.5321 173.887C72.8755 173.732 72.2576 173.578 71.6011 173.385L71.0218 173.23L70.9977 173.223C69.9364 172.909 67.1633 172.087 67.6232 169.136C67.8936 167.823 67.5074 167.398 65.8081 166.201C65.4992 165.97 65.1516 165.699 64.8426 165.467C64.4178 165.12 63.993 164.811 63.5295 164.502L63.5129 164.49C62.0106 163.45 60.2825 162.254 59.4745 160.099C58.7793 158.361 57.3504 157.241 55.6897 155.967C54.4379 155.004 53.1594 154.014 52.1202 152.688C51.7693 152.24 51.1299 152.122 50.5931 152.311C49.8387 152.577 49.0473 152.581 48.3134 152.337C46.7299 151.835 46.0734 150.367 45.5713 149.324L45.301 148.745C45.0307 148.243 44.7603 147.702 44.5286 147.162L44.5071 147.114C44.0133 146.012 43.5543 144.988 42.9452 144.227C42.4431 143.57 41.9025 143.184 41.2073 142.952C36.766 141.485 34.7964 138.202 33.3289 135.228L32.9427 134.417C31.7068 131.791 30.78 130.208 28.6945 129.821C22.245 128.663 19.3871 123.874 17.6492 119.858C17.3017 119.085 16.9927 118.274 16.6451 117.463C15.3707 114.296 14.019 111.052 12.0108 108.619C10.7013 107.002 9.50714 105.154 9.88347 102.999C9.88556 102.987 9.88666 102.975 9.88666 102.962C9.88666 102.949 9.88809 102.935 9.8904 102.922C9.91587 102.775 9.90057 102.628 9.92932 102.462C9.94537 102.37 10.0411 102.302 10.0411 102.208C10.0411 102.183 10.0458 102.157 10.0551 102.134C10.4431 101.143 11.0973 100.227 12.2039 99.2346C13.6714 97.8443 14.3666 96.4539 14.2507 95.2181C14.0576 93.2485 11.8563 91.5878 10.5432 90.7768C6.6426 88.3438 2.97372 85.2928 2.31719 79.4612C2.20133 78.5344 1.62203 77.6075 0.733776 76.8737C0.270339 76.4875 0 75.9468 0 75.3675V72.0462C0 71.3727 0.362597 70.6991 1.05266 70.412C1.0971 70.3935 1.14142 70.3738 1.18393 70.3512C2.50946 69.6471 3.68536 69.5034 4.71161 69.8835C6.22924 70.4147 6.8523 71.7659 7.31316 72.7653L7.33776 72.8186C7.49224 73.1662 7.68534 73.5524 7.8012 73.7069C8.05793 74.037 8.66689 73.9917 8.82662 73.6053C10.0926 70.5424 12.5802 68.0687 15.9886 66.485C20.8547 64.1292 24.7167 63.2023 27.8835 63.7044C28.6173 63.8588 29.351 64.0519 30.0076 64.2064C30.7146 64.4084 31.6565 64.6398 32.0911 64.5934C32.1979 64.582 32.2921 64.5209 32.3591 64.4369C32.5065 64.2521 32.773 63.7978 33.0199 62.7002C33.522 61.001 35.2985 60.7693 37.1136 60.6534C37.3453 60.6148 37.6542 60.6148 37.9631 60.6148H37.9632C38.0645 60.6148 38.188 60.6148 38.3142 60.6116C38.6071 60.6041 38.8592 60.4302 39.0181 60.184C39.1685 59.9509 39.319 59.734 39.4694 59.5334C41.3618 56.9459 44.4128 55.9032 47.0775 55.0149L47.1118 55.0032C50.0321 54.0042 52.5271 53.1506 53.6043 50.4578C53.9518 49.3378 55.2649 49.0675 55.767 48.9902C59.8607 48.2951 63.684 46.8275 67.7005 45.3213L70.0563 44.4331C71.9487 43.7379 73.7638 42.8883 75.6562 42C77.1241 41.3248 78.6143 40.6272 80.1778 39.9752C80.8641 39.689 81.0365 38.7764 80.5815 38.1883C79.3237 36.5624 78.5954 34.3753 79.4795 31.4182C79.7499 30.6072 80.4836 30.0665 81.3333 30.0665H82.9553C83.5732 30.0665 84.1911 30.3755 84.5387 30.8775C85.2725 31.8817 85.8518 32.1134 87.0876 31.7658C88.9027 31.2251 90.9496 31.6113 92.3013 32.7313C93.3054 33.5809 93.8461 34.7395 93.7302 35.9754C93.6144 37.1726 94.1164 38.0608 94.6957 39.1808C95.0047 39.8373 95.3522 40.4939 95.6226 41.189C96.1189 42.678 96.4265 42.8082 98.5977 42.4379C98.6473 42.4294 98.6976 42.4171 98.743 42.3951C98.9024 42.3181 99.2105 42.1312 99.4073 42C100.18 41.5366 101.222 40.9187 102.458 41.189C104.091 41.6123 104.753 41.4912 104.964 41.4187C105.02 41.3991 105.069 41.3624 105.098 41.3094C105.369 40.7985 105.155 38.7807 105.046 37.8677L105.007 37.4043C104.853 36.2071 104.698 34.8168 105.702 33.774C106.282 33.1947 107.093 32.9244 107.981 32.963C110.723 33.3106 113.542 33.9671 116.13 34.9326C118.64 35.8595 118.486 38.2925 118.408 39.4898C118.37 39.76 118.37 40.0303 118.37 40.3006V40.3008C118.447 41.2663 119.026 42 119.992 43.1586C120.363 43.5836 120.754 44.0632 121.112 44.5852C121.394 44.9965 121.915 45.1652 122.397 45.0377C122.806 44.9296 123.266 44.8685 123.776 44.9351C126.132 45.2055 128.256 46.0551 130.303 46.9048C132.466 47.793 134.513 48.604 136.675 48.6426C138.336 48.6426 139.34 50.535 139.456 51.6164C139.483 51.8323 139.519 51.9964 139.555 52.1184C139.617 52.3285 139.807 52.4366 140.023 52.4051C140.384 52.3529 140.938 52.2367 141.31 52.157L141.773 52.0412C142.583 51.8299 143.297 52.2286 143.621 52.447C143.677 52.4846 143.736 52.5174 143.795 52.5491C144.093 52.7081 144.301 52.9572 144.477 53.2384C144.783 53.7496 145.432 54.0561 145.996 53.8627C147.432 53.3701 148.934 53.4008 150.192 53.4315C151.158 53.4315 152.085 53.4315 152.818 53.277C155.252 52.6977 157.646 54.0108 159.307 56.83C160.89 59.6493 158.92 61.7348 157.955 62.7389L157.646 63.0478C156.565 64.3609 155.097 65.4422 153.938 66.3305C153.046 66.9849 152.727 67.5018 152.627 67.7577C152.588 67.8579 152.605 67.9681 152.68 68.045C152.848 68.2169 153.261 68.4927 154.132 68.7249C156.642 69.4587 157.994 70.9649 159.152 72.278L159.77 72.9731C161.392 74.6338 162.589 76.5647 163.709 78.4571C164.598 79.9247 165.447 81.315 166.49 82.5508C166.918 83.0142 167.444 83.6091 167.857 83.9409C167.909 83.9827 167.988 83.9516 168.034 83.9034C168.039 83.8975 168.037 83.8989 168.041 83.892C170.744 79.5751 174.641 78.3792 178.076 77.5689C178.225 77.5192 178.282 77.3662 178.177 77.2492C178.158 77.2272 178.137 77.2049 178.114 77.1827L177.149 76.1013L177.116 76.0651C175.928 74.7627 174.669 73.3813 173.75 71.5828L173.72 71.5243C172.952 70.0258 171.954 68.0811 173.364 66.0988C174.945 63.786 177.41 64.6665 178.494 65.0538L178.501 65.0561L178.964 65.2105C182.978 66.5998 186.374 68.8376 189.655 70.9989L189.662 71.0035L191.052 71.8918C195.275 74.6561 199.041 75.1303 202.879 73.3524C202.924 73.3315 202.968 73.3069 203.009 73.2793C203.105 73.2148 203.206 73.1456 203.333 73.0503C204.028 72.5483 205.226 71.7373 206.616 72.1621C207.504 72.4324 208.199 73.1276 208.624 74.2476L208.643 74.3016C209.303 76.1623 210.411 79.289 207.465 81.4308C207.241 81.5891 207.014 81.733 206.786 81.8648C205.982 82.3306 205.912 83.707 206.663 84.2559C208.66 85.7167 209.939 87.6463 210.941 89.1934C211.405 89.9272 212.023 90.4679 214.224 89.6955C214.793 89.506 215.19 89.3164 215.417 89.1535C215.564 89.0478 215.648 88.8699 215.655 88.6888C215.667 88.3948 215.61 87.8257 215.228 86.799C214.919 85.9494 215.228 85.0225 215.962 84.5204C216.734 84.057 217.7 84.0956 218.356 84.7135C223.107 89.0389 228.011 91.6651 234.886 93.5961C235.079 93.6347 235.542 93.5961 235.851 93.5961L235.897 93.5943C236.902 93.5554 238.418 93.4967 239.559 94.5616C240.37 95.2953 240.794 96.3767 240.872 97.8442C240.91 99.3504 241.258 100.702 241.953 102.054C242.88 103.753 244.386 105.336 246.626 106.881Z"/>
</mask>
<path d="M246.626 106.881C248.287 108.04 249.677 109.739 250.835 112.095C250.951 112.365 251.029 112.674 250.99 112.983V116.304C250.99 116.807 250.797 117.309 250.449 117.656C248.557 119.587 246.24 120.398 243.536 120.012C241.219 119.664 239.79 120.475 237.898 123.179C237.319 123.951 236.894 124.801 236.43 125.689L236.384 125.777C235.04 128.311 233.373 131.456 229.517 132.525C226.968 133.22 225.733 134.842 225.153 138.318L225.138 138.417C224.495 142.503 223.702 147.543 217.844 148.874C217.652 148.918 217.469 149.011 217.348 149.168C217.248 149.297 217.151 149.441 217.082 149.556L216.773 149.981C209.126 160.061 201.518 162.764 191.361 158.979C189.005 158.13 188.233 158.632 187.345 160.408C186.07 162.841 184.796 165.236 183.483 167.669L181.745 170.874C181.397 171.454 180.779 171.84 180.084 171.878C179.35 171.956 178.732 171.531 178.385 170.952C176.686 168.171 176.686 168.171 173.055 167.283C170.97 166.742 169.309 165.661 167.648 163.73C166.953 162.88 165.254 162.223 163.748 162.223C162.937 162.185 162.358 162.455 162.319 162.532C159.89 166.349 156.422 166.086 153.875 165.893L153.861 165.892L153.243 165.854C148.145 165.429 142.353 164.579 137.988 159.829C137.859 159.673 137.659 159.535 137.495 159.449C137.367 159.382 137.219 159.38 137.077 159.404C132.043 160.259 128.052 157.751 124.549 155.542C123.738 155.04 122.965 154.538 122.154 154.075C119.721 152.684 118.447 152.028 116.979 152.8C115.743 153.534 112.77 155.272 110.182 151.526C109.857 151.024 109.216 150.77 108.518 150.799C108.408 150.804 107.981 151.378 107.981 151.487L107.865 152.993L107.865 152.998C107.556 157.631 107.206 162.881 100.025 165.274C97.4763 166.124 96.0088 169.368 96.6267 172.805C96.7812 173.539 96.4722 174.273 95.8929 174.698C95.275 175.122 94.5026 175.2 93.8461 174.852C86.6242 171.145 86.6242 171.145 83.3415 174.582L82.6077 175.354C82.2215 175.74 81.7195 175.933 81.2174 175.933H79.5181C79.1706 175.933 78.8616 175.818 78.5526 175.663C77.0851 174.813 75.3472 174.35 73.5321 173.887C72.8755 173.732 72.2576 173.578 71.6011 173.385L71.0218 173.23L70.9977 173.223C69.9364 172.909 67.1633 172.087 67.6232 169.136C67.8936 167.823 67.5074 167.398 65.8081 166.201C65.4992 165.97 65.1516 165.699 64.8426 165.467C64.4178 165.12 63.993 164.811 63.5295 164.502L63.5129 164.49C62.0106 163.45 60.2825 162.254 59.4745 160.099C58.7793 158.361 57.3504 157.241 55.6897 155.967C54.4379 155.004 53.1594 154.014 52.1202 152.688C51.7693 152.24 51.1299 152.122 50.5931 152.311C49.8387 152.577 49.0473 152.581 48.3134 152.337C46.7299 151.835 46.0734 150.367 45.5713 149.324L45.301 148.745C45.0307 148.243 44.7603 147.702 44.5286 147.162L44.5071 147.114C44.0133 146.012 43.5543 144.988 42.9452 144.227C42.4431 143.57 41.9025 143.184 41.2073 142.952C36.766 141.485 34.7964 138.202 33.3289 135.228L32.9427 134.417C31.7068 131.791 30.78 130.208 28.6945 129.821C22.245 128.663 19.3871 123.874 17.6492 119.858C17.3017 119.085 16.9927 118.274 16.6451 117.463C15.3707 114.296 14.019 111.052 12.0108 108.619C10.7013 107.002 9.50714 105.154 9.88347 102.999C9.88556 102.987 9.88666 102.975 9.88666 102.962C9.88666 102.949 9.88809 102.935 9.8904 102.922C9.91587 102.775 9.90057 102.628 9.92932 102.462C9.94537 102.37 10.0411 102.302 10.0411 102.208C10.0411 102.183 10.0458 102.157 10.0551 102.134C10.4431 101.143 11.0973 100.227 12.2039 99.2346C13.6714 97.8443 14.3666 96.4539 14.2507 95.2181C14.0576 93.2485 11.8563 91.5878 10.5432 90.7768C6.6426 88.3438 2.97372 85.2928 2.31719 79.4612C2.20133 78.5344 1.62203 77.6075 0.733776 76.8737C0.270339 76.4875 0 75.9468 0 75.3675V72.0462C0 71.3727 0.362597 70.6991 1.05266 70.412C1.0971 70.3935 1.14142 70.3738 1.18393 70.3512C2.50946 69.6471 3.68536 69.5034 4.71161 69.8835C6.22924 70.4147 6.8523 71.7659 7.31316 72.7653L7.33776 72.8186C7.49224 73.1662 7.68534 73.5524 7.8012 73.7069C8.05793 74.037 8.66689 73.9917 8.82662 73.6053C10.0926 70.5424 12.5802 68.0687 15.9886 66.485C20.8547 64.1292 24.7167 63.2023 27.8835 63.7044C28.6173 63.8588 29.351 64.0519 30.0076 64.2064C30.7146 64.4084 31.6565 64.6398 32.0911 64.5934C32.1979 64.582 32.2921 64.5209 32.3591 64.4369C32.5065 64.2521 32.773 63.7978 33.0199 62.7002C33.522 61.001 35.2985 60.7693 37.1136 60.6534C37.3453 60.6148 37.6542 60.6148 37.9631 60.6148H37.9632C38.0645 60.6148 38.188 60.6148 38.3142 60.6116C38.6071 60.6041 38.8592 60.4302 39.0181 60.184C39.1685 59.9509 39.319 59.734 39.4694 59.5334C41.3618 56.9459 44.4128 55.9032 47.0775 55.0149L47.1118 55.0032C50.0321 54.0042 52.5271 53.1506 53.6043 50.4578C53.9518 49.3378 55.2649 49.0675 55.767 48.9902C59.8607 48.2951 63.684 46.8275 67.7005 45.3213L70.0563 44.4331C71.9487 43.7379 73.7638 42.8883 75.6562 42C77.1241 41.3248 78.6143 40.6272 80.1778 39.9752C80.8641 39.689 81.0365 38.7764 80.5815 38.1883C79.3237 36.5624 78.5954 34.3753 79.4795 31.4182C79.7499 30.6072 80.4836 30.0665 81.3333 30.0665H82.9553C83.5732 30.0665 84.1911 30.3755 84.5387 30.8775C85.2725 31.8817 85.8518 32.1134 87.0876 31.7658C88.9027 31.2251 90.9496 31.6113 92.3013 32.7313C93.3054 33.5809 93.8461 34.7395 93.7302 35.9754C93.6144 37.1726 94.1164 38.0608 94.6957 39.1808C95.0047 39.8373 95.3522 40.4939 95.6226 41.189C96.1189 42.678 96.4265 42.8082 98.5977 42.4379C98.6473 42.4294 98.6976 42.4171 98.743 42.3951C98.9024 42.3181 99.2105 42.1312 99.4073 42C100.18 41.5366 101.222 40.9187 102.458 41.189C104.091 41.6123 104.753 41.4912 104.964 41.4187C105.02 41.3991 105.069 41.3624 105.098 41.3094C105.369 40.7985 105.155 38.7807 105.046 37.8677L105.007 37.4043C104.853 36.2071 104.698 34.8168 105.702 33.774C106.282 33.1947 107.093 32.9244 107.981 32.963C110.723 33.3106 113.542 33.9671 116.13 34.9326C118.64 35.8595 118.486 38.2925 118.408 39.4898C118.37 39.76 118.37 40.0303 118.37 40.3006V40.3008C118.447 41.2663 119.026 42 119.992 43.1586C120.363 43.5836 120.754 44.0632 121.112 44.5852C121.394 44.9965 121.915 45.1652 122.397 45.0377C122.806 44.9296 123.266 44.8685 123.776 44.9351C126.132 45.2055 128.256 46.0551 130.303 46.9048C132.466 47.793 134.513 48.604 136.675 48.6426C138.336 48.6426 139.34 50.535 139.456 51.6164C139.483 51.8323 139.519 51.9964 139.555 52.1184C139.617 52.3285 139.807 52.4366 140.023 52.4051C140.384 52.3529 140.938 52.2367 141.31 52.157L141.773 52.0412C142.583 51.8299 143.297 52.2286 143.621 52.447C143.677 52.4846 143.736 52.5174 143.795 52.5491C144.093 52.7081 144.301 52.9572 144.477 53.2384C144.783 53.7496 145.432 54.0561 145.996 53.8627C147.432 53.3701 148.934 53.4008 150.192 53.4315C151.158 53.4315 152.085 53.4315 152.818 53.277C155.252 52.6977 157.646 54.0108 159.307 56.83C160.89 59.6493 158.92 61.7348 157.955 62.7389L157.646 63.0478C156.565 64.3609 155.097 65.4422 153.938 66.3305C153.046 66.9849 152.727 67.5018 152.627 67.7577C152.588 67.8579 152.605 67.9681 152.68 68.045C152.848 68.2169 153.261 68.4927 154.132 68.7249C156.642 69.4587 157.994 70.9649 159.152 72.278L159.77 72.9731C161.392 74.6338 162.589 76.5647 163.709 78.4571C164.598 79.9247 165.447 81.315 166.49 82.5508C166.918 83.0142 167.444 83.6091 167.857 83.9409C167.909 83.9827 167.988 83.9516 168.034 83.9034C168.039 83.8975 168.037 83.8989 168.041 83.892C170.744 79.5751 174.641 78.3792 178.076 77.5689C178.225 77.5192 178.282 77.3662 178.177 77.2492C178.158 77.2272 178.137 77.2049 178.114 77.1827L177.149 76.1013L177.116 76.0651C175.928 74.7627 174.669 73.3813 173.75 71.5828L173.72 71.5243C172.952 70.0258 171.954 68.0811 173.364 66.0988C174.945 63.786 177.41 64.6665 178.494 65.0538L178.501 65.0561L178.964 65.2105C182.978 66.5998 186.374 68.8376 189.655 70.9989L189.662 71.0035L191.052 71.8918C195.275 74.6561 199.041 75.1303 202.879 73.3524C202.924 73.3315 202.968 73.3069 203.009 73.2793C203.105 73.2148 203.206 73.1456 203.333 73.0503C204.028 72.5483 205.226 71.7373 206.616 72.1621C207.504 72.4324 208.199 73.1276 208.624 74.2476L208.643 74.3016C209.303 76.1623 210.411 79.289 207.465 81.4308C207.241 81.5891 207.014 81.733 206.786 81.8648C205.982 82.3306 205.912 83.707 206.663 84.2559C208.66 85.7167 209.939 87.6463 210.941 89.1934C211.405 89.9272 212.023 90.4679 214.224 89.6955C214.793 89.506 215.19 89.3164 215.417 89.1535C215.564 89.0478 215.648 88.8699 215.655 88.6888C215.667 88.3948 215.61 87.8257 215.228 86.799C214.919 85.9494 215.228 85.0225 215.962 84.5204C216.734 84.057 217.7 84.0956 218.356 84.7135C223.107 89.0389 228.011 91.6651 234.886 93.5961C235.079 93.6347 235.542 93.5961 235.851 93.5961L235.897 93.5943C236.902 93.5554 238.418 93.4967 239.559 94.5616C240.37 95.2953 240.794 96.3767 240.872 97.8442C240.91 99.3504 241.258 100.702 241.953 102.054C242.88 103.753 244.386 105.336 246.626 106.881Z" stroke="#777777" stroke-width="5" mask="url(#path-1-inside-1_229_320)"/>
</svg>
