<?xml version="1.0" encoding="UTF-8"?>
<svg id="Vrstva_1" data-name="Vrstva 1" xmlns="http://www.w3.org/2000/svg" viewBox="0 0 100.36 68">
  <defs>
    <style>
      .cls-1 {
        fill: #4d4d4d;
      }
    </style>
  </defs>
  <polygon class="cls-1" points="8 8 14.13 19.67 8 31.35 10.77 31.35 13.55 31.35 19.68 19.67 13.55 8 8 8"/>
  <polygon class="cls-1" points="33.48 18 41.75 33.92 46.39 33.92 46.39 5.93 41.16 5.93 41.16 21.2 33.2 5.93 28.24 5.93 28.24 33.92 33.48 33.92 33.48 18"/>
  <path class="cls-1" d="M17.58,54.2c0,.23,0,.55,0,.97,0,.42.02.87.04,1.34,0,.21.02.41.03.61-.15-.27-.29-.54-.45-.82-.23-.41-.45-.78-.66-1.12s-.38-.62-.51-.83l-5.98-9.43h-2.06v14.55h1.79v-8.41c0-.25,0-.59-.01-1.02s-.02-.95-.04-1.55c-.01-.37-.03-.78-.04-1.21.3.5.57.97.82,1.39.32.54.61,1.02.85,1.42s.45.73.61.99l5.32,8.39h2.08v-14.55h-1.79v9.29Z"/>
  <path class="cls-1" d="M28.97,49.71c-.36-.29-.78-.51-1.26-.65-.48-.14-1-.21-1.54-.21-.76,0-1.44.13-2.05.39-.61.26-1.11.62-1.49,1.08-.38.47-.62,1.02-.71,1.66l1.69.12c.05-.32.19-.61.41-.88.22-.27.51-.48.88-.64s.8-.24,1.28-.24.9.08,1.25.25.6.4.78.69.26.64.26,1.04v.09c0,.26-.08.44-.25.55s-.44.18-.83.23c-.39.05-.91.11-1.56.21-.51.07-1.02.15-1.51.26-.5.11-.94.27-1.33.48-.39.21-.71.51-.94.88s-.35.87-.35,1.46c0,.69.16,1.27.48,1.74.32.47.75.83,1.3,1.07s1.16.36,1.85.36c.62,0,1.14-.08,1.56-.25.41-.17.74-.38.99-.63.25-.25.43-.5.56-.75h.06v1.46h1.66v-7.13c0-.59-.1-1.1-.31-1.53s-.49-.8-.85-1.09ZM28.46,55.55c0,.45-.1.87-.3,1.26-.2.39-.52.71-.95.96s-.98.37-1.65.37c-.44,0-.82-.06-1.14-.19-.33-.13-.58-.31-.75-.54s-.26-.52-.26-.85c0-.4.11-.71.33-.95.22-.23.51-.42.87-.54.36-.13.74-.22,1.14-.27.26-.03.54-.07.83-.12.29-.05.57-.09.83-.14s.49-.1.68-.16c.19-.06.32-.12.38-.18v1.34Z"/>
  <polygon class="cls-1" points="28.61 44.77 26.7 44.77 25.34 47.67 26.73 47.67 28.61 44.77"/>
  <path class="cls-1" d="M37.5,53.71l-1.66-.39c-.53-.12-.93-.31-1.22-.55-.29-.24-.43-.56-.43-.95,0-.44.2-.82.59-1.12s.9-.46,1.53-.46c.68,0,1.21.17,1.59.52.38.35.6.78.63,1.29l1.62-.09c-.05-.65-.25-1.21-.58-1.68-.34-.47-.78-.84-1.34-1.1-.56-.26-1.2-.39-1.92-.39s-1.4.13-1.97.39c-.57.26-1.02.62-1.35,1.08-.33.46-.49.98-.49,1.58,0,.75.25,1.38.74,1.87.49.49,1.22.85,2.18,1.08l1.69.39c.48.11.86.29,1.14.52.28.24.42.55.42.94,0,.46-.21.83-.63,1.14s-1,.45-1.72.45-1.26-.16-1.68-.47c-.42-.32-.66-.78-.74-1.38l-1.65.09c.06.72.28,1.32.65,1.8s.85.83,1.45,1.07,1.26.35,2.01.35,1.46-.12,2.07-.38c.61-.25,1.09-.61,1.44-1.07.35-.47.52-1.02.52-1.66,0-.74-.23-1.35-.7-1.82-.47-.47-1.19-.83-2.18-1.06Z"/>
  <path class="cls-1" d="M46.43,58.03c-.17,0-.33,0-.47,0-.43,0-.73-.09-.9-.26-.17-.17-.26-.47-.26-.89v-6.43h2.12v-1.45h-2.12v-2.76h-1.68v2.76h-1.8v1.45h1.8v6.6c0,.8.23,1.41.68,1.82.46.41,1.13.62,2.03.62.18,0,.38,0,.59,0,.21,0,.4-.02.57-.03l-.08-1.45c-.14,0-.3.01-.47.02Z"/>
  <path class="cls-1" d="M56.32,50.25c-.42-.47-.92-.83-1.49-1.07-.57-.25-1.2-.37-1.88-.37-.93,0-1.75.24-2.46.71-.71.47-1.26,1.12-1.67,1.94s-.6,1.76-.6,2.83.19,1.99.58,2.81c.39.82.94,1.46,1.67,1.92s1.59.69,2.62.69c.75,0,1.43-.13,2.04-.41.61-.27,1.12-.64,1.53-1.12s.68-1.04.82-1.67l-1.67-.1c-.11.36-.29.67-.53.94s-.55.48-.92.62c-.37.15-.79.22-1.26.22-.67,0-1.24-.15-1.72-.46-.48-.31-.84-.73-1.09-1.28-.23-.49-.34-1.06-.36-1.69h7.73v-.52c0-.85-.12-1.61-.35-2.28-.23-.67-.56-1.24-.98-1.7ZM49.93,53.3c.04-.49.14-.95.33-1.34.25-.52.6-.92,1.06-1.22.46-.29,1-.44,1.62-.44s1.16.14,1.62.43c.45.29.8.7,1.04,1.23.18.39.27.85.32,1.34h-5.99Z"/>
  <polygon class="cls-1" points="53.75 47.44 56.02 44.8 56.02 44.77 54.32 44.77 52.93 46.49 51.53 44.77 49.86 44.77 49.86 44.8 52.11 47.44 53.75 47.44"/>
  <path class="cls-1" d="M66.35,49.29c-.57-.3-1.21-.45-1.91-.45-.81,0-1.52.21-2.13.64-.39.28-.72.67-1,1.16v-1.63h-1.64v10.45h1.68v-6.15c0-.68.12-1.23.37-1.67s.57-.75.99-.96c.41-.21.87-.31,1.37-.31.77,0,1.38.23,1.81.68s.64,1.13.64,2.01v6.4h1.68v-6.52c0-.92-.17-1.68-.5-2.29-.34-.61-.79-1.06-1.36-1.36Z"/>
  <path class="cls-1" d="M77.44,49.29c-.57-.3-1.21-.45-1.91-.45-.81,0-1.52.21-2.13.64-.39.28-.72.67-1,1.16v-1.63h-1.64v10.45h1.68v-6.15c0-.68.12-1.23.37-1.67s.57-.75.99-.96c.41-.21.87-.31,1.37-.31.77,0,1.38.23,1.81.68s.64,1.13.64,2.01v6.4h1.68v-6.52c0-.92-.17-1.68-.5-2.29-.34-.61-.79-1.06-1.36-1.36Z"/>
  <polygon class="cls-1" points="87.82 44.77 85.92 44.77 84.55 47.67 85.95 47.67 87.82 44.77"/>
  <path class="cls-1" d="M88.37,49.02l-2.22,6.05c-.2.53-.38,1.07-.56,1.6-.1.28-.19.56-.28.85-.09-.28-.18-.56-.27-.84-.18-.53-.37-1.07-.57-1.61l-2.25-6.05h-1.83l4.03,10.39-.51,1.35c-.12.34-.27.61-.42.8-.16.2-.34.33-.53.41-.19.08-.41.11-.66.09h-.83s-.11,1.46-.11,1.46c.16.01.33.02.51.03.18,0,.37.01.58.01.45,0,.86-.09,1.24-.26.37-.17.7-.42.99-.76.29-.33.53-.74.72-1.23l4.77-12.3h-1.81Z"/>
</svg>