<?xml version="1.0" encoding="UTF-8"?><svg id="Vrstva_1" xmlns="http://www.w3.org/2000/svg" viewBox="0 0 214 292.84"><defs><style>.cls-1{fill:#bcbcbb;}.cls-2{fill:#5082e6;}.cls-3{fill:#1d1d1b;}</style></defs><path class="cls-1" d="M157.87,27.19c-.43,0-.82-.28-.95-.7l-1.26-4.04-9.55.99c-.56.05-1.04-.34-1.1-.89-.06-.55.34-1.04.89-1.1l10.37-1.07c.48-.04.92.24,1.06.7l.09.28.57-5.11c.05-.47.43-.84.91-.88.48-.05.91.26,1.04.72l1.12,3.88,11.99-1.4c.54-.07,1.04.33,1.11.88s-.33,1.04-.88,1.11l-12.83,1.5c-.44.06-.86-.19-1.03-.59l-.55,4.85c-.05.47-.43.84-.9.88-.03,0-.06,0-.1,0Z"/><path class="cls-2" d="M177.22,270.96h-3V52.46c0-.39-.32-.71-.71-.71h-27.52c-.39,0-.71.32-.71.71v218.5h-3V52.46c0-2.04,1.66-3.71,3.71-3.71h27.52c2.04,0,3.71,1.66,3.71,3.71v218.5Z"/><polygon class="cls-1" points="140.29 67.18 135.17 67.18 135.17 64.72 31.46 64.72 31.46 221.48 135.17 221.48 135.17 71.44 140.29 71.44 140.29 67.18"/><rect class="cls-1" x="141.98" y="223.47" width="35.52" height="10.05" transform="translate(319.47 456.99) rotate(180)"/><path class="cls-1" d="M31.59,223.47v7.51h102.11l1.52,2.82c.18.37.57.61.68.61h4.29v-10.93H31.59Z"/><rect class="cls-1" x="141.77" y="66.49" width="35.92" height="8.8" transform="translate(319.47 141.78) rotate(180)"/><path class="cls-2" d="M173.15,51.76c-.83,0-1.5-.67-1.5-1.5v-30.71c0-.83.67-1.5,1.5-1.5s1.5.67,1.5,1.5v30.71c0,.83-.67,1.5-1.5,1.5Z"/><path class="cls-2" d="M146,51.76c-.83,0-1.5-.67-1.5-1.5v-27.82c0-.83.67-1.5,1.5-1.5s1.5.67,1.5,1.5v27.82c0,.83-.67,1.5-1.5,1.5Z"/><rect class="cls-3" x="12.87" y="270.25" width="189.41" height="2"/></svg>