<?xml version="1.0" encoding="UTF-8"?><svg id="Vrstva_1" xmlns="http://www.w3.org/2000/svg" viewBox="0 0 191.68 42.04"><defs><style>.cls-1{fill:#f0f0f0;}</style></defs><path class="cls-1" d="M49.33,5.44h-8.51v18.76c0,4.99,2.7,7.32,7.73,7.32h5.44v-7.09h-2.59c-1.35,0-2.06-.56-2.06-2.1v-5.14h4.65v-6.61h-4.65v-5.13Z"/><path class="cls-1" d="M72.07,15.8l5.8-4.36v-5.94h-19.86v6.72h9.6l-5.69,4.5,1.14,3.84h3.65c2.29,0,3.4.81,3.4,2.07v.07c0,1.22-1.03,2.07-2.95,2.07-2.14,0-4.17-1-6.09-2.81l-5.13,5.28c2.84,2.92,6.61,4.65,11.92,4.65,5.72,0,10.6-3.1,10.6-8.68v-.07c0-4.06-2.51-6.31-6.39-7.35Z"/><path class="cls-1" d="M31.62,9.96h-7.65v4.29c-.09-.28-.19-.56-.31-.82-1.16-2.24-3.35-3.47-6.21-3.47H4.88c-.36,2.4-.55,4.83-.55,7.28,0,4.88.72,9.67,2.14,14.28h4.87c-1.46-4.49-2.22-9.16-2.25-13.92,1,0,3,0,4.43,0,1.27,0,2.31,1,2.31,2.78v11.15h8.75v-11.15c0-.35.05-1.45-.04-2.77.93,0,2.47,0,3.14,0,1.27,0,2.31,1,2.31,2.78v11.14h8.75v-11.14c0-.7.19-4.45-.92-6.94-1.16-2.24-3.35-3.47-6.21-3.47Z"/><path class="cls-1" d="M110.79,18.72v-3.69h-3.75v16.35h3.75v-6.23c0-4.34,2.29-6.47,5.58-6.47h.22v-3.96c-2.88-.12-4.77,1.55-5.79,4Z"/><path class="cls-1" d="M134.39,23.18c0-4.68-3.69-8.49-8.7-8.49s-8.73,3.87-8.73,8.55v.06c0,4.65,3.69,8.46,8.67,8.46s8.77-3.87,8.77-8.52v-.06ZM130.64,23.31c0,2.82-1.92,5.17-4.96,5.17s-4.99-2.38-4.99-5.23v-.06c0-2.85,1.92-5.2,4.92-5.2s5.02,2.38,5.02,5.27v.06Z"/><rect class="cls-1" x="136.59" y="8.97" width="4.03" height="3.56"/><path class="cls-1" d="M136.74,31.39c0,1.42-.71,1.98-1.77,1.98-.34,0-.68-.03-1.05-.09v3c.59.09,1.08.16,1.83.16,3.04,0,4.74-1.52,4.74-4.83V15.04h-3.75v16.35Z"/><path class="cls-1" d="M169.98,28.48c-2.88,0-4.89-2.32-4.89-5.23v-.06c0-2.85,2.01-5.2,4.74-5.2,1.86,0,3.07.84,4.21,2.04l2.35-2.51c-1.55-1.67-3.47-2.82-6.54-2.82-4.92,0-8.52,3.9-8.52,8.55v.06c0,4.65,3.59,8.46,8.46,8.46,3.19,0,5.08-1.27,6.69-3.07l-2.26-2.23c-1.18,1.21-2.48,2.01-4.24,2.01Z"/><path class="cls-1" d="M184.91,28.33c-1.27,0-2.01-.59-2.01-2.04v-8.02h2.83v-3.22h-2.83v-4.49h-3.75v16.32c0,3.59,1.95,4.8,4.71,4.8,1.42,0,2.45-.31,3.38-.84v-3.07c-.74.37-1.49.56-2.32.56Z"/><path class="cls-1" d="M95.96,14.7c-1.88,0-3.58.54-4.97,1.47v-1.37h-3.77v21.42h3.77v-5.89c1.37.9,3.05,1.43,4.91,1.43,5.05,0,8.77-3.87,8.77-8.52v-.06c0-4.68-3.69-8.49-8.7-8.49ZM100.92,23.31c0,2.82-1.92,5.17-4.96,5.17-2.77,0-4.77-2.15-4.97-4.81v-.93c.19-2.64,2.06-4.75,4.91-4.75s5.02,2.38,5.02,5.27v.06Z"/><path class="cls-1" d="M151.03,14.7c-5.02,0-8.73,3.87-8.73,8.55v.06c0,4.65,3.69,8.46,8.67,8.46,2.87,0,5.31-1.25,6.88-3.19l-3-1.86c-.86,1.08-2.17,1.77-3.81,1.77-2.46,0-4.32-1.7-4.84-3.95h13.43c.06-.42.11-.85.11-1.29v-.06c0-4.68-3.69-8.49-8.7-8.49ZM146.15,22.07c.43-2.32,2.22-4.09,4.82-4.09s4.41,1.76,4.89,4.09h-9.71Z"/></svg>