<?xml version="1.0" encoding="UTF-8"?>
<svg id="Vrstva_1" data-name="Vrstva 1" xmlns="http://www.w3.org/2000/svg" viewBox="0 0 52.89 51.54">
  <defs>
    <style>
      .cls-1 {
        fill: #4d4d4d;
      }

      .cls-2 {
        fill: #f0f0f0;
      }
    </style>
  </defs>
  <g>
    <circle class="cls-2" cx="26.43" cy="25.33" r="21"/>
    <circle class="cls-1" cx="26.43" cy="25.33" r="20"/>
  </g>
  <g>
    <path class="cls-2" d="M17.48,20.02c.75-.5,1.64-.75,2.66-.75.53,0,1.03.07,1.5.21.47.14.89.36,1.26.65.37.29.68.64.94,1.06.26.42.44.89.56,1.43h2.44c-.14-.85-.41-1.62-.79-2.3-.39-.68-.88-1.26-1.47-1.75-.59-.49-1.27-.86-2.02-1.11-.75-.25-1.56-.38-2.43-.38-1.45,0-2.74.34-3.86,1.03-1.12.68-1.99,1.65-2.62,2.88-.63,1.24-.94,2.69-.94,4.35s.31,3.09.95,4.33c.63,1.24,1.5,2.2,2.62,2.88,1.11.68,2.4,1.03,3.85,1.03.87,0,1.69-.13,2.44-.39.76-.26,1.43-.63,2.02-1.12.59-.49,1.08-1.07,1.47-1.75.39-.68.65-1.44.78-2.28h-2.43c-.12.54-.31,1.01-.57,1.43-.26.42-.57.76-.95,1.05-.37.28-.79.5-1.26.64-.47.15-.96.22-1.49.22-1.02,0-1.91-.25-2.66-.75-.75-.5-1.33-1.2-1.75-2.11-.41-.91-.62-1.97-.62-3.2s.21-2.3.62-3.21c.41-.91.99-1.61,1.75-2.11Z"/>
    <path class="cls-2" d="M33.6,31.24c-.63,0-1.26,0-1.89,0-.3,0-.61,0-.91,0,.18-.22.37-.43.54-.65.4-.5.8-1,1.19-1.5l7.56-9.9v-1.87h-11.91v2.09h6.23c.64,0,1.27,0,1.91,0,.31,0,.62,0,.94,0-.16.19-.32.38-.47.57-.39.47-.76.94-1.12,1.4l-7.71,10.09v1.87h12.21v-2.09h-6.56Z"/>
  </g>
</svg>