<?xml version="1.0" encoding="UTF-8"?>
<svg id="Vrstva_1" data-name="Vrstva 1" xmlns="http://www.w3.org/2000/svg" viewBox="0 0 50.63 52.89">
  <defs>
    <style>
      .cls-1 {
        fill: #4d4d4d;
      }

      .cls-2 {
        fill: #f0f0f0;
      }
    </style>
  </defs>
  <g>
    <circle class="cls-2" cx="25.24" cy="25.65" r="21"/>
    <circle class="cls-1" cx="25.24" cy="25.65" r="20"/>
  </g>
  <g>
    <polygon class="cls-2" points="14.96 26.55 22.57 26.55 22.57 24.48 14.96 24.48 14.96 19.74 23.17 19.74 23.17 17.64 12.56 17.64 12.56 33.65 23.19 33.65 23.19 31.55 14.96 31.55 14.96 26.55"/>
    <path class="cls-2" d="M35.51,17.64v9.43c0,.29,0,.68.01,1.19,0,.5.02,1.04.04,1.6,0,.18.02.35.02.53-.15-.28-.29-.56-.45-.83-.26-.47-.51-.9-.74-1.3-.23-.4-.43-.72-.59-.96l-6.09-9.65h-2.69v16.01h2.42v-8.64c0-.29,0-.68-.02-1.18-.01-.5-.03-1.08-.05-1.75-.01-.36-.03-.75-.04-1.15.27.47.53.92.77,1.33.35.61.67,1.15.95,1.61.28.46.51.85.7,1.16l5.46,8.62h2.7v-16.01h-2.41Z"/>
  </g>
</svg>