<?xml version="1.0" encoding="UTF-8"?>
<svg id="Vrstva_1" data-name="Vrstva 1" xmlns="http://www.w3.org/2000/svg" viewBox="0 0 49.73 51.09">
  <defs>
    <style>
      .cls-1 {
        fill: #4d4d4d;
      }

      .cls-2 {
        fill: #f0f0f0;
      }
    </style>
  </defs>
  <g>
    <circle class="cls-2" cx="24.69" cy="25.51" r="21"/>
    <circle class="cls-1" cx="24.69" cy="25.51" r="20"/>
  </g>
  <g>
    <path class="cls-2" d="M21.35,18.46c-1.13-.64-2.48-.96-4.05-.96h-5.35v16.01h5.19c1.63,0,3.02-.32,4.17-.97s2.03-1.57,2.64-2.77c.61-1.2.92-2.63.92-4.29s-.3-3.08-.91-4.27c-.61-1.19-1.48-2.11-2.61-2.75ZM21.88,28.69c-.4.89-1.01,1.56-1.82,2.03-.81.47-1.83.7-3.06.7h-2.64v-11.82h2.78c1.19,0,2.18.23,2.96.7.79.47,1.38,1.14,1.78,2.01.4.88.6,1.94.6,3.17s-.2,2.31-.6,3.2Z"/>
    <polygon class="cls-2" points="29.2 31.41 29.2 26.41 36.81 26.41 36.81 24.33 29.2 24.33 29.2 19.6 37.41 19.6 37.41 17.5 26.79 17.5 26.79 33.51 37.43 33.51 37.43 31.41 29.2 31.41"/>
  </g>
</svg>