<?xml version="1.0" encoding="UTF-8"?><svg id="Vrstva_1" xmlns="http://www.w3.org/2000/svg" viewBox="0 0 1155 707"><path d="M685.5,257.12c-3.85,0-6.97,3.12-6.97,6.97s3.12,6.97,6.97,6.97,6.97-3.12,6.97-6.97-3.12-6.97-6.97-6.97Z" style="fill:#fff;"/><path d="M665.55,245.09c-.24-.21-.53-.4-.87-.55-.34-.15-.72-.29-1.15-.39l-1.07-.27c-.42-.1-.77-.22-1.05-.36s-.5-.3-.65-.49c-.15-.19-.22-.42-.22-.7,0-.32.09-.6.27-.84.18-.25.43-.44.76-.57.32-.14.69-.21,1.11-.21.64,0,1.16.16,1.56.49.4.33.62.78.66,1.35h1.17c-.02-.59-.17-1.11-.45-1.55-.28-.44-.67-.77-1.16-1.02-.49-.24-1.07-.36-1.74-.36s-1.25.11-1.75.34c-.5.23-.9.55-1.18.96-.28.41-.42.9-.42,1.46,0,.66.22,1.19.66,1.6.44.41,1.13.73,2.07.97l1.11.28c.44.11.8.24,1.09.38.28.15.49.32.63.51.14.2.21.44.21.71,0,.35-.1.65-.3.91s-.47.46-.82.6c-.35.14-.76.21-1.22.21s-.91-.08-1.27-.24c-.36-.16-.64-.4-.84-.71-.2-.31-.3-.68-.31-1.12h-1.22c0,.64.16,1.2.46,1.67.3.47.72.84,1.26,1.09.54.26,1.18.38,1.91.38s1.33-.12,1.86-.36c.53-.24.94-.57,1.22-1,.29-.43.43-.91.43-1.46,0-.36-.06-.69-.19-.97s-.31-.53-.55-.75Z" style="fill:#fff;"/><path d="M671.92,242.84c-.45-.3-.98-.45-1.58-.45-.33,0-.64.05-.92.15-.28.1-.52.24-.73.41s-.38.38-.51.6h-.04v-1.05h-1.09v9.69h1.12v-3.78h.03c.15.23.32.44.53.62.21.18.44.32.71.42.27.1.57.15.9.15.6,0,1.12-.15,1.58-.46.45-.3.8-.73,1.05-1.27.25-.54.37-1.17.37-1.89s-.12-1.35-.37-1.89c-.25-.54-.6-.96-1.05-1.26ZM671.96,247.4c-.17.39-.41.69-.71.89-.3.21-.66.31-1.07.31s-.8-.11-1.11-.33c-.31-.22-.55-.52-.72-.91-.17-.39-.25-.85-.25-1.37s.08-.98.25-1.37c.17-.39.4-.69.72-.9s.68-.32,1.11-.32.77.1,1.07.31.54.5.71.89c.17.39.25.85.25,1.41s-.08,1.02-.25,1.41Z" style="fill:#fff;"/><path d="M679.59,243.47h1.2v4.4c0,.53.15.94.46,1.21s.76.41,1.35.41c.12,0,.25,0,.39,0,.14,0,.26-.01.38-.02l-.05-.96c-.1,0-.2,0-.32.01s-.22,0-.32,0c-.29,0-.49-.06-.6-.17-.11-.11-.17-.31-.17-.6v-4.28h1.41v-.96h-1.41v-1.84h-1.12v1.84h-2.31l-1.48,4.04c-.13.36-.25.71-.37,1.07-.06.19-.12.38-.19.56-.06-.19-.12-.37-.18-.56-.12-.35-.24-.71-.38-1.07l-1.5-4.04h-1.22l2.69,6.93-.34.9c-.08.23-.18.4-.28.53-.11.13-.22.22-.35.27s-.27.07-.44.06h-.55s-.07.98-.07.98c.1,0,.22.02.34.02.12,0,.25,0,.38,0,.3,0,.57-.06.82-.17.25-.12.47-.28.66-.5.19-.22.35-.49.48-.82l3.09-7.98v.74Z" style="fill:#fff;"/><rect x="683.88" y="242.51" width="1.12" height="6.97" style="fill:#fff;"/><path d="M684.45,241.2c.21,0,.39-.07.54-.22.15-.15.22-.33.22-.53s-.07-.39-.22-.54c-.15-.15-.33-.22-.55-.22s-.39.07-.54.22c-.15.15-.22.33-.22.54s.07.39.22.53c.15.15.33.22.54.22Z" style="fill:#fff;"/><path d="M687.18,245.37c0-.45.08-.82.24-1.11.16-.29.38-.5.66-.64.28-.14.58-.21.91-.21.52,0,.92.15,1.2.46.29.3.43.75.43,1.34v4.26h1.12v-4.35c0-.61-.11-1.12-.34-1.52-.22-.4-.53-.71-.9-.91-.38-.2-.8-.3-1.27-.3-.54,0-1.02.14-1.42.43-.25.18-.46.42-.64.73v-3.78h-1.12v9.7h1.12v-4.1Z" style="fill:#fff;"/><path d="M697.27,242.69c-.38-.2-.8-.3-1.27-.3-.54,0-1.02.14-1.42.43-.26.18-.48.45-.66.78v-1.09h-1.09v6.97h1.12v-4.1c0-.45.08-.82.24-1.11.16-.29.38-.5.66-.64.28-.14.58-.21.91-.21.52,0,.92.15,1.2.46.29.3.43.75.43,1.34v4.26h1.12v-4.35c0-.61-.11-1.12-.34-1.52-.22-.4-.53-.71-.9-.91Z" style="fill:#fff;"/><path d="M704.62,243.33c-.28-.31-.61-.55-.99-.72-.38-.16-.8-.25-1.26-.25-.62,0-1.17.16-1.64.47-.47.31-.84.75-1.11,1.29-.27.55-.4,1.18-.4,1.89s.13,1.33.39,1.87c.26.54.63.97,1.11,1.28s1.06.46,1.74.46c.5,0,.95-.09,1.36-.27.41-.18.75-.43,1.02-.75.27-.32.46-.69.55-1.12l-1.11-.06c-.07.24-.19.45-.35.63-.16.18-.37.32-.61.42-.25.1-.53.15-.84.15-.45,0-.83-.1-1.15-.31-.32-.2-.56-.49-.73-.86-.15-.33-.22-.71-.24-1.13h5.15v-.35c0-.57-.08-1.08-.23-1.52s-.37-.82-.65-1.14ZM701.29,243.66c.3-.2.66-.29,1.08-.29s.78.1,1.08.29c.3.19.53.47.7.82.12.26.18.57.21.89h-3.99c.03-.33.09-.63.22-.9.17-.34.4-.61.71-.81Z" style="fill:#fff;"/><polygon points="702.91 241.46 704.42 239.7 704.42 239.68 703.29 239.68 702.37 240.82 701.43 239.68 700.32 239.68 700.32 239.7 701.82 241.46 702.91 241.46" style="fill:#fff;"/><path d="M710.61,242.51l-1.48,4.04c-.13.36-.25.71-.36,1.07-.06.2-.13.39-.19.59-.06-.2-.13-.39-.19-.59-.11-.36-.24-.71-.37-1.07l-1.5-4.04h-1.22l2.69,6.97h1.14l2.69-6.97h-1.2Z" style="fill:#fff;"/><path d="M1149.17,423.47l-6.15-8.62c-.24-.33-.65-.48-1.05-.39l-11.98,2.88-6.52-2.83-.69-9.24c-.02-.21-.1-.41-.23-.57l-5.17-6.15c-.22-.26-.55-.39-.89-.35l-9.18,1.15-5.2-9.26.24-6.61c.01-.37-.18-.72-.5-.9l-4.09-2.37.64-4.25c.04-.29-.04-.59-.24-.81-.19-.22-.48-.33-.77-.34l-8.69.18,1.16-19.51,7.12-8.47,8.53-4.88c.26-.15.44-.41.49-.71l3.52-21.47,3.42-6.51,7.08-10.88,4.29-1.48c.33-.11.58-.39.65-.73l2.3-10.64c.06-.3,0-.6-.2-.84s-.48-.37-.78-.37h-7.1l-6.53-2.29-2.48-5.29c-.16-.34-.49-.56-.86-.57l-10.13-.5-1.38-4.14c-.15-.46-.62-.75-1.1-.67l-3.07.48-11.24-5.13-.66-8.63c-.01-.16-.06-.32-.15-.46l-4.79-7.62c-.14-.23-.37-.39-.63-.44l-5.28-1.19-5.85-4.48c-.34-.26-.82-.27-1.18-.03l-3.89,2.69-6.15-6.79c-.18-.2-.42-.31-.69-.33l-2.64-.15-1.68-3.06c-.18-.33-.52-.54-.91-.52l-5.14.18c-.08,0-.17.02-.25.04l-10.92,3.24-6-3.67c-.08-.05-.17-.09-.26-.11l-9.04-2.48c-.34-.09-.7,0-.95.24l-6.04,5.73-3.57-3.42c-.27-.26-.66-.34-1.01-.23l-6.38,2.13c-.27.09-.48.28-.6.54-.11.26-.12.55,0,.81l2.26,5.22-3.15.12c-.34.01-.66.2-.83.5l-4.34,7.51-5.44.29-3.59-5.54c-.18-.28-.5-.46-.84-.46h-2.84l-1.3-1.87c-.08-.11-.17-.2-.29-.27l-3.71-2.36-3.25-5.13c-.23-.36-.65-.53-1.06-.44l-4.57,1.01-3.68-.84c-.31-.07-.63,0-.87.21l-4.26,3.63-7.55-4.1c-.28-.15-.61-.16-.9-.03l-3.07,1.44-1.48.81-2.89-1.52c-.26-.14-.57-.15-.85-.04-.75.31-3.26,1.38-4.05,2.17-.6.6-.93,2.44-.99,5.49l-7.64-.47c-.2-.01-.41.04-.59.15l-6.03,3.72c-.12.07-.22.17-.3.29l-4.25,6.2c-.1.14-.16.3-.17.48l-.83,9.17-1.27.58-8.93-6.06c-.17-.11-.36-.17-.56-.17h-4.43c-.3,0-.58.13-.77.36l-3.1,3.73-5.49-1.87,3.85-6.93c.16-.29.17-.65.01-.95l-2.19-4.21v-12.52c0-.32-.15-.62-.41-.8s-.58-.25-.89-.15l-5.94,1.82-3.74-2.39-1.66-5.15c-.12-.39-.47-.66-.88-.69l-4.28-.31-1.37-4.41-2.3-10.1c-.04-.17-.12-.32-.24-.45l-5.32-5.85c-.32-.36-.86-.43-1.27-.18l-7.45,4.61c-.11.07-.21.16-.29.27l-2.91,4.04-7.49.33c-.45.02-.83.34-.93.78l-1.87,8.15-3.25,2.44c-.2.15-.34.37-.38.62l-.61,3.35-3.18,1.25-3.88-1.62c-.21-.09-.45-.1-.67-.04l-5.87,1.73-2.65-.13-.66-12.92c-.02-.47-.37-.85-.83-.93l-8.86-1.56-2.41-19.63c-.05-.37-.3-.69-.65-.82l-13.84-5.08-4.83-14.26,1.7-3.19c.12-.22.15-.47.09-.71l-.67-2.69.46-5.19c.03-.36-.13-.7-.43-.91l-2.74-1.91c-.24-.17-.54-.22-.82-.15-.28.07-.52.26-.65.52l-1.25,2.49-1.9-.16-6.2-4.59c-.12-.09-.26-.15-.41-.18l-5.6-1.07c-.29-.06-.6.02-.83.22l-2.96,2.49-9-9.67c-.19-.2-.44-.31-.72-.32l-7.16-.11-.31-5.86c-.02-.39-.26-.72-.62-.87l-5.48-2.26c-.47-.19-1.01,0-1.26.44-1.38,2.52-3.02,5.34-3.51,5.96-.97.43-6.49,2.74-10.51,4.42l-7.39-7.28-5.52-10.81c-.14-.28-.41-.47-.72-.53l-4.82-.86-1.91-4.65,12.54-5.22c.4-.17.65-.58.61-1.02l-1.19-12.74c-.02-.25-.14-.47-.32-.64l-3.22-2.98c-.23-.21-.54-.3-.84-.25-.3.05-.57.24-.72.51l-1.89,3.45-5.72,3.31-.56-.86c-.2-.31-.56-.49-.92-.46l-4.29.36s-.1.01-.14.02l-8.58,2.01-1.99-2.29c-.21-.24-.52-.37-.84-.34l-3.27.28-1.02-5.42c-.08-.41-.4-.73-.82-.8l-4.16-.69-3.91-1.8-2.12-5.57c-.15-.39-.52-.64-.93-.64h-4.56l-.66-1.07c-.08-.13-.19-.24-.31-.32l-5.6-3.57c-.09-.06-.18-.1-.28-.12l-4.9-1.28-7.89-3.89c-.31-.15-.67-.14-.97.05l-3.1,1.91c-.3.19-.48.52-.48.88l.12,5c0,.23.09.46.25.63l3.88,4.45,1.37,6.18c.07.33.31.61.63.72l4.61,1.68.09,2.66s0,.07,0,.11l.83,5.84-1.78.59-1.95-2.33c-.34-.41-.96-.48-1.38-.15l-7.18,5.56-5.1.79c-.24.04-.46.16-.61.35l-9.32,11.12-8.91-5.73-2.42-11.85c-.03-.14-.08-.26-.16-.38l-8.93-12.62c-.17-.24-.43-.39-.72-.42l-4.17-.41-1.38-5.85c-.12-.5-.59-.83-1.1-.76l-6.06.76-5.28-7.77,7.47-8.11,3.68.32c.23.02.45-.04.63-.16l4.17-2.74c.26-.17.43-.46.45-.77l.33-5.31,3.27-2.94c.39-.35.44-.95.12-1.36l-8.22-10.48c-.17-.22-.42-.35-.69-.38l-3.8-.36-5.48-.6c-.51-.05-.99.29-1.09.8l-.83,4.14-2.46.59-6.45-3.51c-.41-.22-.93-.13-1.23.22l-6.24,7.21-1.13-1.02,1.83-2.98c.18-.29.2-.66.04-.97l-3.1-6.19c-.19-.38-.61-.61-1.03-.54l-8.11,1.1-5.04-9.85c-.19-.37-.58-.58-.99-.54l-8.82.92-7.92-5.17c-.14-.09-.3-.15-.47-.16l-5.71-.47-9.41-3.29c-.16-.06-.34-.07-.51-.04l-4.07.76-.83-7.15c-.03-.22-.12-.42-.27-.58l-5.06-5.29.46-10.89c.01-.34-.14-.66-.42-.86l-3.69-2.62c-.24-.17-.54-.22-.82-.15l-3.49.87-1.67-3.55c-.13-.28-.38-.48-.68-.55-.3-.07-.61,0-.85.19l-3,2.4-4.99-3.4c-.33-.22-.75-.23-1.09-.02l-5.96,3.69c-.26.16-.43.42-.46.72s.06.6.27.82l2.04,2.14-2.36,5.47c-.04.1-.07.21-.08.33l-.41,5.97-12.28-.11c-.4,0-.75.22-.91.57l-2.94,6.19-12.19-4.73,1.06-6.46c.04-.27-.02-.54-.19-.76-.16-.22-.41-.36-.68-.39l-3.14-.39-.5-1.93.35-6.04c0-.16-.02-.33-.09-.47l-1.91-4.17c-.08-.18-.22-.33-.39-.44l-6.07-3.69c-.18-.11-.4-.16-.61-.14l-7.38.69-8.95-3.6c-.25-.1-.52-.1-.77,0-.24.1-.44.3-.54.55l-3.69,9.29c-.12.31-.08.66.1.93s.5.44.83.44h1.95l.89,3.64c.07.27.24.5.49.64l6.87,3.81-1.38,2.54h-11.44c-.22,0-.44.08-.62.21l-12.63,9.96-8.13-1.47c-.2-.03-.4-.01-.58.07l-8.1,3.57c-.33.15-.56.46-.59.82l-.55,5.96-2.54,1.72-6.44-2.11c-.28-.09-.59-.05-.85.1l-4.02,2.54-3.89-2.21c-.24-.14-.53-.17-.79-.09l-12.27,3.81c-.38.12-.66.45-.7.85l-.91,8.51-3.63,2.86-6.18-4.12c-.46-.31-1.08-.18-1.38.27l-4.54,6.75-5.94-.76c-.46-.06-.9.21-1.06.64l-4.08,10.82-6.86-1.9c-.19-.05-.39-.05-.57.01l-7.03,2.26c-.37.12-.63.44-.68.82l-.78,5.67c-2.49,1.91-5.18,3.94-6.18,4.65-1.42-.8-6.04-3.85-9.24-6.01-.24-.16-.54-.21-.82-.14l-6.67,1.79c-.26.07-.49.25-.62.48l-2.93,5.34-7.54-2.59c-.18-.06-.37-.07-.56-.03l-8.34,2.02c-.34.08-.61.34-.72.67l-1.78,5.66c-2.94,1.43-7.35,3.55-7.71,3.69-.56.19-.82.27-4.3,10.56l-1.68-.24c-.54-.08-1.05.3-1.13.84l-.77,5.1-2.16-3.63-.92-6c-.07-.49-.49-.85-.99-.85h-3.13l-.4-4.45c-.04-.47-.4-.84-.87-.9l-8.22-1.07c-.34-.04-.69.09-.91.36-.22.27-.28.63-.17.96l1.27,3.6-2.01,3.29c-.15.24-.19.52-.11.79l.6,2.14c.05.2.17.37.33.5l5.12,4.23v3.7s0,.08,0,.12l.95,8.22c.03.25.15.47.33.64l4.7,4.13,1.34,3.46c.08.21.22.38.41.49l12.86,7.84,1.18,2.26c.12.23.32.4.57.48l2.92.97.21,5.15c.01.28.14.55.36.73l4.16,3.45-5.75,7.81c-.1.13-.16.28-.18.44l-1.01,6.48-5.36,3.69c-.43.3-.56.87-.3,1.32l4.17,7.27c.12.2.3.36.52.44l4.91,1.81.99,7.74c.06.44.4.79.84.86l1.7.25.81,3.87,1.55,6.67c.06.27.24.51.48.65l3.32,1.87.1,2.94.71,8.46c.03.33.22.63.51.79l6.74,3.77,3.2,7.08c.1.23.29.41.52.51l3.1,1.31c.08.04.17.06.27.07l2.96.36,8.81.23,4.79,4.15.56,5.56c.03.25.14.48.33.65l6.01,5.3,5.53,6.92,1.26,4.68c.06.24.22.45.43.58l2.98,1.91c.08.05.16.09.25.12l5.83,1.75,3.97,2.49,3.44,3.33.11,8.99c0,.29.13.56.35.74l2.62,2.26s.08.06.12.09l3.93,2.5c.45.28,1.04.17,1.35-.26l1.34-1.86,2.44-.68,3.84.51,1.3,2.2s.06.1.1.14l7.62,8.93c.15.17.35.29.57.33l3.91.74,6.83,14.45-3.34,6.24c-.11.21-.15.46-.09.69l1.34,6.02-1.76,7.72-4.83,8.2-5.15-1.58-11.92-6.88c-.3-.18-.68-.18-.99,0l-8.32,4.62c-.29.16-.49.46-.51.8l-1.58,21.04-13.25,10.16c-2.58.05-11.75.27-13.14.74-1.41.47-8.11,3.37-8.4,3.5-.15.07-.29.17-.39.3l-4.81,6.12-7.41.44c-.25.01-.48.12-.66.3l-10.4,10.63c-.19.2-.29.46-.28.74l.23,6.01c0,.23.09.44.24.61l13.75,16.04,5.08,13.02-4.14,6.97c-.06.11-.11.22-.13.35l-1.39,8.32c-.04.27.02.54.18.76s.4.36.67.4l8.21,1.08,4.01,9.72-6.61,16.52-2.52.84-14.91-11.67,2.23-5.06c.14-.32.11-.68-.09-.97l-3.93-5.78c-.07-.11-.17-.2-.28-.27l-6.01-3.93c-.23-.15-.51-.2-.78-.13l-7.63,1.85c-.31.08-.57.3-.69.6l-1.66,4.15-5.41,1.35-3.84-4.04-1.55-4.42c-.15-.42-.55-.67-.99-.67l-13.25.64c.13-5.97-.42-6.39-.8-6.67-.26-.2-.7-.27-1.01-.16-.7.23-8.03,2.9-8.34,3.01-.44.16-.71.61-.65,1.07l1.16,8.55s.01.08.02.12l1,3.83-13.96-2.29c-.09-.01-.18-.02-.26,0l-13.63,1.39c-.32.03-.6.21-.76.49l-1.3,2.23-15.32-1.11c-.34-.02-.67.12-.87.4l-6.61,8.81-10.78-.66c-.32-.02-.63.11-.83.36l-4.62,5.55c-.22.26-.29.61-.19.93l.54,1.76-4.25.18c-.23,0-.45.1-.62.25l-6.15,5.49-1.37-.12-.55-2.73c-.09-.45-.48-.78-.94-.8l-5.08-.23c-.25-.01-.51.07-.7.24l-4.74,4.09-8.64-1.23-1.42-4.27c-.02-.05-.04-.11-.07-.16l-3.24-6.01c-.14-.26-.38-.44-.66-.5l-3.05-.68,1.46-4.01c.1-.27.07-.57-.07-.83-.14-.25-.38-.43-.67-.49l-4.39-.92c-.2-.04-.41-.02-.6.06l-4.81,2.09-6.94-4.77c-.13-.09-.28-.15-.43-.17l-3.41-.46-5.49-1.37c-.42-.1-.86.07-1.09.44l-2.33,3.69-8.01-3.16c-.42-.17-.9-.03-1.17.34l-2.54,3.47c-.18.25-.24.57-.15.87l3.32,11.5-4.54,5.41-6.94,9.18-9.85,2.17,1.02-10.65c.03-.27-.06-.53-.23-.74-.17-.21-.42-.33-.69-.35l-5.78-.46c-.18-.02-.36.02-.53.1l-3.4,1.7-2.09-2.89,2.83-4.04c.22-.31.24-.71.06-1.05l-3.47-6.47c-.15-.28-.42-.47-.73-.52l-4.14-.62-3-5.35c-.18-.32-.51-.51-.87-.51h-8.52l-3.33-1.85.59-3.94c.08-.51-.25-1-.76-1.12l-3.93-.92c-.46-.1-.93.12-1.13.54l-3.24,6.7-7.35,1.3c-.13.02-.26.07-.37.15l-6.01,3.93c-.42.27-.57.81-.36,1.26l1.85,3.93c.13.28.38.48.68.55l3.32.78,1.82,7.9-10.97,12.09c-.26.28-.33.69-.19,1.05l2.48,6.08.45,8.38c0,.17.06.33.15.47l3.55,5.77v6.88c0,.44.29.84.72.96l19.21,5.58.87,10.18c.03.38.27.7.62.84l11.74,4.74,3.53,5.07c.15.22.38.37.65.41l6.47,1.16c.15.03.3.02.44-.02l8.32-2.31c.42-.12.72-.49.73-.93l.2-5.55,4.39-.19c.36-.02.68-.22.85-.54l3.68-7.15,3.36-.35,6.52,6.94-.66,9.27c-.03.42.21.82.6.99l6.47,2.77c.25.11.53.11.78,0l9.34-3.91,5.5,5.1.64,4.73c.06.44.4.78.84.85l22.18,3.47c.33.05.67-.07.9-.32l6.24-6.93c.12-.13.2-.3.24-.47l1.83-9.17,1.85-5.14,2.64-.38c.18-.03.35-.1.49-.22l3.71-3.05,12.08-1.54,4.79,2.83c.4.24.91.17,1.23-.17l4.35-4.56,3.22,1.51,2.49,1.58c.27.17.61.21.91.08l6.58-2.63,10.96,4.03c.23.08.48.08.7,0l33.83-13.03,4.98,1.96-2.35,3.7-5.58,1.07c-.41.08-.72.4-.8.81l-1.39,7.86c-.07.41.11.82.47,1.03l3.79,2.28-1.84,3.31c-.24.43-.13.97.25,1.27l5.55,4.39c.2.16.45.24.7.21l4.88-.41,1.99,3.8-2.3,4.39c-.19.36-.14.81.13,1.12l3,3.47c.17.2.42.32.68.34l2.7.19,3.43,6.01c.08.13.18.25.31.34l11.78,7.86c.14.1.31.15.48.17l12.17.9,3.22,2.58c.25.2.58.27.88.19l3.11-.83,4.25,2.03,1.69,2.75c.18.29.48.46.82.48l19.62.68,12.03,7.04c.2.12.43.16.66.12l7.39-1.16s.07-.01.1-.02l7.59-2.01,25.61,7.55c.08.02.17.04.25.04l13.91.46,9.07,3.85c.07.03.15.05.23.07l9.81,1.56,4.15,4.81c.19.21.45.34.74.35l22.49.45,3.19,2.97c.17.16.4.26.64.27l4.54.21,2.73,4.62c.18.31.51.49.86.49.02,0,.04,0,.06,0,.38-.02.71-.26.86-.6l2.78-6.42,5.92-.84c.29-.04.55-.21.71-.46l4.32-6.91,7.51.21c.43.02.8-.24.96-.63l4.62-11.65,3.75-.2c.23-.01.44-.1.61-.25l1.51-1.34,2.6,1.67c.44.28,1.03.18,1.35-.25l2.89-3.92,13.97,1.77c.07,0,.14.01.21,0l16.73-1.36,6.63,4.86c.24.18.55.24.84.16l6.24-1.62c.41-.11.71-.46.75-.88l.4-4.78,25.75-4.66,9.89,4.27c.24.1.51.11.76.02l3-1.16c.49-.19.75-.72.6-1.22l-2.25-7.44.83-8.73,6.63-1.04c.2-.03.39-.12.53-.26l2.09-1.99,4.14,1.04c.14.03.28.04.42.01l8.95-1.65,3.71,2.54-2.47,7.41c-.08.24-.07.5.04.74l4.43,9.6c.1.22.29.4.51.5l4.19,1.8-2.73,5.45c-.21.42-.1.94.27,1.23l6.92,5.49,2.36,6.15c.05.13.13.25.23.35l9.07,9.07,6.37,7.84c.07.09.16.17.26.23l13.14,7.89,1.15,6.93c.04.22.14.42.3.57l11.32,10.58c.08.07.17.13.26.18l12.81,5.93.9,5.63s.02.08.03.12l1.23,4.18c.04.14.11.27.21.38l7.09,8.07,6.11,9.3c.2.3.54.47.9.45l6.99-.48,10.53,2.34,6.67,10.72c.13.21.33.36.57.43l12.42,3.58,2.75,4.59c.23.38.69.57,1.12.45l5.3-1.45,6.52-.23,6.17,3.09c.24.12.51.14.76.05l5.74-1.91c1.79.25,15.36,4.14,23.69,6.6.09.03.19.04.28.04.29,0,.57-.13.77-.36l4.94-5.88,6.05-1.16c.21-.04.4-.15.54-.3l6.46-6.96,3.72-4.81,7.66,3.16c.36.15.77.07,1.06-.19l2.77-2.54,7.56-1.89,8.05-.73c.37-.03.69-.27.83-.61l1-2.41,5.82-.67c.3-.03.56-.2.72-.45.16-.25.2-.56.11-.85l-1.37-4.33.92-2.21,3.21-1.18,1.21,5.06c.1.42.46.72.88.76l11.08.98c.48.04.92-.26,1.05-.73l1.12-4.05,5.08-3.09h6.12c.26,0,.51-.1.69-.28l5.91-5.66c.21-.21.33-.5.31-.79l-.21-3.01,3.64-3.86,9.65-1.41,4.31.23,9.62,6.25c.29.19.65.21.97.07l10.09-4.69,5.69,3.64c.37.24.85.2,1.19-.08l2.92-2.51,2.6,1.4c.15.08.31.12.47.12h6.44l7.94,3.37c.27.12.59.1.85-.03l6.86-3.55,8.55,1.19c.34.04.67-.08.89-.34l2.62-3.02,10.09,6.88c.26.18.58.22.88.12l5.17-1.72c.25-.08.45-.26.57-.49l3.69-7.13,1.97-3.69s.03-.07.05-.1l1.72-4.31,11.66-.23,4.96,2.36c.09.04.18.07.27.08l9.11,1.48c.52.08,1.02-.26,1.14-.77l1.07-4.94,5.41-.43c.42-.03.77-.33.88-.73l3.03-10.96,3.56-.63c.21-.04.4-.14.55-.3l4.43-4.68c.29-.31.36-.76.17-1.14l-3.73-7.45,5.89-13.14,5.15.86c.33.06.67-.06.89-.3l3.69-3.94c.19-.2.28-.47.27-.74l-.19-3.18,3.43-.19c.3-.02.59-.17.76-.42l2.95-4.18c.21-.3.24-.68.08-1.01l-2.76-5.75,3.35-8.04,7.21-2.56c.39-.14.65-.5.67-.91l.23-7.6,5.22-3.41c.33-.22.51-.61.44-1l-1.41-8.45,5.22-7.26,5.58-1.63c.22-.06.41-.2.54-.38l6.4-9.11c.08-.11.13-.23.16-.36l2.69-11.96,4.65-10.22,5.84-.67c.34-.04.63-.24.78-.55l2.22-4.43c.12-.24.14-.53.05-.78l-2.54-7.16,8.84-13.49,7.2-1.16c.34-.06.64-.29.77-.61l6.21-15.3,2.23-.61c.23-.06.43-.2.56-.4l1.81-2.62,8.18,2.27c.49.14,1.01-.12,1.2-.59l2.27-5.67,2.31-.53,4.34,2.51c.14.08.29.13.45.13l4.92.25c.12,0,.24,0,.36-.05l6.89-2.22c.32-.1.56-.36.66-.68l1.29-4.5,5.46-.44c.49-.04.88-.43.92-.91l.43-5.17,6.17-1.32c.29-.06.53-.24.67-.5l3.2-5.91c.16-.3.16-.66,0-.96l-2.7-4.94,3.68-6.91c.18-.34.15-.74-.07-1.05ZM819.17,224.76l.67,13.03c.03.51.44.92.95.95l3.72.18c.11,0,.22,0,.33-.04l5.69-1.67,3.93,1.64c.24.1.51.1.75,0l4.08-1.6c.32-.13.56-.41.62-.75l.64-3.51,3.23-2.42c.19-.14.32-.35.37-.58l1.78-7.77,7.22-.32c.31-.01.59-.17.77-.41l3.07-4.27,6.57-4.07,4.58,5.04,2.27,9.92,1.6,5.14c.12.39.47.67.88.7l4.29.31,1.57,4.85c.07.22.22.41.41.54l4.43,2.84c.25.16.55.2.83.11l5.09-1.56v11.41c0,.16.04.32.11.46l2.06,3.95-4.17,7.51c-.14.26-.17.57-.06.84.11.28.33.49.61.59l7.27,2.48c.39.13.83.01,1.09-.31l3.25-3.89h3.66l9.14,6.21c.29.2.66.23.98.08l2.3-1.06c.32-.15.54-.46.58-.82l.86-9.49,3.99-5.81,5.58-3.44,8.37.51c.27.02.54-.08.75-.27s.31-.45.31-.73c0-2.11.19-4.71.42-5.14.31-.31,1.7-1.01,2.97-1.55l2.95,1.55c.3.16.65.15.94,0l1.9-1.04,2.56-1.2,7.71,4.19c.36.2.81.15,1.13-.12l4.4-3.75,3.41.78c.14.03.29.03.44,0l4.1-.91,2.99,4.72c.08.12.18.23.31.31l3.73,2.37,1.48,2.14c.19.27.49.43.82.43h2.82l3.6,5.57c.19.3.54.47.89.46l6.56-.35c.34-.02.64-.21.81-.5l4.33-7.5,4.06-.16c.33-.01.63-.19.81-.47.18-.28.2-.63.07-.93l-2.4-5.56,4.77-1.59,3.82,3.66c.39.37.99.37,1.38,0l6.33-5.99,8.36,2.29,6.26,3.83c.24.15.53.19.81.11l11.22-3.33,4.4-.15,1.65,3.01c.17.3.48.5.82.52l2.78.15,6.46,7.14c.34.37.9.44,1.31.15l4.01-2.78,5.45,4.17c.11.09.25.15.39.18l5.09,1.15,4.43,7.06.69,8.97c.03.36.25.68.58.83l12.05,5.5c.18.08.38.11.57.08l2.53-.4,1.33,3.98c.13.39.49.66.9.68l10.21.5,2.4,5.13c.11.24.32.43.58.52l7.09,2.48c.11.04.22.06.33.06h6.03l-1.92,8.88-4.08,1.41c-.21.07-.39.21-.51.4l-7.31,11.25-3.55,6.74c-.05.1-.08.2-.1.3l-3.47,21.16-8.27,4.73c-.1.06-.19.13-.27.23l-7.44,8.86c-.14.16-.22.37-.23.58l-1.22,20.57-2.8,3.1-3.71-.31-5.32-.71c-.11-.01-.23-.01-.34.01l-14.18,3.01c-.38.08-.68.37-.76.75l-.67,2.8-7.47-1.34-6.79-12.05-2.1-8.9c-.09-.39-.41-.69-.8-.76l-5.6-.96-1.41-4.56c-.07-.21-.2-.39-.38-.52l-6.03-4.25c-.4-.28-.94-.23-1.28.11l-2.89,2.89-6.84-.17c-.45-.04-.83.26-.97.67l-1.29,3.73-6.9-1.88c-.25-.07-.51-.04-.73.08l-7.45,3.97-4.29-2.86c-.19-.12-.41-.18-.63-.17l-4.55.35-3.36-.15-3.26-4.4c-.19-.26-.5-.41-.83-.4l-5.53.16-1.99-2.45c-.22-.28-.58-.41-.93-.36l-13.78,2.12-13.12,1.42c-.47.05-.84.43-.89.9l-.67,7.23-7.68,6.83c-.2.18-.32.43-.33.7l-.34,7.87-4.54,6.73-5.97,4.84-4.41-1.89c-.43-.18-.92-.05-1.2.33l-1.67,2.28-5.03.32c-.45.03-.82.35-.91.79l-.81,3.73-6.49,5.19-4.19-.48c-.24-.03-.49.03-.69.17l-7.19,5-1.62-3.37c-.16-.32-.47-.54-.83-.56l-4.57-.32-1.87-3.74c-.08-.17-.21-.31-.37-.41l-4.08-2.48c-.22-.14-.49-.18-.74-.12l-4.05.93-4.21-4.54c-.32-.34-.83-.42-1.24-.18l-7.27,4.25c-.17.1-.3.24-.39.41l-6.49,12.81-14.53,1.54c-.16.02-.31.07-.44.16l-6.38,4.2-17.13-3.98c-.24-.05-.48-.02-.7.09l-5.1,2.72h-9.85c-.45,0-.85.3-.97.74l-1.63,6.02-4.79,1.44c-.43.13-.72.53-.71.98l.35,13.12c0,.18.06.35.15.5l3.88,6.27-4.51,1.09c-.19.05-.37.15-.5.29-2.52,2.73-6.91,6.53-8.78,6.42-3.14-.17-13.16-1.05-13.26-1.06-.09,0-.18,0-.27.01l-17.85,3.33-15.37-4.37c-.13-.04-.26-.05-.39-.03l-15.84,1.94-15.81-1.72-7.9-8.76c-.2-.23-.5-.35-.8-.33l-4.96.31-2.92-6.97c-.13-.3-.39-.52-.71-.59l-4.56-.98-9.35-14.54c-.11-.18-.28-.31-.47-.39l-7.62-3.01c-.14-.06-.3-.08-.45-.07l-8.59.69-5.42-2.63-.14-3.84c3-4.09,3-4.82,3-5.1,0-.51,0-1.14-9.97-10.06l-1.02-10.25c-.03-.31-.21-.6-.48-.76l-3.14-1.89-.99-6.45c-.04-.29-.21-.54-.46-.69l-4.43-2.79-.92-4.44,3.9-10.5,6.57-6.22c.24-.23.35-.55.3-.88l-.87-5.71.84-6.35,9.15-17.48,11.72-12.88,1.84-.35,16.14,7.95c.36.18.79.12,1.1-.14l3.2-2.79,4.53,2.11c.15.07.31.1.47.09l7.38-.36c.19,0,.38-.08.54-.19l5.16-3.75,7.89-3.65c.16-.07.3-.19.4-.33l2.21-3.15,7.23-.11c.28,0,.54-.12.73-.33l3.22-3.57c.09-.1.16-.22.2-.35l2.78-8.22,10.09-1.23c.28-.03.52-.18.69-.4l5.72-7.86c.11-.16.18-.35.19-.54l.47-10.05,6.4-14.18,15.65-4.75c.33-.1.59-.37.68-.71l2.11-8.23,5.25-1.29c.25-.06.47-.22.61-.44l7.51-11.95,17.58,2.64c.21.03.43,0,.62-.11l6.36-3.41,8.46,1.49ZM373.5,290.17c-.14-.29-.4-.5-.72-.56l-4.06-.77-7.34-8.6-1.5-2.55c-.16-.26-.43-.44-.73-.48l-4.53-.6c-.13-.02-.27,0-.4.03l-2.98.83c-.22.06-.41.19-.54.38l-1,1.38-3.07-1.96-2.22-1.92-.11-8.96c0-.27-.11-.52-.3-.71l-3.81-3.69c-.05-.05-.1-.09-.16-.13l-4.17-2.62c-.08-.05-.16-.09-.24-.11l-5.82-1.75-2.53-1.62-1.21-4.51c-.04-.13-.1-.26-.19-.37l-5.72-7.15s-.08-.09-.12-.13l-5.78-5.1-.56-5.56c-.03-.25-.15-.49-.34-.66l-5.36-4.65c-.18-.15-.4-.24-.63-.24l-9.07-.23-2.72-.34-2.61-1.1-3.17-7.03c-.09-.19-.24-.36-.42-.46l-6.56-3.67-.67-7.88-.12-3.45c-.01-.35-.2-.67-.51-.84l-3.43-1.93-1.44-6.22-.95-4.53c-.09-.41-.42-.72-.83-.78l-1.64-.25-.98-7.59c-.05-.37-.3-.68-.65-.81l-5.14-1.9-3.53-6.15,4.96-3.41c.23-.16.38-.4.42-.67l1.03-6.67,6.17-8.38c.31-.43.24-1.02-.17-1.36l-4.54-3.77-.22-5.39c-.02-.42-.29-.78-.68-.91l-3.19-1.06-1.12-2.14c-.08-.16-.21-.3-.37-.39l-12.81-7.8-1.31-3.38c-.06-.15-.15-.28-.27-.39l-4.59-4.03-.9-7.78v-4.11c0-.3-.13-.58-.36-.77l-5.24-4.33-.39-1.42,2.04-3.32c.16-.26.19-.57.09-.86l-.89-2.51,5.81.76.41,4.56c.05.52.48.91,1,.91h3.19l.82,5.35c.02.13.06.25.13.36l3.69,6.19c.22.36.64.55,1.05.47.41-.08.73-.41.8-.83l1.04-6.88,1.52.22c.47.07.93-.21,1.09-.67,1.47-4.35,3.16-9.14,3.67-10.25,1.28-.58,5.4-2.57,7.96-3.82.25-.12.44-.34.52-.6l1.74-5.54,7.5-1.82,8.06,2.76c.46.16.97-.04,1.2-.46l3.13-5.7,5.82-1.56c9.57,6.45,9.83,6.36,10.38,6.18.19-.06.52-.17,7.32-5.4.21-.16.35-.4.38-.66l.75-5.45,6.14-1.98,7.45,2.06c.5.14,1.02-.13,1.2-.61l4.13-10.93,5.77.73c.37.05.75-.12.96-.43l4.33-6.44,5.96,3.97c.36.24.83.22,1.17-.05l4.53-3.57c.21-.17.35-.41.37-.68l.88-8.28,11.23-3.49,4.03,2.29c.32.18.72.17,1.03-.02l4.13-2.61,6.46,2.12c.29.1.62.05.87-.12l3.33-2.26c.25-.17.41-.44.43-.74l.54-5.85,7.28-3.21,8.27,1.49c.28.05.57-.02.8-.2l12.71-10.03h11.68c.37,0,.7-.2.88-.52l2.14-3.93c.26-.48.09-1.09-.39-1.35l-7.36-4.08-.97-3.98c-.11-.45-.51-.76-.97-.76h-1.27l2.78-6.99,8.24,3.32c.15.06.31.08.47.07l7.29-.68,5.53,3.36,1.67,3.66-.34,5.95c0,.1,0,.21.03.31l.71,2.74c.1.4.44.69.84.74l2.78.35-1.02,6.24c-.08.47.18.92.63,1.09l13.82,5.36c.49.19,1.04-.03,1.26-.5l3.06-6.45,12.58.11c.52-.03.97-.4,1.01-.93l.46-6.74,2.55-5.92c.16-.37.08-.8-.19-1.09l-1.65-1.73,4.36-2.7,5.06,3.45c.36.25.84.23,1.19-.05l2.58-2.07,1.48,3.14c.2.43.68.66,1.15.54l3.84-.96,2.87,2.04-.45,10.77c-.01.27.09.54.28.73l5.13,5.36.91,7.88c.03.28.18.52.4.69.22.17.51.23.78.18l4.86-.9,9.28,3.25c.08.03.16.05.25.05l5.58.46,8.01,5.22c.19.13.42.18.65.16l8.49-.88,5.05,9.87c.19.38.61.59,1.02.54l8.1-1.1,2.53,5.06-1.97,3.22c-.25.41-.18.94.18,1.26l2.5,2.26c.2.18.46.27.73.26.27-.02.52-.14.7-.34l6.38-7.37,6.08,3.31c.22.12.47.15.71.09l3.45-.83c.38-.09.67-.39.75-.78l.77-3.87,4.58.5,3.38.32,7.38,9.41-2.88,2.59c-.19.17-.31.42-.33.68l-.33,5.22-3.46,2.27-3.82-.33c-.31-.02-.61.09-.82.32l-8.34,9.05c-.31.34-.35.86-.09,1.24l6.07,8.93c.21.31.58.48.95.43l5.78-.72,1.34,5.68c.1.42.45.72.88.77l4.43.43,8.55,12.08,2.46,12.06c.05.26.21.5.44.64l10,6.43c.42.27.98.19,1.31-.2l9.64-11.5,4.99-.78c.17-.03.32-.09.46-.2l6.62-5.13,1.76,2.12c.26.32.69.44,1.08.31l3.22-1.07c.46-.15.74-.61.67-1.09l-.95-6.62-.12-3.28c-.01-.41-.27-.77-.66-.9l-4.73-1.72-1.31-5.9c-.04-.16-.11-.31-.22-.44l-3.81-4.37-.1-4.07,2.14-1.32,7.48,3.69c.06.03.12.05.19.07l4.85,1.27,5.27,3.37.83,1.35c.18.3.5.48.85.48h4.43l2.02,5.31c.09.25.28.44.52.55l4.41,2.02c.08.04.17.06.25.08l3.6.6,1.06,5.63c.1.5.56.86,1.07.81l3.66-.31,2.05,2.36c.24.28.62.4.98.32l9.1-2.13,3.62-.3.75,1.16c.29.45.88.59,1.34.32l6.79-3.93c.16-.09.29-.22.38-.38l1.41-2.57,2,1.85,1.09,11.63-12.78,5.32c-.51.21-.75.79-.54,1.3l2.5,6.07c.13.32.41.54.75.6l4.87.87,5.37,10.52c.05.1.11.18.19.26l7.98,7.86c.29.28.72.37,1.09.21,1.82-.76,10.89-4.55,11.38-4.79.29-.14.72-.36,3.81-5.94l4.07,1.68.32,6.16c.03.53.46.94.98.95l7.67.11,9.36,10.05c.36.39.97.43,1.37.08l3.33-2.79,4.91.94,6.25,4.63c.15.11.33.18.51.19l2.86.24c.41.04.79-.18.98-.55l1.03-2.06,1.31.91-.43,4.78c0,.11,0,.22.03.33l.62,2.48-1.72,3.23c-.13.24-.15.53-.06.79l5.12,15.13c.1.29.32.51.6.62l13.72,5.03,2.34,19.08-5.77,3.09-17.89-2.69c-.39-.06-.78.12-1,.46l-7.65,12.16-5.44,1.33c-.36.09-.64.37-.73.72l-2.12,8.27-15.54,4.72c-.28.08-.5.28-.62.55l-6.67,14.77c-.05.12-.08.24-.09.37l-.46,9.94-5.29,7.27-10.29,1.26c-.38.05-.7.31-.83.67l-2.91,8.62-2.79,3.1-7.31.11c-.32,0-.62.16-.8.43l-2.35,3.35-7.74,3.58c-.06.03-.12.06-.17.1l-5,3.64-6.84.33-4.9-2.28c-.36-.17-.78-.11-1.08.15l-3.19,2.78-15.84-7.8c-.2-.1-.42-.13-.63-.09l-2.5.48c-.21.04-.41.15-.55.31l-12.03,13.22c-.06.06-.11.13-.15.21l-8.01,15.29-1.56-7.3c-.05-.22-.17-.42-.34-.56l-3.45-2.86c-.15-.13-.34-.2-.53-.22l-15.21-1.59-.82-4.5c-.06-.31-.25-.57-.53-.71l-6.07-3.1c-.09-.05-.19-.08-.28-.09l-11.79-2.02c-.4-.07-.79.11-1.01.45l-3.77,5.89-2.33,2.63-15.13-2.31-10.97-.93-7.48-4.47-1.66-4.44c-.1-.26-.3-.47-.56-.58l-8.73-3.51-.93-3c-.15-.48-.64-.78-1.13-.69l-10.75,2.1-2.37-.62-13.54-8.4-3.58-4.51c-.12-.16-.29-.27-.48-.33l-11.31-3.57c-.1-.03-.2-.05-.3-.05h-3.57c-.32,0-.63.16-.81.42l-2.17,3.04-4.8,1.28-2.41-.43-.85-5.84c-.06-.4-.35-.72-.74-.82l-10.48-2.74c-.25-.06-.51-.03-.73.09l-2.38,1.31c-.29.16-.48.45-.51.77l-2.94,28.83-1.27,1.27-9.12-1.91c-.21-.04-.42-.02-.62.07l-2.38,1.07c-.33.15-.56.47-.59.84l-.32,4.21-6.32,4.97c-.22.17-.36.43-.38.71l-.8,10.23-2.31,1.51-4.47-1.17-.7-2.98c-.07-.28-.25-.52-.51-.66s-.56-.15-.83-.05l-4.46,1.74-6.98-3.71c-.42-.22-.94-.12-1.24.25l-2.14,2.62s-.07.09-.09.14l-1.64,2.87-2.8.2c-.36.03-.67.24-.83.56l-1.43,2.97-2.93.38-20.32-6.85-3.01-.83-1.16-2.49,2.07-4.46c.2-.43.07-.94-.31-1.22l-8.39-6.23-8.34-5.44-7.14-15.11ZM565.13,552.54c-.41.04-.76.32-.87.74,0,.03,0,.06,0,.08l-1.73,1.65-7.09,1.11c-.45.07-.8.44-.84.89l-.92,9.7c-.01.13,0,.26.04.38l2.04,6.74-1.76.68-9.79-4.23c-.18-.08-.38-.1-.57-.07l-26.8,4.85c-.45.08-.78.45-.82.9l-.4,4.84-5.09,1.32-6.55-4.8c-.19-.14-.43-.21-.67-.19l-16.99,1.38-14.45-1.84c-.36-.04-.72.11-.93.4l-2.68,3.64-2.45-1.57c-.38-.24-.87-.2-1.21.09l-1.82,1.62-4.04.21c-.39.02-.73.27-.88.63l-4.59,11.59-7.39-.21c-.36-.02-.69.17-.88.47l-4.38,7-6.01.86c-.34.05-.64.27-.78.59l-2.22,5.13-2.01-3.39c-.17-.29-.48-.47-.82-.49l-4.72-.21-3.2-2.98c-.18-.17-.42-.26-.66-.27l-22.43-.45-4.1-4.75c-.15-.18-.37-.3-.6-.33l-10.05-1.6-9.13-3.88c-.11-.05-.24-.08-.36-.08l-13.97-.46-25.76-7.59c-.18-.05-.36-.05-.54,0l-7.81,2.07-6.99,1.09-11.94-6.98c-.14-.08-.3-.13-.47-.14l-19.34-.67-1.57-2.55c-.1-.16-.25-.3-.42-.38l-4.85-2.31c-.21-.1-.46-.12-.69-.06l-2.98.79-3.07-2.46c-.16-.13-.35-.2-.55-.22l-12.22-.91-11.37-7.58-3.58-6.26c-.17-.29-.46-.48-.8-.5l-2.82-.2-2.29-2.64,2.23-4.25c.15-.29.15-.64,0-.93l-2.54-4.85c-.19-.36-.57-.56-.97-.53l-5.15.43-4.57-3.62,1.9-3.42c.26-.47.1-1.07-.36-1.34l-4.03-2.42,1.15-6.5,5.33-1.03c.27-.05.51-.21.66-.44l3.23-5.08c.16-.25.2-.56.11-.85-.09-.28-.31-.51-.59-.62l-6.47-2.54c-.23-.09-.49-.09-.73,0l-33.85,13.04-10.97-4.03c-.23-.09-.49-.08-.72.01l-6.46,2.58-2.11-1.34s-.07-.04-.11-.06l-3.93-1.85c-.39-.18-.85-.1-1.15.21l-4.3,4.51-4.4-2.6c-.19-.11-.41-.16-.63-.13l-12.71,1.62c-.19.02-.36.1-.51.22l-3.71,3.06-2.96.42c-.37.05-.67.3-.8.65l-2.08,5.78s-.03.09-.04.14l-1.79,8.97-5.69,6.33-20.91-3.27-.59-4.35c-.03-.23-.14-.44-.31-.6l-6.24-5.78c-.29-.27-.7-.34-1.07-.19l-9.54,4-5.43-2.33.64-8.99c.02-.28-.08-.55-.27-.76l-7.16-7.62c-.21-.23-.52-.34-.83-.31l-4.39.46c-.33.04-.63.24-.78.54l-3.66,7.11-4.73.21c-.52.02-.94.44-.96.96l-.21,5.74-7.39,2.05-5.84-1.04-3.46-4.97c-.11-.16-.27-.28-.45-.36l-11.45-4.62-.87-10.25c-.03-.41-.32-.76-.72-.88l-19.15-5.57v-6.41c0-.19-.05-.37-.15-.52l-3.56-5.79-.45-8.3c0-.11-.03-.22-.07-.32l-2.3-5.66,10.9-12.01c.22-.24.31-.58.23-.9l-2.08-9.01c-.09-.37-.37-.66-.75-.75l-3.46-.81-1.27-2.7,5.11-3.34,7.65-1.35c.32-.06.59-.26.73-.55l3.12-6.44,2.25.53-.56,3.71c-.06.41.14.82.5,1.02l4.16,2.31c.15.08.32.13.49.13h8.19l2.95,5.27c.15.27.42.45.72.5l4.12.62,2.94,5.49-2.88,4.12c-.24.35-.24.81,0,1.16l3,4.16c.29.4.82.53,1.26.31l3.91-1.96,4.49.36-1.06,11c-.03.32.09.63.33.84.24.21.57.3.88.23l11.55-2.54c.23-.05.44-.18.58-.37l7.13-9.43,4.85-5.78c.21-.25.29-.6.2-.92l-3.33-11.54,1.79-2.45,8.06,3.18c.45.18.96,0,1.21-.4l2.39-3.78,4.84,1.21s.07.02.11.02l3.23.43,7.2,4.95c.28.19.65.23.97.09l5.02-2.18,2.95.62-1.45,4c-.1.27-.08.57.06.82s.38.43.66.5l3.71.83,2.98,5.53,1.59,4.77c.12.36.43.62.81.67l9.7,1.39c.28.04.58-.04.79-.23l4.78-4.13,3.9.18.54,2.7c.09.43.45.76.89.8l2.54.23c.28.02.55-.07.76-.25l6.2-5.54,5.19-.22c.31-.01.6-.17.78-.42.18-.25.23-.58.14-.87l-.76-2.49,3.95-4.74,10.82.66c.33.03.66-.13.86-.4l6.6-8.81,15.4,1.12c.38.02.74-.16.94-.49l1.36-2.33,12.99-1.32,15.35,2.52c.33.05.67-.06.9-.31.23-.25.31-.6.23-.93l-1.37-5.26-1.04-7.69c2.1-.76,5.09-1.85,6.61-2.39.12,1.22.13,3.59.07,5.62,0,.28.1.55.3.75.2.2.47.29.75.29l13.58-.66,1.37,3.92c.05.13.12.26.22.36l4.39,4.62c.25.26.62.37.97.28l6.47-1.62c.31-.08.57-.3.69-.6l1.66-4.14,6.7-1.62,5.48,3.58,3.5,5.15-2.32,5.27c-.18.42-.06.91.3,1.19l15.94,12.48c.26.21.61.27.93.16l3.47-1.16c.28-.09.5-.3.61-.58l6.93-17.33c.1-.24.1-.51,0-.75l-4.39-10.63c-.14-.33-.44-.56-.79-.61l-7.75-1.02,1.19-7.11,4.29-7.23c.16-.26.18-.59.07-.87l-5.31-13.63c-.04-.1-.1-.2-.17-.29l-13.64-15.91-.2-5.23,9.83-10.04,7.47-.44c.29-.02.55-.16.73-.38l4.93-6.27c2.45-1.06,6.97-2.99,8-3.33.81-.26,7.18-.53,12.87-.64.21,0,.42-.08.59-.21l13.86-10.63c.23-.17.37-.43.39-.72l1.58-20.95,7.35-4.08,11.52,6.65c.06.04.13.07.21.09l6.01,1.85c.44.13.92-.05,1.16-.45l5.31-9.01c.05-.09.09-.18.11-.29l1.85-8.09c.03-.14.03-.29,0-.44l-1.31-5.88,2.89-5.39,7.61,4.97,7.68,5.71-1.92,4.15c-.12.27-.12.57,0,.84l1.55,3.33c.12.27.36.46.64.54l3.4.94,20.49,6.91c.1.03.21.05.32.05.04,0,.09,0,.13,0l3.69-.48c.34-.04.63-.25.77-.56l1.42-2.93,2.76-.2c.33-.02.63-.21.8-.5l1.86-3.26,1.57-1.92,6.66,3.55c.26.14.56.16.83.05l3.81-1.49.57,2.45c.08.36.36.65.72.74l5.48,1.43c.27.07.56.02.8-.13l3.1-2.02c.26-.17.43-.45.45-.76l.8-10.28,6.32-4.97c.22-.17.36-.43.38-.71l.31-4.05,1.54-.69,9.33,1.96c.33.07.67-.03.91-.27l1.91-1.91c.16-.16.26-.38.29-.61l2.92-28.66,1.57-.87,9.45,2.47.86,5.9c.06.43.39.76.81.84l3.33.6c.14.03.29.02.43-.02l5.36-1.43c.22-.06.42-.2.56-.39l2.08-2.92h2.9l10.88,3.43,3.5,4.41c.07.09.16.17.26.23l13.82,8.58c.09.05.18.09.27.12l2.74.71c.15.04.3.04.45.01l8.32-1.66,1.75-.32.81,2.61c.09.29.3.52.58.63l8.76,3.53,1.63,4.35c.08.21.23.39.42.51l7.98,4.76c.13.08.28.12.43.14l11.13.94,15.6,2.38c.34.05.67-.07.9-.33l2.74-3.1s.07-.08.09-.12l3.45-5.4,10.99,1.89,5.5,2.8.86,4.75c.08.44.44.77.88.82l15.66,1.64,2.95,2.44,2.03,9.5-.85,6.5c-.01.09-.01.19,0,.28l.81,5.33-6.36,6.02c-.11.11-.2.23-.25.38l-4.08,10.99c-.07.18-.08.37-.04.55l1.06,5.14c.06.27.22.5.45.64l4.4,2.77.99,6.46c.05.29.22.55.47.71l3.11,1.87,1.01,10.14c.02.25.14.48.33.65,4.06,3.62,8.47,7.74,9.49,8.95-.39.77-1.62,2.58-2.72,4.06-.13.18-.2.4-.2.63l.18,4.79c.01.37.23.7.56.86l4.87,2.37-3.28,2.98c-.3.28-.41.71-.26,1.09.37.98,1.33,3.61,1.56,4.43-.09.77-1.43,3.92-2.72,6.64l-5.59,1.72c-.33.1-.58.36-.67.69-.09.33,0,.68.22.94l3.57,3.99-1.02,3.87c-.05.19-.04.38.02.56l3.09,9.47-15.22,1.85-1.98-3.57c-.16-.3-.47-.49-.81-.51-.34-.02-.66.13-.87.4l-3.14,4.18-4.75-.37-1.9-7.17c-.09-.33-.33-.59-.66-.7l-8.55-2.77c-.14-.04-.28-.06-.42-.04l-6.01.69c-.39.04-.71.31-.83.68l-1.48,4.45-7.47,3.52c-.27.13-.47.37-.54.65-.07.29-.02.59.15.83l3.47,4.85c.09.13.22.24.37.31l7.39,3.7c.13.06.26.1.4.1l4.55.21,5.71,9.58-3.37,2.25c-.29.19-.46.52-.44.87l.22,6.04-6.57,6.78h-5.58c-.35,0-.68.18-.86.49l-.97,1.62-3.4-1.13c-.49-.16-1.03.08-1.24.55l-2.08,4.85c-.11.25-.11.54,0,.8l2.51,5.7,1.32,3.77-4.04,1.92c-.25.12-.43.33-.52.59l-1.39,4.16c-.07.21-.07.44,0,.65l2.54,7.16c.09.25.27.45.51.57l4.93,2.37-3.1,2.93c-.35.33-.41.86-.16,1.26l2.77,4.35-2.81,2.44c-.25.22-.38.54-.34.87l.34,2.86-8.4.41c-.12,0-.24.03-.35.08l-6.93,3c-.09.04-.18.1-.26.16l-13.9,12.05-1.79,1.7ZM1143.53,430.96c-.16.3-.16.65,0,.95l2.69,4.94-2.72,5.02-6.44,1.38c-.43.09-.75.46-.79.89l-.42,5.06-5.31.42c-.42.03-.77.32-.88.72l-1.33,4.66-6.21,2-4.5-.23-4.47-2.59c-.22-.13-.48-.17-.73-.11l-3.2.74c-.32.07-.58.3-.7.6l-2.13,5.32-8-2.22c-.41-.12-.85.04-1.09.39l-2.01,2.9-2.36.64c-.3.08-.55.3-.66.59l-6.19,15.23-7.08,1.14c-.28.04-.52.2-.68.44l-9.35,14.28c-.17.26-.21.59-.11.88l2.57,7.23-1.78,3.57-5.86.68c-.35.04-.65.26-.8.58l-4.92,10.83c-.03.06-.05.13-.07.19l-2.66,11.87-6.08,8.66-5.57,1.62c-.21.06-.4.19-.53.38l-5.66,7.88c-.16.22-.22.49-.17.75l1.37,8.22-5.11,3.34c-.27.18-.44.48-.45.81l-.23,7.44-6.99,2.48c-.27.09-.48.3-.59.56l-3.69,8.86c-.11.26-.1.56.02.82l2.7,5.62-2.34,3.31-3.95.22c-.27.01-.51.13-.69.33-.18.2-.27.46-.25.72l.22,3.76-3.03,3.23-5.38-.9c-.45-.08-.89.16-1.08.58l-6.4,14.28c-.12.27-.12.59.02.86l3.63,7.25-3.72,3.93-3.86.68c-.38.07-.69.35-.79.72l-3.01,10.89-5.46.44c-.44.03-.8.35-.9.78l-1.03,4.74-8.03-1.3-5.04-2.4c-.14-.07-.29-.1-.45-.1l-12.55.25c-.4,0-.76.26-.91.63l-1.95,4.87-1.95,3.66-3.51,6.78-4.31,1.44-10.42-7.1c-.42-.29-.99-.21-1.32.17l-2.84,3.28-8.32-1.16c-.2-.03-.41,0-.6.1l-6.72,3.48-7.69-3.26c-.12-.05-.26-.08-.39-.08h-6.39l-2.98-1.6c-.36-.2-.81-.15-1.12.12l-2.88,2.47-5.53-3.54c-.29-.18-.65-.21-.96-.06l-10.08,4.69-9.38-6.1c-.15-.1-.32-.15-.49-.16l-4.68-.25c-.07,0-.13,0-.2,0l-10.09,1.48c-.22.03-.43.14-.58.3l-4.18,4.43c-.19.2-.29.48-.27.76l.21,2.98-5.28,5.06h-6c-.18,0-.36.05-.52.15l-5.66,3.45c-.22.13-.38.34-.44.59l-1.01,3.63-9.53-.85-1.31-5.45c-.07-.28-.25-.51-.5-.65s-.55-.16-.82-.06l-4.68,1.72c-.26.1-.47.3-.58.55l-1.23,2.95c-.09.22-.1.46-.03.69l1.11,3.52-5.2.6c-.36.04-.67.27-.81.61l-1,2.4-7.52.68c-.05,0-.1.01-.15.03l-7.88,1.97c-.16.04-.31.12-.43.23l-2.49,2.28-7.78-3.2c-.42-.17-.9-.04-1.17.31l-4.13,5.35-6.18,6.65-6.08,1.17c-.23.04-.43.16-.58.34l-4.75,5.65c-23.07-6.79-23.73-6.57-24.09-6.45l-5.51,1.84-6.03-3.02c-.15-.07-.32-.11-.48-.1l-6.89.25c-.08,0-.15.01-.23.03l-4.68,1.28-2.56-4.27c-.13-.22-.34-.38-.58-.45l-12.43-3.59-6.69-10.75c-.14-.23-.37-.39-.63-.45l-11.08-2.46c-.09-.02-.19-.03-.29-.02l-6.56.45-5.83-8.87s-.05-.08-.08-.11l-6.99-7.96-1.15-3.91-.97-6.09c-.05-.33-.27-.61-.57-.75l-13.15-6.09-10.96-10.24-1.18-7.05c-.05-.29-.22-.54-.47-.69l-13.39-8.03-6.29-7.74s-.04-.05-.07-.08l-8.96-8.96-2.39-6.2c-.06-.17-.17-.31-.31-.42l-6.5-5.16,2.84-5.67c.12-.25.14-.53.04-.79-.09-.26-.29-.47-.55-.58l-4.82-2.06-4.1-8.89,2.58-7.75c.14-.42-.02-.89-.38-1.14l-4.68-3.2c-.22-.15-.49-.21-.75-.16l-9.14,1.68-2.7-.68.78-.74,13.75-11.91,6.62-2.87,9.29-.45c.28-.01.54-.14.71-.35.18-.21.26-.49.23-.76l-.4-3.4,3.07-2.66c.37-.32.45-.87.19-1.29l-2.79-4.39,3.56-3.36c.24-.23.35-.56.3-.88-.05-.33-.26-.6-.55-.75l-5.87-2.83-2.29-6.45,1.14-3.43,4.47-2.13c.46-.22.68-.75.51-1.23l-1.65-4.69-2.37-5.38,1.55-3.61,3.29,1.1c.44.15.93-.03,1.17-.43l1.09-1.83h5.44c.27,0,.53-.11.72-.3l7.16-7.39c.19-.2.29-.46.28-.73l-.21-5.91,3.69-2.46c.44-.3.58-.89.3-1.34l-6.47-10.86c-.17-.29-.48-.47-.81-.49l-4.87-.22-6.98-3.49-2.62-3.67,6.77-3.19c.25-.12.44-.33.52-.59l1.42-4.25,5.16-.6,7.82,2.54,1.94,7.33c.11.41.47.71.89.74l6.01.46c.34.02.67-.12.88-.4l2.54-3.39,1.56,2.81c.2.36.59.56,1,.51l17.1-2.08c.3-.04.56-.2.72-.46.16-.25.2-.56.11-.85l-3.37-10.35,1.08-4.11c.09-.32,0-.67-.22-.92l-2.89-3.23,4.52-1.39c.27-.08.49-.27.61-.52,3.39-7.03,3.15-7.99,3.07-8.3-.19-.74-1-2.97-1.41-4.09l3.62-3.29,8.29-.66,7.11,2.81,9.4,14.62c.14.22.37.38.63.44l4.45.95,2.99,7.14c.16.39.56.64.98.61l5.19-.32,7.83,8.68c.16.18.39.3.63.32l16.31,1.77c.08,0,.15,0,.23,0l15.75-1.93,15.41,4.38c.09.03.18.04.27.04.06,0,.12,0,.18-.02l17.95-3.34c1.26.11,10.18.89,13.19,1.05,3.3.18,8.66-5.24,10.16-6.83l5.56-1.35c.31-.08.57-.3.69-.59.12-.3.09-.63-.07-.91l-4.47-7.22-.33-12.08,4.59-1.38c.33-.1.59-.36.68-.7l1.57-5.82h9.34c.16,0,.33-.04.47-.12l4.99-2.66,17.18,3.99c.27.06.55.01.78-.14l6.53-4.3,14.83-1.57c.34-.04.63-.24.79-.54l6.6-13.03,6.32-3.7,4.06,4.38c.24.26.61.37.96.29l4.21-.97,3.48,2.12,2,4c.16.32.47.53.83.55l4.56.31,1.88,3.91c.13.26.36.46.65.53.28.08.59.02.83-.15l7.84-5.46,4.23.49c.27.03.53-.05.74-.21l7.09-5.67c.18-.14.3-.34.35-.57l.73-3.34,4.74-.31c.3-.02.57-.17.74-.41l1.48-2.02,4.23,1.81c.34.15.74.09,1.02-.14l6.56-5.32c.08-.06.14-.14.2-.22l4.79-7.09c.1-.15.16-.33.17-.52l.34-7.73,7.66-6.81c.19-.17.31-.4.33-.65l.63-6.81,12.35-1.34,13.26-2.04,1.94,2.39c.2.24.49.38.81.37l5.51-.16,3.23,4.37c.18.24.46.39.76.4l3.9.18s.08,0,.12,0l4.26-.33,4.5,3c.31.21.7.22,1.03.05l7.63-4.07,7.42,2.02c.51.14,1.04-.14,1.21-.64l1.36-3.92,6.54.16c.28.02.54-.1.73-.29l2.6-2.6,5.06,3.57,1.49,4.82c.11.36.42.63.79.69l5.55.95,1.98,8.4c.02.09.06.18.1.26l7.09,12.59c.15.26.4.44.69.49l8.86,1.6c.53.1,1.03-.24,1.15-.75l.74-3.11,13.39-2.85,5.2.69,4.25.35c.31.03.62-.09.82-.33l3.08-3.4,8.16-.17-.56,3.75c-.06.41.13.81.49,1.01l4.16,2.41-.22,6.29c0,.18.04.36.13.52l5.66,10.09c.2.35.59.55,1,.5l9.31-1.16,4.61,5.49.71,9.52c.03.37.26.7.6.84l7.38,3.2c.2.09.42.11.63.05l11.65-2.8,5.4,7.56-3.65,6.84Z" style="fill:#c6c6c6;"/><path d="M573.57,253.08c2.17,1.26,4.65,1.9,7.42,1.9,1.82,0,3.49-.27,5.02-.81,1.53-.54,2.88-1.31,4.06-2.3,1.18-.99,2.13-2.17,2.87-3.53.74-1.36,1.22-2.86,1.44-4.5h-6.36c-.18.88-.47,1.66-.88,2.35-.41.69-.92,1.27-1.52,1.75-.6.48-1.28.84-2.04,1.1-.76.25-1.59.38-2.49.38-1.7,0-3.15-.41-4.38-1.23s-2.17-1.99-2.83-3.51c-.66-1.52-.99-3.33-.99-5.43s.33-3.92.99-5.44c.66-1.52,1.61-2.7,2.83-3.53s2.68-1.24,4.38-1.24c.9,0,1.74.13,2.5.38.77.25,1.45.62,2.05,1.1.6.48,1.1,1.07,1.51,1.76.4.7.69,1.49.87,2.38h6.36c-.23-1.72-.73-3.27-1.49-4.64s-1.73-2.55-2.9-3.52c-1.18-.97-2.53-1.72-4.05-2.24-1.52-.52-3.18-.78-4.95-.78-2.76,0-5.23.63-7.41,1.9-2.18,1.26-3.9,3.07-5.15,5.42s-1.88,5.17-1.88,8.45.63,6.06,1.88,8.41c1.25,2.35,2.96,4.16,5.14,5.42Z" style="fill:#c6c6c6;"/><path d="M619.19,249.15h-15.11c-.46,0-.91.01-1.37.01.26-.3.54-.61.79-.91.87-1.02,1.72-2.04,2.54-3.07l13.02-16.61v-4.63h-23.71v5.35h14.77c.45,0,.91-.01,1.36-.01-.24.27-.49.54-.72.81-.86.98-1.69,1.97-2.48,2.95l-13.27,16.82v4.63h24.18v-5.35Z" style="fill:#c6c6c6;"/><path d="M542.51,358.02l-10.66,30.56h6.83l2.23-6.75h11.29l2.19,6.75h6.99l-10.73-30.56h-8.14ZM542.56,376.8l1.02-3.08c.6-1.93,1.21-3.95,1.83-6.07.37-1.28.76-2.66,1.17-4.12.41,1.46.8,2.84,1.17,4.11.62,2.11,1.23,4.14,1.81,6.08l1,3.08h-8Z" style="fill:#c6c6c6;"/><polygon points="581.55 358.02 556.67 358.02 556.67 363.37 565.99 363.37 565.99 388.57 572.28 388.57 572.28 363.37 581.55 363.37 581.55 358.02" style="fill:#c6c6c6;"/><path d="M722.77,363.29c-.79-.71-1.76-1.32-2.93-1.83-1.17-.51-2.53-.92-4.07-1.25l-2.89-.66c-1.16-.26-2.13-.56-2.9-.89-.77-.33-1.35-.73-1.72-1.2-.38-.46-.56-1.03-.56-1.68,0-.74.22-1.39.66-1.95.44-.56,1.05-1,1.85-1.31.79-.31,1.71-.47,2.75-.47,1.63,0,2.94.4,3.93,1.19.99.79,1.54,1.89,1.65,3.3h5.93c-.05-2-.55-3.72-1.5-5.17s-2.27-2.57-3.97-3.35-3.72-1.18-6.06-1.18-4.3.39-6.04,1.16-3.1,1.85-4.07,3.24c-.97,1.39-1.46,3.01-1.46,4.87,0,2.19.74,3.98,2.21,5.37s3.68,2.42,6.6,3.08l3.24.72c1.26.29,2.29.61,3.09.96.8.36,1.39.78,1.77,1.26.38.49.57,1.06.57,1.73,0,.78-.24,1.46-.72,2.05-.48.59-1.15,1.05-2.01,1.37s-1.87.49-3.04.49c-1.26,0-2.35-.21-3.28-.62-.93-.41-1.65-1-2.17-1.77-.52-.77-.79-1.71-.82-2.8h-6.09c.01,2.2.51,4.08,1.5,5.63.98,1.55,2.4,2.73,4.23,3.54,1.84.81,4.04,1.21,6.61,1.21s4.65-.38,6.45-1.14c1.8-.76,3.18-1.85,4.15-3.26.97-1.42,1.46-3.09,1.46-5.03,0-1.18-.19-2.23-.58-3.16-.39-.93-.98-1.75-1.76-2.46Z" style="fill:#c6c6c6;"/><path d="M752.89,347.31h-7.61l-7.53,8.82c-.75.9-1.48,1.78-2.18,2.65-.7.86-1.39,1.72-2.07,2.58-.11.14-.22.29-.33.44l.02-6.06v-8.43h-6.3v30.56h6.3v-8.48l4.05-4.66,8.66,13.14h7.3l-11.75-17.35,11.44-13.2Z" style="fill:#c6c6c6;"/><polygon points="676.58 493.15 663.52 493.15 663.52 480.87 657.22 480.87 657.22 511.43 663.52 511.43 663.52 498.53 676.58 498.53 676.58 511.43 682.88 511.43 682.88 480.87 676.58 480.87 676.58 493.15" style="fill:#c6c6c6;"/><path d="M704.48,500.25c0,1.2-.26,2.27-.79,3.19-.53.92-1.27,1.65-2.23,2.18-.96.53-2.08.8-3.36.8s-2.43-.27-3.38-.8-1.7-1.26-2.22-2.18c-.53-.92-.79-1.99-.79-3.19v-19.38h-6.19v19.89c0,2.2.52,4.14,1.56,5.81,1.04,1.67,2.5,2.98,4.39,3.92s4.09,1.4,6.62,1.4,4.76-.47,6.64-1.4,3.35-2.24,4.39-3.91c1.04-1.67,1.56-3.61,1.56-5.82v-19.89h-6.19v19.38Z" style="fill:#c6c6c6;"/></svg>