<?xml version="1.0" encoding="UTF-8"?>
<svg id="Vrstva_1" data-name="Vrstva 1" xmlns="http://www.w3.org/2000/svg" viewBox="0 0 120 98">
  <defs>
    <style>
      .cls-1 {
        fill: #4d4d4d;
      }
    </style>
  </defs>
  <path class="cls-1" d="M108.11,15.84h-54.39c-1.31,0-2.47-.88-2.82-2.14l-1.21-4.36c-.71-2.56-3.06-4.35-5.71-4.35H11.17c-3.27,0-5.92,2.66-5.92,5.92v74.64c0,3.27,2.66,5.92,5.92,5.92h96.94c3.27,0,5.92-2.66,5.92-5.92V21.77c0-3.27-2.66-5.92-5.92-5.92ZM111.03,85.55c0,1.61-1.31,2.92-2.92,2.92H11.17c-1.61,0-2.92-1.31-2.92-2.92V10.92c0-1.61,1.31-2.92,2.92-2.92h32.81c1.31,0,2.47.88,2.82,2.15l1.21,4.36c.71,2.56,3.06,4.34,5.71,4.34h54.39c1.61,0,2.92,1.31,2.92,2.92v63.79Z"/>
  <path class="cls-1" d="M105,24.95H12.77c-.83,0-1.5.67-1.5,1.5s.67,1.5,1.5,1.5h92.22c.83,0,1.5-.67,1.5-1.5s-.67-1.5-1.5-1.5Z"/>
</svg>