<?xml version="1.0" encoding="UTF-8"?>
<svg id="Vrstva_1" data-name="Vrstva 1" xmlns="http://www.w3.org/2000/svg" viewBox="0 0 150 150">
  <defs>
    <style>
      .cls-1 {
        fill: #4d4d4d;
      }
    </style>
  </defs>
  <path class="cls-1" d="M74.66,5.6C36.06,5.6,4.66,37,4.66,75.6s31.4,70,70,70,70-31.4,70-70S113.26,5.6,74.66,5.6ZM74.66,139.85c-35.43,0-64.25-28.82-64.25-64.25S39.24,11.36,74.66,11.36s64.25,28.82,64.25,64.25-28.82,64.25-64.25,64.25Z"/>
  <path class="cls-1" d="M115.04,69.26l-58.09-33.54c-2.29-1.33-5.03-1.33-7.33,0-2.29,1.32-3.66,3.7-3.66,6.34v67.08c0,2.65,1.37,5.02,3.66,6.34,1.15.66,2.4.99,3.66.99s2.52-.33,3.66-.99l58.09-33.54c2.29-1.32,3.66-3.7,3.66-6.34s-1.37-5.02-3.66-6.34ZM112.17,76.97l-58.09,33.54c-.71.41-1.34.14-1.57,0-.24-.14-.79-.54-.79-1.36V42.06c0-.82.55-1.23.79-1.36.14-.08.43-.22.79-.22.24,0,.5.06.78.22l58.09,33.54c.71.41.79,1.09.79,1.36s-.08.95-.79,1.36Z"/>
</svg>