<?xml version="1.0" encoding="UTF-8"?>
<svg id="Vrstva_3" data-name="Vrstva 3" xmlns="http://www.w3.org/2000/svg" viewBox="0 0 166.87 62.71">
  <defs>
    <style>
      .cls-1 {
        fill: #4d4d4d;
      }
    </style>
  </defs>
  <path class="cls-1" d="M138.88,14.28h-5.8v2h5.8c8,0,14.6,6.5,14.6,14.6s-6.5,14.6-14.6,14.6h-43.9l4.8-6.4h-2.5l-5.5,7.4,5.5,7.4h2.5l-4.8-6.4h43.9c9.1,0,16.6-7.4,16.6-16.6s-7.4-16.6-16.6-16.6Z"/>
  <polygon class="cls-1" points="21.11 20.45 15.02 20.45 15.02 20.41 21.03 12.22 21.03 11.16 13.45 11.16 13.45 12.32 19.45 12.32 19.45 12.37 13.38 20.61 13.38 21.61 21.11 21.61 21.11 20.45"/>
  <path class="cls-1" d="M24.7,15.23c0-.66.13-1.22.4-1.68s.63-.8,1.08-1.03.96-.35,1.53-.35c.84,0,1.51.25,2,.76s.74,1.22.74,2.13v6.55h1.27v-6.63c0-.87-.17-1.59-.5-2.18s-.78-1.04-1.35-1.35-1.21-.46-1.93-.46c-.82,0-1.55.21-2.18.64-.45.3-.81.73-1.09,1.27v-1.74h-1.24v10.45h1.27v-6.39Z"/>
  <path class="cls-1" d="M42.7,19.21c.4-.82.6-1.75.6-2.81s-.2-2-.6-2.82-.95-1.46-1.66-1.92-1.53-.7-2.46-.7-1.76.23-2.47.7-1.26,1.11-1.67,1.92-.6,1.76-.6,2.82.2,1.99.6,2.81.96,1.46,1.67,1.92,1.53.69,2.47.69,1.76-.23,2.47-.69,1.26-1.1,1.66-1.92ZM38.58,20.66c-.71,0-1.32-.18-1.84-.54s-.91-.86-1.19-1.5-.42-1.38-.42-2.21.14-1.57.42-2.22.68-1.15,1.19-1.51,1.13-.55,1.84-.55,1.32.18,1.84.55.91.87,1.19,1.51.42,1.38.42,2.21-.14,1.57-.42,2.21-.67,1.14-1.19,1.5-1.13.54-1.84.54Z"/>
  <path class="cls-1" d="M49.9,21.61l4.09-10.45h-1.36l-2.45,6.43c-.2.52-.38,1.04-.56,1.57-.12.36-.25.71-.37,1.06-.12-.35-.25-.71-.37-1.06-.18-.52-.36-1.05-.57-1.57l-2.47-6.43h-1.38l4.1,10.45h1.33Z"/>
  <path class="cls-1" d="M57.59,21.32c.57.31,1.21.46,1.92.46.82,0,1.55-.21,2.18-.64.45-.3.81-.73,1.09-1.26v1.73h1.24v-10.45h-1.27v6.39c0,.66-.13,1.22-.4,1.68s-.62.8-1.07,1.04-.96.35-1.53.35c-.84,0-1.51-.25-2.01-.76s-.75-1.22-.75-2.14v-6.55h-1.27v6.63c0,.86.17,1.59.5,2.18s.78,1.04,1.36,1.35Z"/>
  <path class="cls-1" d="M78.57,20.38c.33-.46.5-1,.5-1.63,0-.72-.23-1.3-.68-1.73s-1.15-.76-2.09-.98l-1.7-.4c-.6-.14-1.06-.35-1.38-.62s-.48-.62-.48-1.07c0-.54.22-.98.66-1.33s1.03-.52,1.76-.52,1.33.19,1.76.57.67.88.73,1.51l1.23-.07c-.06-.64-.25-1.2-.57-1.67s-.75-.83-1.29-1.08-1.16-.38-1.86-.38-1.36.13-1.92.38-1,.6-1.31,1.05-.47.97-.47,1.56c0,.72.24,1.31.72,1.77s1.18.8,2.11,1.02l1.72.41c.56.13,1,.32,1.31.58s.47.6.47,1.04c0,.55-.24,1.01-.71,1.37s-1.11.54-1.93.54-1.42-.19-1.88-.56-.73-.9-.81-1.58l-1.25.07c.06.69.26,1.27.62,1.75s.81.83,1.39,1.07,1.23.36,1.96.36,1.44-.13,2.03-.38,1.05-.61,1.38-1.06Z"/>
  <path class="cls-1" d="M88.33,11.67c-.67-.45-1.45-.68-2.34-.68-.55,0-1.05.09-1.51.28s-.85.44-1.19.77-.59.69-.77,1.11h-.05v-1.98h-1.24v14.53h1.27v-6.05h.04c.2.42.47.8.8,1.12s.72.58,1.16.77.94.28,1.49.28c.89,0,1.67-.23,2.34-.68s1.2-1.09,1.58-1.9.57-1.76.57-2.83-.19-2.03-.57-2.84-.91-1.44-1.58-1.89ZM88.77,18.67c-.28.63-.68,1.12-1.19,1.46s-1.09.51-1.76.51c-.7,0-1.3-.18-1.81-.53s-.9-.85-1.17-1.49-.41-1.39-.41-2.24.14-1.6.41-2.24.66-1.13,1.17-1.48,1.11-.53,1.81-.53,1.26.17,1.76.51.9.83,1.18,1.46.42,1.39.42,2.27-.14,1.65-.42,2.28Z"/>
  <path class="cls-1" d="M94.46,21.32c.57.31,1.21.46,1.92.46.82,0,1.55-.21,2.18-.64.45-.3.81-.73,1.09-1.26v1.73h1.24v-10.45h-1.27v6.39c0,.66-.13,1.22-.4,1.68s-.62.8-1.07,1.04-.96.35-1.53.35c-.84,0-1.51-.25-2.01-.76s-.75-1.22-.75-2.14v-6.55h-1.27v6.63c0,.86.17,1.59.5,2.18s.78,1.04,1.36,1.35Z"/>
  <path class="cls-1" d="M108.97,20.16c-.47.36-1.11.54-1.93.54s-1.42-.19-1.88-.56-.73-.9-.81-1.58l-1.25.07c.06.69.26,1.27.62,1.75s.81.83,1.39,1.07,1.23.36,1.96.36,1.44-.13,2.03-.38,1.05-.61,1.38-1.06.5-1,.5-1.63c0-.72-.23-1.3-.68-1.73s-1.15-.76-2.09-.98l-1.7-.4c-.6-.14-1.06-.35-1.38-.62s-.48-.62-.48-1.07c0-.54.22-.98.66-1.33s1.03-.52,1.76-.52,1.33.19,1.76.57.67.88.73,1.51l1.23-.07c-.06-.64-.25-1.2-.57-1.67s-.75-.83-1.29-1.08-1.16-.38-1.86-.38-1.36.13-1.92.38-1,.6-1.31,1.05-.47.97-.47,1.56c0,.72.24,1.31.72,1.77s1.18.8,2.11,1.02l1.72.41c.56.13,1,.32,1.31.58s.47.6.47,1.04c0,.55-.24,1.01-.71,1.37Z"/>
  <path class="cls-1" d="M113.63,19.35c0,.76.21,1.33.63,1.72s1.04.58,1.86.57c.16,0,.32,0,.5,0s.34-.01.5-.02l-.07-1.11c-.13,0-.27.01-.42.02s-.29,0-.42,0c-.46,0-.79-.09-1-.29s-.3-.53-.3-.99v-6.96h2.17v-1.11h-2.17v-2.76h-1.27v2.76h-1.74v1.11h1.74v7.07Z"/>
  <path class="cls-1" d="M119.51,8.98c.25,0,.47-.09.65-.27s.27-.39.27-.64-.09-.47-.27-.65-.4-.27-.65-.27-.47.09-.65.27-.27.4-.27.65.09.46.27.64.4.27.65.27Z"/>
  <rect class="cls-1" x="118.87" y="11.16" width="1.27" height="10.45"/>
  <path class="cls-1" d="M123.34,19.35c0,.76.21,1.33.63,1.72s1.04.58,1.86.57c.16,0,.32,0,.5,0s.34-.01.5-.02l-.07-1.11c-.13,0-.27.01-.42.02s-.29,0-.42,0c-.46,0-.79-.09-1-.29s-.3-.53-.3-.99v-6.96h2.17v-1.11h-2.17v-2.76h-1.27v2.76h-1.74v1.11h1.74v7.07Z"/>
  <path class="cls-1" d="M20.49,41.86c-.36-.29-.78-.51-1.26-.65s-1-.21-1.54-.21c-.76,0-1.44.13-2.05.39s-1.1.62-1.49,1.08-.62,1.02-.71,1.66l1.69.12c.05-.32.19-.61.41-.88s.51-.48.88-.64.8-.24,1.28-.24.9.08,1.25.25.6.4.78.69.26.64.26,1.04v.09c0,.26-.08.44-.25.55s-.44.18-.83.23-.91.11-1.56.21c-.51.06-1.02.15-1.51.26s-.94.27-1.33.48-.71.51-.94.88-.35.87-.35,1.46c0,.69.16,1.27.48,1.74s.75.83,1.3,1.07,1.16.36,1.85.36c.62,0,1.14-.08,1.56-.25s.74-.38.99-.63.43-.5.56-.75h.06v1.46h1.66v-7.13c0-.59-.1-1.1-.31-1.53s-.49-.8-.85-1.09ZM19.98,47.7c0,.45-.1.87-.3,1.26s-.52.71-.95.96-.98.37-1.65.37c-.44,0-.82-.06-1.14-.19s-.58-.31-.75-.54-.26-.52-.26-.85c0-.4.11-.71.33-.95s.51-.42.87-.54.74-.22,1.14-.27c.26-.03.54-.07.83-.12s.57-.09.83-.14.49-.1.68-.16.32-.12.38-.18v1.34Z"/>
  <path class="cls-1" d="M30.92,41.44c-.57-.3-1.21-.45-1.91-.45-.81,0-1.52.21-2.13.64-.39.28-.72.67-1,1.16v-1.63h-1.64v10.45h1.68v-6.15c0-.68.12-1.23.37-1.67s.57-.75.99-.96.87-.31,1.37-.31c.77,0,1.38.23,1.81.68s.64,1.13.64,2.01v6.4h1.68v-6.52c0-.92-.17-1.68-.5-2.29s-.79-1.06-1.36-1.36Z"/>
  <path class="cls-1" d="M36.22,36.92c-.31,0-.58.11-.81.33s-.34.49-.34.81.11.58.34.8.5.33.82.33.59-.11.82-.33.34-.49.34-.8-.11-.59-.34-.81-.5-.33-.83-.33Z"/>
  <rect class="cls-1" x="35.38" y="41.16" width="1.68" height="10.45"/>
  <path class="cls-1" d="M52.29,41.38c-.52-.27-1.1-.41-1.73-.41-.57,0-1.1.11-1.57.32s-.87.5-1.2.85c-.22.24-.38.51-.52.79-.18-.48-.47-.9-.9-1.26-.55-.47-1.22-.7-2.03-.7-.47,0-.91.09-1.34.27s-.8.45-1.13.8c-.24.25-.43.57-.59.91v-1.79h-1.64v10.45h1.68v-6.42c0-.59.12-1.09.35-1.48s.54-.7.92-.9.78-.3,1.21-.3c.62,0,1.14.19,1.55.56s.62.87.62,1.48v7.06h1.69v-6.69c0-.47.1-.88.29-1.25s.47-.65.83-.85.79-.31,1.28-.31c.59,0,1.11.17,1.56.51s.67.91.67,1.7v6.88h1.68v-6.89c0-.85-.15-1.55-.46-2.1s-.72-.97-1.25-1.24Z"/>
  <path class="cls-1" d="M63.39,41.86c-.36-.29-.78-.51-1.26-.65s-1-.21-1.54-.21c-.76,0-1.44.13-2.05.39s-1.1.62-1.49,1.08-.62,1.02-.71,1.66l1.69.12c.05-.32.19-.61.41-.88s.51-.48.88-.64.8-.24,1.28-.24.9.08,1.25.25.6.4.78.69.26.64.26,1.04v.09c0,.26-.08.44-.25.55s-.44.18-.83.23-.91.11-1.56.21c-.51.06-1.02.15-1.51.26s-.94.27-1.33.48-.71.51-.94.88-.35.87-.35,1.46c0,.69.16,1.27.48,1.74s.75.83,1.3,1.07,1.16.36,1.85.36c.62,0,1.14-.08,1.56-.25s.74-.38.99-.63.43-.5.56-.75h.06v1.46h1.66v-7.13c0-.59-.1-1.1-.31-1.53s-.49-.8-.85-1.09ZM62.88,47.7c0,.45-.1.87-.3,1.26s-.52.71-.95.96-.98.37-1.65.37c-.44,0-.82-.06-1.14-.19s-.58-.31-.75-.54-.26-.52-.26-.85c0-.4.11-.71.33-.95s.51-.42.87-.54.74-.22,1.14-.27c.26-.03.54-.07.83-.12s.57-.09.83-.14.49-.1.68-.16.32-.12.38-.18v1.34Z"/>
  <path class="cls-1" d="M73.78,49.1c-.15.25-.33.47-.55.65s-.47.32-.77.42-.64.15-1.02.15c-.66,0-1.23-.17-1.69-.5s-.82-.79-1.06-1.38-.36-1.26-.36-2.03.12-1.46.36-2.05.59-1.06,1.06-1.39,1.03-.5,1.69-.5c.38,0,.72.05,1.02.15s.56.24.79.42.42.4.56.65.25.53.32.83l1.68-.11c-.09-.51-.26-.97-.51-1.4s-.56-.79-.95-1.09-.82-.55-1.31-.72-1.02-.26-1.6-.26c-.96,0-1.8.23-2.52.7s-1.29,1.11-1.69,1.93-.61,1.77-.61,2.84.2,2.01.61,2.82.97,1.45,1.69,1.91,1.57.69,2.52.69c.57,0,1.1-.09,1.6-.26s.93-.42,1.32-.73.71-.68.96-1.11.42-.89.5-1.39l-1.7-.11c-.08.31-.19.6-.34.85Z"/>
  <path class="cls-1" d="M78.66,36.92c-.31,0-.58.11-.81.33s-.34.49-.34.81.11.58.34.8.5.33.82.33.59-.11.82-.33.34-.49.34-.8-.11-.59-.34-.81-.5-.33-.83-.33Z"/>
  <rect class="cls-1" x="77.82" y="41.16" width="1.68" height="10.45"/>
</svg>