<?xml version="1.0" encoding="UTF-8"?>
<svg id="Vrstva_1" xmlns="http://www.w3.org/2000/svg" version="1.1" viewBox="0 0 166 51">
  <!-- Generator: Adobe Illustrator 30.0.0, SVG Export Plug-In . SVG Version: 2.1.1 Build 123)  -->
  <defs>
    <style>
      .st0 {
        fill: #4d4d4d;
      }
    </style>
  </defs>
  <g>
    <polygon class="st0" points="9.7 14.8 3.6 14.8 3.6 14.7 9.6 6.5 9.6 5.5 2 5.5 2 6.6 8 6.6 8 6.7 2 14.9 2 15.9 9.7 15.9 9.7 14.8"/>
    <path class="st0" d="M16.1,16.1c.9,0,1.7-.2,2.3-.7s1.2-1.1,1.6-1.9.6-1.8.6-2.8-.2-2-.6-2.8-.9-1.4-1.6-1.9-1.5-.7-2.3-.7-1,0-1.5.3-.9.4-1.2.8-.6.7-.8,1.1h0v-2h-1.2v14.5h1.3v-6.1h0c.2.4.5.8.8,1.1s.7.6,1.2.8.9.3,1.5.3ZM13,12.9c-.3-.6-.4-1.4-.4-2.2s.1-1.6.4-2.2.7-1.1,1.2-1.5,1.1-.5,1.8-.5,1.3.2,1.8.5.9.8,1.2,1.5.4,1.4.4,2.3-.1,1.6-.4,2.3-.7,1.1-1.2,1.5-1.1.5-1.8.5-1.3-.2-1.8-.5-.9-.8-1.2-1.5Z"/>
    <polygon class="st0" points="27.3 3.8 29.6 1.2 29.6 1.2 28.3 1.2 26.7 3.1 25.1 1.2 23.7 1.2 23.7 1.2 26.1 3.8 27.3 3.8"/>
    <path class="st0" d="M28.8,15.7c.6-.3,1.1-.6,1.5-1.1s.7-1,.8-1.6h-1.3c-.1.3-.3.7-.6,1s-.6.6-1,.7-.9.3-1.4.3-1.3-.2-1.9-.5-.9-.8-1.2-1.4c-.3-.6-.4-1.2-.4-2h8v-.4c0-.8-.1-1.5-.3-2.2s-.5-1.2-1-1.7-.9-.8-1.5-1.1-1.2-.4-1.9-.4-1.7.2-2.4.7-1.2,1.1-1.6,1.9-.6,1.8-.6,2.8.2,2,.6,2.8.9,1.5,1.7,1.9,1.6.7,2.5.7,1.4-.1,2-.4ZM24.9,6.9c.5-.3,1.1-.5,1.8-.5s1.3.2,1.8.5.9.8,1.2,1.4c.2.5.3,1,.4,1.6h-6.7c0-.6.2-1.1.4-1.6.3-.6.7-1.1,1.2-1.4Z"/>
    <path class="st0" d="M33.5,13.7c0,.8.2,1.3.6,1.7s1,.6,1.9.6c.2,0,.3,0,.5,0s.3,0,.5,0v-1.1c-.2,0-.3,0-.5,0s-.3,0-.4,0c-.5,0-.8,0-1-.3s-.3-.5-.3-1v-7h2.2v-1.1h-2.2v-2.8h-1.3v2.8h-1.7v1.1h1.7v7.1Z"/>
    <path class="st0" d="M44.6,9.5c0-.7.1-1.2.4-1.7s.6-.8,1.1-1,1-.3,1.5-.3c.8,0,1.5.3,2,.8s.7,1.2.7,2.1v6.6h1.3v-6.6c0-.9-.2-1.6-.5-2.2s-.8-1-1.3-1.3-1.2-.5-1.9-.5-1.5.2-2.2.6c-.4.3-.8.7-1.1,1.3v-1.7h-1.2v10.4h1.3v-6.4Z"/>
    <path class="st0" d="M60.4,14.2v1.7h1.3v-7.2c0-.5,0-1-.3-1.4s-.5-.8-.8-1.1-.8-.5-1.2-.7-1-.2-1.5-.2-1.4.1-2,.4-1.1.6-1.4,1.1-.6,1-.7,1.6h1.3c0-.3.2-.6.4-.9s.6-.6,1-.7.9-.3,1.4-.3,1,0,1.4.3.7.5.9.8.3.7.3,1.2v.2c0,.3,0,.5-.3.6s-.5.2-.9.3-.9.1-1.6.2c-.6,0-1.2.2-1.7.3s-1,.3-1.3.5-.7.5-.9.9-.3.8-.3,1.3.2,1.2.5,1.7.8.8,1.3,1,1.1.3,1.8.3,1.1,0,1.6-.3.8-.4,1.1-.7.5-.6.7-.9h0ZM58.9,14.5c-.5.3-1.1.4-1.7.4s-.9,0-1.3-.2-.7-.4-.9-.6-.3-.6-.3-1,.1-.8.3-1,.6-.5,1-.6.9-.3,1.5-.3c.3,0,.6,0,.9-.1s.6,0,.8-.1.5-.1.7-.2.3-.1.4-.2v1.5c0,.6-.1,1.1-.4,1.6s-.6.8-1.1,1.1Z"/>
    <path class="st0" d="M73.4,15.9l4.1-10.4h-1.4l-2.5,6.4c-.2.5-.4,1-.6,1.6-.1.4-.2.7-.4,1.1-.1-.4-.2-.7-.4-1.1-.2-.5-.4-1-.6-1.6l-2.5-6.4h-1.4l4.1,10.4h1.3Z"/>
    <polygon class="st0" points="82.8 3.8 85.2 1.2 85.2 1.2 83.9 1.2 82.2 3.1 80.6 1.2 79.3 1.2 79.3 1.2 81.6 3.8 82.8 3.8"/>
    <path class="st0" d="M84.3,15.8c.6-.3,1-.6,1.4-1.1s.5-1,.5-1.6-.2-1.3-.7-1.7-1.2-.8-2.1-1l-1.7-.4c-.6-.1-1.1-.3-1.4-.6s-.5-.6-.5-1.1.2-1,.7-1.3,1-.5,1.8-.5,1.3.2,1.8.6.7.9.7,1.5h1.2c0-.7-.2-1.3-.6-1.7s-.8-.8-1.3-1.1-1.2-.4-1.9-.4-1.4.1-1.9.4-1,.6-1.3,1-.5,1-.5,1.6.2,1.3.7,1.8,1.2.8,2.1,1l1.7.4c.6.1,1,.3,1.3.6s.5.6.5,1-.2,1-.7,1.4-1.1.5-1.9.5-1.4-.2-1.9-.6-.7-.9-.8-1.6h-1.2c0,.8.3,1.3.6,1.8s.8.8,1.4,1.1,1.2.4,2,.4,1.4-.1,2-.4Z"/>
    <path class="st0" d="M95.5,6.7c-.4-.5-.9-.8-1.5-1.1s-1.2-.4-1.9-.4-1.7.2-2.4.7-1.2,1.1-1.6,1.9-.6,1.8-.6,2.8.2,2,.6,2.8.9,1.5,1.7,1.9,1.6.7,2.5.7,1.4-.1,2-.4,1.1-.6,1.5-1.1.7-1,.8-1.6h-1.3c-.1.3-.3.7-.6,1s-.6.6-1,.7-.9.3-1.4.3-1.3-.2-1.9-.5-.9-.8-1.2-1.4c-.3-.6-.4-1.2-.4-2h8v-.4c0-.8-.1-1.5-.3-2.2s-.5-1.2-1-1.7ZM90.4,6.9c.5-.3,1.1-.5,1.8-.5s1.3.2,1.8.5.9.8,1.2,1.4c.2.5.3,1,.4,1.6h-6.7c0-.6.2-1.1.4-1.6.3-.6.7-1.1,1.2-1.4Z"/>
    <path class="st0" d="M105.4,13.6c-.2.3-.4.5-.6.7s-.5.4-.9.5-.7.2-1.1.2c-.7,0-1.3-.2-1.8-.5s-.9-.9-1.2-1.5-.4-1.4-.4-2.2.1-1.6.4-2.2.7-1.1,1.2-1.5,1.1-.5,1.8-.5.8,0,1.1.2.6.3.9.5.5.5.6.7.3.6.4.9h1.3c0-.6-.3-1-.5-1.4s-.5-.8-.9-1.1-.8-.5-1.3-.7-1-.3-1.6-.3c-.9,0-1.8.2-2.5.7s-1.3,1.1-1.7,1.9-.6,1.8-.6,2.8.2,2,.6,2.8,1,1.5,1.7,1.9,1.5.7,2.5.7,1.1,0,1.6-.3.9-.4,1.3-.7.7-.7.9-1.1.4-.9.5-1.3h-1.3c0,.2-.2.5-.4.8Z"/>
    <path class="st0" d="M115.3,5.8c-.6-.3-1.2-.5-1.9-.5s-1.5.2-2.2.6c-.4.3-.8.7-1.1,1.2V1.4h-1.3v14.6h1.3v-6.4c0-.7.1-1.2.4-1.7s.6-.8,1.1-1,1-.3,1.5-.3c.8,0,1.5.3,2,.8s.7,1.2.7,2.1v6.6h1.3v-6.6c0-.9-.2-1.6-.5-2.2s-.8-1-1.3-1.3Z"/>
    <path class="st0" d="M126,5.8c-.6-.3-1.2-.5-1.9-.5s-1.5.2-2.2.6c-.4.3-.8.7-1.1,1.3v-1.7h-1.2v10.4h1.3v-6.4c0-.7.1-1.2.4-1.7s.6-.8,1.1-1,1-.3,1.5-.3c.8,0,1.5.3,2,.8s.7,1.2.7,2.1v6.6h1.3v-6.6c0-.9-.2-1.6-.5-2.2s-.8-1-1.3-1.3Z"/>
    <path class="st0" d="M136.9,5.5l-2.5,6.4c-.2.5-.4,1.1-.6,1.6-.1.3-.2.7-.4,1-.1-.3-.2-.7-.4-1-.2-.5-.4-1-.6-1.6l-2.5-6.4h-1.4l4.1,10.4-.6,1.5c-.1.4-.3.7-.5.9s-.4.4-.6.4-.5.1-.8,0h-.8s0,1.1,0,1.1c.2,0,.3,0,.5,0s.3,0,.5,0c.4,0,.8,0,1.2-.2s.6-.4.9-.7.5-.7.7-1.2l4.9-12.4h-1.4Z"/>
    <path class="st0" d="M10.5,39.9c.8-.4,1.4-.9,1.8-1.6s.6-1.5.6-2.4-.2-1.7-.6-2.4-1-1.2-1.7-1.6-1.7-.6-2.7-.6H2.4v14.6h2.2v-5.5h3.2s0,0,.1,0l2.9,5.5h2.5l-3.2-5.9c.1,0,.3-.1.4-.2ZM4.6,33.3h3.1c.7,0,1.2.1,1.7.3s.8.5,1,.9.4.9.4,1.4-.1,1-.4,1.4-.6.7-1,.9-1,.3-1.6.3h-3.2v-5.3Z"/>
    <path class="st0" d="M22.4,36.7c-.4-.5-.9-.8-1.5-1.1s-1.2-.4-1.9-.4-1.8.2-2.5.7-1.3,1.1-1.7,1.9-.6,1.8-.6,2.8.2,2,.6,2.8,1,1.5,1.7,1.9,1.6.7,2.7.7,1.5-.1,2.1-.4,1.2-.7,1.6-1.1.7-1.1.8-1.7h-2c-.1.2-.3.5-.5.7s-.5.4-.9.6-.7.2-1.2.2-1.1-.1-1.6-.4-.8-.7-1-1.2c-.2-.4-.3-1-.3-1.6h7.6v-.6c0-.8-.1-1.6-.4-2.3s-.6-1.2-1-1.7ZM16.5,38.5c.2-.5.6-.8,1-1.1s.9-.4,1.5-.4,1.1.1,1.5.4.7.6,1,1.1c.2.4.2.8.3,1.2h-5.5c0-.4.1-.9.3-1.2Z"/>
    <path class="st0" d="M28.6,33.3c.2-.2.5-.3,1-.3s.3,0,.5,0,.3,0,.4,0v-1.7s-.2,0-.4,0-.5,0-.8,0c-.6,0-1.1.1-1.6.3s-.8.5-1,.9-.4.9-.4,1.5v1.6h-1.9v1.7h1.9v8.7h2.1v-8.7h2.2v-1.7h-2.2v-1.2c0-.4,0-.8.3-1Z"/>
    <path class="st0" d="M39.5,36.7c-.4-.5-.9-.8-1.5-1.1s-1.2-.4-1.9-.4-1.8.2-2.5.7-1.3,1.1-1.7,1.9-.6,1.8-.6,2.8.2,2,.6,2.8,1,1.5,1.7,1.9,1.6.7,2.7.7,1.5-.1,2.1-.4,1.2-.7,1.6-1.1.7-1.1.8-1.7h-2c-.1.2-.3.5-.5.7s-.5.4-.9.6-.7.2-1.2.2-1.1-.1-1.6-.4-.8-.7-1-1.2c-.2-.4-.3-1-.3-1.6h7.6v-.6c0-.8-.1-1.6-.4-2.3s-.6-1.2-1-1.7ZM33.5,38.5c.2-.5.6-.8,1-1.1s.9-.4,1.5-.4,1.1.1,1.5.4.7.6,1,1.1c.2.4.2.8.3,1.2h-5.5c0-.4.1-.9.3-1.2Z"/>
    <path class="st0" d="M47.1,35.3c-.7,0-1.2.2-1.6.5s-.7.8-.9,1.3h0v-1.7h-2v10.4h2.1v-6.2c0-.5,0-1,.3-1.4s.5-.6.8-.8.7-.3,1.1-.3.5,0,.7,0,.4,0,.4,0v-1.9c0,0-.2,0-.4,0s-.3,0-.4,0Z"/>
    <path class="st0" d="M56.9,36.7c-.4-.5-.9-.8-1.5-1.1s-1.2-.4-1.9-.4-1.8.2-2.5.7-1.3,1.1-1.7,1.9-.6,1.8-.6,2.8.2,2,.6,2.8,1,1.5,1.7,1.9,1.6.7,2.7.7,1.5-.1,2.1-.4,1.2-.7,1.6-1.1.7-1.1.8-1.7h-2c-.1.2-.3.5-.5.7s-.5.4-.9.6-.7.2-1.2.2-1.1-.1-1.6-.4-.8-.7-1-1.2c-.2-.4-.3-1-.3-1.6h7.6v-.6c0-.8-.1-1.6-.4-2.3s-.6-1.2-1-1.7ZM51,38.5c.2-.5.6-.8,1-1.1s.9-.4,1.5-.4,1.1.1,1.5.4.7.6,1,1.1c.2.4.2.8.3,1.2h-5.5c0-.4.1-.9.3-1.2Z"/>
    <path class="st0" d="M67.1,35.8c-.6-.3-1.2-.5-1.9-.5s-1.6.2-2.2.7c-.4.3-.7.7-1,1.2v-1.7h-2v10.4h2.1v-6.1c0-.6.1-1.1.3-1.5s.5-.7.9-.9.8-.3,1.3-.3c.7,0,1.3.2,1.7.6s.6,1,.6,1.9v6.3h2.1v-6.5c0-.9-.2-1.7-.5-2.3s-.8-1.1-1.3-1.4Z"/>
    <path class="st0" d="M77.7,43.2c-.1.2-.3.5-.5.6s-.4.3-.7.4-.6.1-.9.1c-.6,0-1.1-.2-1.5-.5s-.8-.7-1-1.3-.3-1.2-.3-1.9.1-1.4.3-1.9.5-1,1-1.3.9-.5,1.5-.5.7,0,.9.1.5.2.7.4.4.4.5.6.2.5.3.8h2c0-.6-.2-1.1-.5-1.6s-.6-.8-1-1.2-.9-.6-1.4-.8-1.1-.3-1.7-.3c-1,0-1.9.2-2.6.7s-1.3,1.1-1.7,1.9-.6,1.8-.6,2.8.2,2,.6,2.8,1,1.5,1.7,1.9,1.6.7,2.6.7,1.2,0,1.7-.3,1-.4,1.4-.8.7-.7,1-1.2.4-.9.5-1.5h-2.1c0,.2-.2.5-.3.7Z"/>
    <path class="st0" d="M89.5,36.7c-.4-.5-.9-.8-1.5-1.1s-1.2-.4-1.9-.4-1.8.2-2.5.7-1.3,1.1-1.7,1.9-.6,1.8-.6,2.8.2,2,.6,2.8,1,1.5,1.7,1.9,1.6.7,2.7.7,1.5-.1,2.1-.4,1.2-.7,1.6-1.1.7-1.1.8-1.7h-2c-.1.2-.3.5-.5.7s-.5.4-.9.6-.7.2-1.2.2-1.1-.1-1.6-.4-.8-.7-1-1.2c-.2-.4-.3-1-.3-1.6h7.6v-.6c0-.8-.1-1.6-.4-2.3s-.6-1.2-1-1.7ZM83.6,38.5c.2-.5.6-.8,1-1.1s.9-.4,1.5-.4,1.1.1,1.5.4.7.6,1,1.1c.2.4.2.8.3,1.2h-5.5c0-.4.1-.9.3-1.2Z"/>
  </g>
  <path class="st0" d="M147.6,9.7h-5.8v2h5.8c8,0,14.6,6.5,14.6,14.6s-6.5,14.6-14.6,14.6h-43.9s4.8-6.4,4.8-6.4h-2.5l-5.5,7.4,5.5,7.4h2.5l-4.8-6.4h0s43.9,0,43.9,0c9.1,0,16.6-7.4,16.6-16.6s-7.4-16.6-16.6-16.6"/>
</svg>