<svg width="70" height="70" viewBox="0 0 70 70" fill="none" xmlns="http://www.w3.org/2000/svg">
<path d="M46.7601 18.08C42.8801 15.68 42.2401 14.72 42.2401 13.4C42.2401 11.92 43.4401 10.96 45.0401 10.96C47.0001 10.96 48.5601 12.28 49.5601 13.36L52.8401 9.24C50.6001 6.88 47.6801 6 45.2801 6C40.2801 6 36.8401 9.2 36.8401 13.92V14C36.8401 17.92 39.3201 20.12 43.5601 22.64C46.7201 24.52 47.3601 25.48 47.3601 26.72C47.3601 28.32 46.2001 29.6 44.2401 29.6C41.8801 29.6 40.0801 27.84 38.8801 26.68L35.6801 30.84C38.4401 33.6 41.5201 34.56 44.3201 34.56C49.0401 34.56 52.7601 31.28 52.7601 26.48V26.4C52.7601 22.68 50.7201 20.52 46.7601 18.08Z" fill="#4D4D4D"/>
<path d="M17 8.20996L23.13 19.88L17 31.56H19.77H22.55L28.68 19.88L22.55 8.20996H17Z" fill="#4D4D4D"/>
</svg>
