<?xml version="1.0" encoding="UTF-8"?>
<svg id="Vrstva_1" data-name="Vrstva 1" xmlns="http://www.w3.org/2000/svg" viewBox="0 0 187.16 68">
  <defs>
    <style>
      .cls-1 {
        fill: #4d4d4d;
      }
    </style>
  </defs>
  <path class="cls-1" d="M17.6,52.86c-.36-.32-.8-.6-1.31-.83-.51-.23-1.09-.43-1.72-.59l-1.61-.41c-.62-.16-1.15-.34-1.58-.54-.43-.21-.75-.45-.97-.74-.22-.29-.33-.63-.33-1.04,0-.48.14-.9.41-1.26.27-.37.65-.65,1.13-.86.48-.21,1.04-.31,1.66-.31.96,0,1.73.24,2.33.73.6.49.93,1.17.99,2.03h1.76c-.03-.89-.25-1.67-.67-2.32s-1-1.16-1.74-1.52-1.61-.54-2.61-.54-1.87.17-2.63.51c-.76.34-1.34.82-1.76,1.45-.42.62-.63,1.35-.63,2.18,0,.98.33,1.78.99,2.4.66.62,1.69,1.1,3.11,1.46l1.66.42c.66.16,1.21.35,1.63.57.42.22.74.47.94.77.21.3.31.65.31,1.07,0,.52-.15.97-.44,1.36-.3.39-.71.68-1.23.89-.52.21-1.13.31-1.83.31s-1.36-.12-1.9-.37c-.54-.24-.96-.6-1.25-1.06-.3-.47-.45-1.03-.46-1.68h-1.83c.01.96.24,1.8.69,2.51.45.71,1.08,1.26,1.88,1.64.81.38,1.76.58,2.87.58s2-.18,2.79-.54c.79-.36,1.4-.86,1.84-1.49.43-.64.65-1.37.65-2.2,0-.55-.1-1.03-.29-1.46-.19-.42-.47-.8-.83-1.12Z"/>
  <path class="cls-1" d="M28.17,49.47c-.68-.45-1.46-.67-2.36-.67-.5,0-.96.07-1.38.22-.42.15-.78.36-1.09.62s-.57.56-.77.9h-.06v-1.57h-1.64v14.53h1.68v-5.67h.05c.22.35.49.66.8.93.31.27.66.48,1.06.63.4.15.85.23,1.35.23.9,0,1.69-.23,2.36-.68.68-.46,1.2-1.09,1.58-1.9.37-.81.56-1.76.56-2.83s-.19-2.03-.56-2.84c-.37-.81-.9-1.45-1.58-1.89ZM28.22,56.31c-.25.58-.61,1.03-1.06,1.34-.46.31-.99.46-1.61.46s-1.2-.16-1.67-.49c-.47-.33-.82-.78-1.07-1.37-.25-.59-.38-1.27-.38-2.06s.12-1.47.37-2.06c.25-.58.61-1.04,1.07-1.36s1.03-.48,1.67-.48,1.16.15,1.61.46c.46.31.81.75,1.06,1.33.25.58.38,1.28.38,2.11s-.13,1.53-.38,2.11Z"/>
  <path class="cls-1" d="M39.95,50.2c-.42-.47-.92-.83-1.49-1.07-.57-.25-1.2-.37-1.88-.37-.93,0-1.75.24-2.46.71-.71.47-1.26,1.12-1.67,1.94s-.6,1.76-.6,2.83.19,1.99.58,2.81c.39.82.94,1.46,1.67,1.92.72.46,1.59.69,2.62.69.75,0,1.43-.14,2.04-.41.61-.27,1.12-.64,1.53-1.12s.68-1.04.82-1.67l-1.67-.1c-.11.36-.29.67-.53.94-.24.27-.55.48-.92.62-.37.15-.79.22-1.26.22-.67,0-1.24-.15-1.72-.46-.48-.31-.84-.73-1.09-1.28-.23-.49-.34-1.06-.36-1.69h7.73v-.52c0-.85-.12-1.61-.35-2.28-.23-.67-.56-1.24-.98-1.7ZM33.56,53.26c.04-.49.14-.95.33-1.34.25-.52.6-.92,1.06-1.22.46-.29,1-.44,1.62-.44s1.16.14,1.62.43c.45.29.8.7,1.04,1.23.18.39.27.85.32,1.34h-5.99Z"/>
  <path class="cls-1" d="M49.93,56.91c-.15.25-.33.47-.55.65-.21.18-.47.32-.77.42-.3.1-.64.15-1.02.15-.66,0-1.23-.17-1.69-.5-.47-.33-.82-.79-1.06-1.38-.24-.59-.36-1.26-.36-2.03s.12-1.46.36-2.05c.24-.59.59-1.06,1.06-1.39.47-.34,1.03-.5,1.69-.5.38,0,.72.05,1.02.15.3.1.56.24.79.42.23.18.42.4.56.65.15.25.25.53.32.83l1.68-.11c-.09-.51-.26-.97-.51-1.4-.25-.42-.56-.79-.95-1.09-.38-.31-.82-.55-1.31-.72-.49-.17-1.02-.26-1.6-.26-.96,0-1.8.23-2.52.7-.73.46-1.29,1.11-1.69,1.93-.4.82-.61,1.77-.61,2.84s.2,2.01.61,2.82c.4.81.97,1.45,1.69,1.91.73.46,1.57.69,2.52.69.57,0,1.1-.09,1.6-.26.49-.17.93-.42,1.32-.73.39-.31.71-.68.96-1.11.25-.43.42-.89.5-1.39l-1.7-.11c-.08.31-.19.6-.34.85Z"/>
  <path class="cls-1" d="M54.82,44.74c-.31,0-.58.11-.81.33-.22.22-.34.49-.34.81s.11.58.34.8c.22.22.5.33.82.33s.59-.11.82-.33c.22-.22.34-.49.34-.8s-.11-.59-.34-.81c-.22-.22-.5-.33-.83-.33Z"/>
  <rect class="cls-1" x="53.98" y="48.97" width="1.68" height="10.45"/>
  <path class="cls-1" d="M65.05,49.67c-.36-.29-.78-.51-1.26-.65-.48-.14-1-.21-1.54-.21-.76,0-1.44.13-2.05.39-.61.26-1.11.62-1.49,1.08-.38.46-.62,1.02-.71,1.66l1.69.12c.05-.32.19-.61.41-.88.22-.27.51-.48.88-.64.37-.16.8-.24,1.28-.24s.9.08,1.25.25c.34.17.6.4.78.69s.26.64.26,1.04v.09c0,.26-.08.44-.25.55s-.44.18-.83.23c-.39.04-.91.11-1.56.21-.51.06-1.02.15-1.51.26-.5.11-.94.27-1.33.48-.39.21-.71.51-.94.88-.23.38-.35.87-.35,1.46,0,.69.16,1.27.48,1.74.32.47.75.83,1.3,1.07.55.24,1.16.36,1.85.36.62,0,1.14-.08,1.56-.25.41-.17.74-.38.99-.63.25-.25.43-.5.56-.75h.06v1.46h1.66v-7.13c0-.59-.1-1.1-.31-1.53-.21-.44-.49-.8-.85-1.09ZM64.53,55.51c0,.45-.1.87-.3,1.26-.2.39-.52.71-.95.96-.43.25-.98.37-1.65.37-.44,0-.82-.06-1.14-.19-.33-.13-.58-.31-.75-.54s-.26-.52-.26-.85c0-.4.11-.71.33-.95.22-.23.51-.42.87-.54.36-.13.74-.22,1.14-.27.26-.03.54-.07.83-.12.29-.05.57-.09.83-.14s.49-.1.68-.16c.19-.06.32-.12.38-.18v1.34Z"/>
  <polygon class="cls-1" points="64.68 44.73 62.77 44.73 61.41 47.63 62.8 47.63 64.68 44.73"/>
  <rect class="cls-1" x="68.8" y="44.87" width="1.68" height="14.55"/>
  <path class="cls-1" d="M79.75,49.25c-.57-.3-1.21-.45-1.91-.45-.81,0-1.52.21-2.13.64-.39.28-.72.67-1,1.16v-1.63h-1.64v10.45h1.68v-6.15c0-.68.12-1.23.37-1.67.24-.43.57-.75.99-.96.41-.21.87-.31,1.37-.31.77,0,1.38.23,1.81.68.43.46.64,1.13.64,2.01v6.4h1.68v-6.52c0-.92-.17-1.68-.5-2.29-.34-.61-.79-1.06-1.36-1.36Z"/>
  <polygon class="cls-1" points="84.32 47.63 85.71 47.63 87.59 44.73 85.68 44.73 84.32 47.63"/>
  <rect class="cls-1" x="84.21" y="48.97" width="1.68" height="10.45"/>
  <path class="cls-1" d="M100.93,49.47c-.68-.45-1.46-.67-2.36-.67-.5,0-.96.07-1.38.22-.42.15-.78.36-1.09.62s-.57.56-.77.9h-.06v-1.57h-1.64v14.53h1.68v-5.67h.05c.22.35.49.66.8.93.31.27.66.48,1.06.63.4.15.85.23,1.35.23.9,0,1.69-.23,2.36-.68.68-.46,1.2-1.09,1.58-1.9.37-.81.56-1.76.56-2.83s-.19-2.03-.56-2.84c-.37-.81-.9-1.45-1.58-1.89ZM100.99,56.31c-.25.58-.61,1.03-1.06,1.34-.46.31-.99.46-1.61.46s-1.2-.16-1.67-.49c-.47-.33-.82-.78-1.07-1.37-.25-.59-.38-1.27-.38-2.06s.12-1.47.37-2.06c.25-.58.61-1.04,1.07-1.36s1.03-.48,1.67-.48,1.16.15,1.61.46c.46.31.81.75,1.06,1.33.25.58.38,1.28.38,2.11s-.13,1.53-.38,2.11Z"/>
  <path class="cls-1" d="M109.37,48.82c-.65,0-1.19.16-1.63.49-.43.33-.74.76-.93,1.3h-.06v-1.64h-1.61v10.45h1.68v-6.46c0-.57.1-1.04.31-1.41.21-.38.48-.65.83-.84.34-.19.72-.28,1.13-.28.24,0,.46.01.64.04.19.03.32.05.38.07v-1.68c-.08-.01-.19-.03-.32-.04-.14-.01-.28-.02-.42-.02Z"/>
  <path class="cls-1" d="M118.44,49.46c-.72-.47-1.57-.7-2.54-.7s-1.8.23-2.52.7c-.73.46-1.29,1.11-1.69,1.93-.4.82-.61,1.77-.61,2.84s.2,2.01.61,2.82c.4.81.97,1.45,1.69,1.91.73.46,1.57.69,2.52.69s1.82-.23,2.54-.69c.72-.46,1.29-1.1,1.69-1.91.4-.81.61-1.75.61-2.82s-.2-2.02-.61-2.84c-.4-.82-.97-1.46-1.69-1.93ZM118.67,56.25c-.24.59-.6,1.05-1.06,1.38-.47.33-1.03.5-1.7.5s-1.23-.17-1.69-.5c-.47-.33-.82-.79-1.06-1.38-.24-.59-.36-1.26-.36-2.03s.12-1.46.36-2.05c.24-.59.59-1.06,1.06-1.39.47-.34,1.03-.5,1.69-.5s1.24.17,1.7.51c.47.34.82.8,1.06,1.39.24.59.37,1.27.37,2.05s-.12,1.44-.37,2.03Z"/>
  <path class="cls-1" d="M127.2,55.03c-.2.53-.38,1.07-.54,1.6-.09.29-.19.59-.28.88-.09-.29-.19-.58-.28-.88-.17-.53-.36-1.07-.56-1.6l-2.25-6.05h-1.83l4.03,10.45h1.71l4.03-10.45h-1.81l-2.23,6.05Z"/>
  <path class="cls-1" d="M140.06,50.2c-.42-.47-.92-.83-1.49-1.07-.57-.25-1.2-.37-1.88-.37-.93,0-1.75.24-2.46.71-.71.47-1.26,1.12-1.67,1.94s-.6,1.76-.6,2.83.19,1.99.58,2.81c.39.82.94,1.46,1.67,1.92.72.46,1.59.69,2.62.69.75,0,1.43-.14,2.04-.41.61-.27,1.12-.64,1.53-1.12s.68-1.04.82-1.67l-1.67-.1c-.11.36-.29.67-.53.94-.24.27-.55.48-.92.62-.37.15-.79.22-1.26.22-.67,0-1.24-.15-1.72-.46-.48-.31-.84-.73-1.09-1.28-.23-.49-.34-1.06-.36-1.69h7.73v-.52c0-.85-.12-1.61-.35-2.28-.23-.67-.56-1.24-.98-1.7ZM133.67,53.26c.04-.49.14-.95.33-1.34.25-.52.6-.92,1.06-1.22.46-.29,1-.44,1.62-.44s1.16.14,1.62.43c.45.29.8.7,1.04,1.23.18.39.27.85.32,1.34h-5.99Z"/>
  <path class="cls-1" d="M150.65,50.55h-.05c-.2-.34-.45-.64-.76-.9-.31-.26-.67-.47-1.07-.62-.41-.15-.86-.22-1.37-.22-.9,0-1.69.22-2.36.67-.68.45-1.2,1.08-1.58,1.89-.38.81-.57,1.76-.57,2.84s.19,2.02.56,2.83c.37.81.9,1.45,1.58,1.9.68.46,1.47.68,2.36.68.51,0,.96-.08,1.37-.23.4-.15.76-.37,1.08-.63.32-.27.58-.58.8-.93h.06v1.59h1.64v-14.55h-1.68v5.67ZM150.38,56.25c-.25.59-.6,1.05-1.07,1.37-.47.33-1.02.49-1.67.49s-1.15-.16-1.61-.46c-.46-.31-.82-.76-1.07-1.34-.25-.58-.38-1.29-.38-2.11s.12-1.53.38-2.11c.25-.58.61-1.02,1.06-1.33.46-.31,1-.46,1.62-.46s1.2.16,1.67.48c.47.32.82.77,1.07,1.36.25.58.37,1.27.37,2.06s-.12,1.47-.37,2.06Z"/>
  <path class="cls-1" d="M162.5,50.2c-.42-.47-.92-.83-1.49-1.07-.57-.25-1.2-.37-1.88-.37-.93,0-1.75.24-2.46.71-.71.47-1.26,1.12-1.67,1.94s-.6,1.76-.6,2.83.19,1.99.58,2.81c.39.82.94,1.46,1.67,1.92.72.46,1.6.69,2.62.69.75,0,1.43-.14,2.04-.41.61-.27,1.12-.64,1.53-1.12s.68-1.04.82-1.67l-1.67-.1c-.11.36-.29.67-.53.94-.24.27-.55.48-.92.62-.37.15-.79.22-1.26.22-.67,0-1.24-.15-1.72-.46-.47-.31-.84-.73-1.09-1.28-.23-.49-.34-1.06-.36-1.69h7.73v-.52c0-.85-.12-1.61-.35-2.28-.23-.67-.56-1.24-.98-1.7ZM156.11,53.26c.05-.49.14-.95.33-1.34.25-.52.6-.92,1.06-1.22.46-.29,1-.44,1.62-.44s1.16.14,1.62.43c.45.29.8.7,1.04,1.23.18.39.27.85.32,1.34h-5.99Z"/>
  <path class="cls-1" d="M172.53,49.25c-.57-.3-1.21-.45-1.91-.45-.81,0-1.52.21-2.13.64-.39.28-.72.67-1,1.16v-1.63h-1.64v10.45h1.68v-6.15c0-.68.12-1.23.37-1.67.24-.43.57-.75.99-.96.41-.21.87-.31,1.37-.31.78,0,1.38.23,1.81.68.43.46.64,1.13.64,2.01v6.4h1.68v-6.52c0-.92-.17-1.68-.5-2.29-.33-.61-.79-1.06-1.36-1.36Z"/>
  <polygon class="cls-1" points="180.36 44.73 178.46 44.73 177.09 47.63 178.49 47.63 180.36 44.73"/>
  <rect class="cls-1" x="176.98" y="48.97" width="1.68" height="10.45"/>
  <path class="cls-1" d="M36.72,17.87c-3.88-2.4-4.52-3.36-4.52-4.68,0-1.48,1.2-2.44,2.8-2.44,1.96,0,3.52,1.32,4.52,2.4l3.28-4.12c-2.24-2.36-5.16-3.24-7.56-3.24-5,0-8.44,3.2-8.44,7.92v.08c0,3.92,2.48,6.12,6.72,8.64,3.16,1.88,3.8,2.84,3.8,4.08,0,1.6-1.16,2.88-3.12,2.88-2.36,0-4.16-1.76-5.36-2.92l-3.2,4.16c2.76,2.76,5.84,3.72,8.64,3.72,4.72,0,8.44-3.28,8.44-8.08v-.08c0-3.72-2.04-5.88-6-8.32Z"/>
  <polygon class="cls-1" points="8 8 14.13 19.67 8 31.35 10.77 31.35 13.55 31.35 19.68 19.67 13.55 8 8 8"/>
</svg>