<svg width="50" height="50" viewBox="0 0 50 50" fill="none" xmlns="http://www.w3.org/2000/svg">
<path d="M23.8955 33.9125C24.1885 34.2051 24.5856 34.3695 24.9997 34.3695C25.4137 34.3695 25.8109 34.2051 26.1038 33.9125L30.7913 29.2271C31.0673 28.9309 31.2176 28.5391 31.2105 28.1343C31.2033 27.7295 31.0393 27.3433 30.7531 27.057C30.4668 26.7708 30.0806 26.6068 29.6758 26.5996C29.271 26.5925 28.8792 26.7427 28.583 27.0187L24.9997 30.5958L21.4163 27.0146C21.2721 26.8654 21.0997 26.7465 20.909 26.6647C20.7183 26.5829 20.5133 26.5399 20.3058 26.5382C20.0983 26.5365 19.8926 26.5761 19.7006 26.6547C19.5086 26.7334 19.3342 26.8495 19.1876 26.9963C19.041 27.1431 18.925 27.3176 18.8465 27.5096C18.7681 27.7017 18.7286 27.9075 18.7305 28.1149C18.7324 28.3224 18.7756 28.5274 18.8576 28.718C18.9396 28.9086 19.0587 29.0809 19.208 29.225L23.8955 33.9125ZM24.9997 18.8646C24.5576 18.8646 24.1337 18.689 23.8212 18.3764C23.5086 18.0639 23.333 17.6399 23.333 17.1979C23.333 16.7559 23.5086 16.332 23.8212 16.0194C24.1337 15.7068 24.5576 15.5312 24.9997 15.5312C25.4417 15.5312 25.8656 15.7068 26.1782 16.0194C26.4907 16.332 26.6663 16.7559 26.6663 17.1979C26.6663 17.6399 26.4907 18.0639 26.1782 18.3764C25.8656 18.689 25.4417 18.8646 24.9997 18.8646ZM23.333 23.0646C23.333 23.2835 23.3761 23.5002 23.4599 23.7024C23.5436 23.9046 23.6664 24.0883 23.8212 24.2431C23.9759 24.3979 24.1597 24.5206 24.3619 24.6044C24.5641 24.6881 24.7808 24.7313 24.9997 24.7313C25.2185 24.7313 25.4353 24.6881 25.6375 24.6044C25.8397 24.5206 26.0234 24.3979 26.1782 24.2431C26.3329 24.0883 26.4557 23.9046 26.5395 23.7024C26.6232 23.5002 26.6663 23.2835 26.6663 23.0646C26.6663 22.6226 26.4907 22.1986 26.1782 21.8861C25.8656 21.5735 25.4417 21.3979 24.9997 21.3979C24.5576 21.3979 24.1337 21.5735 23.8212 21.8861C23.5086 22.1986 23.333 22.6226 23.333 23.0646Z" fill="#434343"/>
<path fill-rule="evenodd" clip-rule="evenodd" d="M25 4.16895C20.856 4.16895 16.8817 5.81515 13.9515 8.7454C11.0212 11.6757 9.375 15.6499 9.375 19.7939V30.2106C9.375 34.3546 11.0212 38.3289 13.9515 41.2592C16.8817 44.1894 20.856 45.8356 25 45.8356C29.144 45.8356 33.1183 44.1894 36.0485 41.2592C38.9788 38.3289 40.625 34.3546 40.625 30.2106V19.7939C40.625 15.6499 38.9788 11.6757 36.0485 8.7454C33.1183 5.81515 29.144 4.16895 25 4.16895ZM12.5 19.7939C12.5 16.4787 13.817 13.2993 16.1612 10.9551C18.5054 8.61091 21.6848 7.29395 25 7.29395C28.3152 7.29395 31.4946 8.61091 33.8388 10.9551C36.183 13.2993 37.5 16.4787 37.5 19.7939V30.2106C37.5 33.5258 36.183 36.7052 33.8388 39.0494C31.4946 41.3937 28.3152 42.7106 25 42.7106C21.6848 42.7106 18.5054 41.3937 16.1612 39.0494C13.817 36.7052 12.5 33.5258 12.5 30.2106V19.7939Z" fill="#434343"/>
</svg>
