<svg width="161" height="160" viewBox="0 0 161 160" fill="none" xmlns="http://www.w3.org/2000/svg">
<path fill-rule="evenodd" clip-rule="evenodd" d="M80.5 0C36.3474 0 0.5 35.8474 0.5 80C0.5 124.153 36.3474 160 80.5 160C124.653 160 160.5 124.153 160.5 80C160.5 35.8474 124.653 0 80.5 0ZM80.5 11.1628C118.491 11.1628 149.337 42.0093 149.337 80C149.337 117.991 118.491 148.837 80.5 148.837C42.5093 148.837 11.6628 117.991 11.6628 80C11.6628 42.0093 42.5093 11.1628 80.5 11.1628Z" fill="#777777"/>
<path fill-rule="evenodd" clip-rule="evenodd" d="M105.804 106.411C100.029 114.098 90.8457 119.069 80.5015 119.069C70.1647 119.069 60.974 114.098 55.2066 106.411C55.2066 106.411 52.9633 108.154 50.5 110C48.0367 111.853 46.2764 113.123 46.2764 113.123C54.0903 123.512 66.5182 130.232 80.5015 130.232C94.4922 130.232 106.92 123.512 114.727 113.123C114.727 113.123 112.963 111.853 110.5 110C108.037 108.154 105.804 106.411 105.804 106.411Z" fill="#777777"/>
<path d="M50.7326 76.2787C56.8977 76.2787 61.8954 71.281 61.8954 65.1159C61.8954 58.9509 56.8977 53.9531 50.7326 53.9531C44.5676 53.9531 39.5698 58.9509 39.5698 65.1159C39.5698 71.281 44.5676 76.2787 50.7326 76.2787Z" fill="#777777"/>
<path fill-rule="evenodd" clip-rule="evenodd" d="M121.5 65.1167V60.1232H90.5002C90.5002 60.1232 90.5 63.0032 90.5 65.1167C90.5 67.2301 90.5001 70.1101 90.5001 70.1101H121.5V65.1167Z" fill="#777777"/>
</svg>
