<?xml version="1.0" encoding="UTF-8"?>
<svg id="Vrstva_1" data-name="Vrstva 1" xmlns="http://www.w3.org/2000/svg" viewBox="0 0 44 35">
  <defs>
    <style>
      .cls-1 {
        fill: #4d4d4d;
      }
    </style>
  </defs>
  <path class="cls-1" d="M31.26,1.4H12.1C5.83,1.4.68,6.5.68,12.73s5.12,11.32,11.42,11.32h10.77l7.45,9.85,1.8-9.85c5.9-.38,10.57-5.27,10.57-11.25S37.56,1.4,31.26,1.4ZM31.29,22.08h-.85l-1.27,7.12-5.32-7.12h-11.72c-5.2,0-9.49-4.2-9.49-9.43S6.85,3.23,12.12,3.23h19.16c5.2,0,9.49,4.2,9.49,9.42s-4.22,9.43-9.49,9.43Z"/>
  <circle class="cls-1" cx="10.3" cy="12.35" r="2"/>
  <circle class="cls-1" cx="21.64" cy="12.35" r="2"/>
  <circle class="cls-1" cx="33.14" cy="12.35" r="2"/>
</svg>