<?xml version="1.0" encoding="UTF-8"?><svg id="Vrstva_1" xmlns="http://www.w3.org/2000/svg" viewBox="0 0 50.63 52.89"><defs><style>.cls-1{fill:#f0f0f0;}.cls-2{fill:#787878;}</style></defs><circle class="cls-1" cx="25.36" cy="26" r="22"/><circle class="cls-2" cx="25.36" cy="26" r="20"/><polygon class="cls-1" points="15.09 26.9 22.7 26.9 22.7 24.83 15.09 24.83 15.09 20.09 23.3 20.09 23.3 18 12.68 18 12.68 34.01 23.32 34.01 23.32 31.91 15.09 31.91 15.09 26.9"/><path class="cls-1" d="M35.64,18v9.43c0,.29,0,.68.01,1.19,0,.5.02,1.04.04,1.6,0,.18.02.35.02.53-.15-.28-.29-.56-.45-.83-.26-.47-.51-.9-.74-1.3-.23-.4-.43-.72-.59-.96l-6.09-9.65h-2.69v16.01h2.42v-8.64c0-.29,0-.68-.02-1.18-.01-.5-.03-1.08-.05-1.75-.01-.36-.03-.75-.04-1.15.27.47.53.92.77,1.33.35.61.67,1.15.95,1.61.28.46.51.85.7,1.16l5.46,8.62h2.7v-16.01h-2.41Z"/></svg>