<?xml version="1.0" encoding="UTF-8"?><svg id="Vrstva_1" xmlns="http://www.w3.org/2000/svg" viewBox="0 0 49.73 51.09"><defs><style>.cls-1{fill:#f0f0f0;}.cls-2{fill:#787878;}</style></defs><circle class="cls-1" cx="24.46" cy="25.64" r="22"/><circle class="cls-2" cx="24.46" cy="25.64" r="20"/><path class="cls-1" d="M21.12,18.6c-1.13-.64-2.48-.96-4.05-.96h-5.35v16.01h5.19c1.63,0,3.02-.32,4.17-.97s2.03-1.57,2.64-2.77c.61-1.2.92-2.63.92-4.29s-.3-3.08-.91-4.27c-.61-1.19-1.48-2.11-2.61-2.75ZM21.65,28.82c-.4.89-1.01,1.56-1.82,2.03-.81.47-1.83.7-3.06.7h-2.64v-11.82h2.78c1.19,0,2.18.23,2.96.7.79.47,1.38,1.14,1.78,2.01.4.88.6,1.94.6,3.17s-.2,2.31-.6,3.2Z"/><polygon class="cls-1" points="28.97 31.55 28.97 26.55 36.58 26.55 36.58 24.47 28.97 24.47 28.97 19.74 37.18 19.74 37.18 17.64 26.56 17.64 26.56 33.65 37.2 33.65 37.2 31.55 28.97 31.55"/></svg>