<?xml version="1.0" encoding="UTF-8"?>
<svg id="Vrstva_1" data-name="Vrstva 1" xmlns="http://www.w3.org/2000/svg" viewBox="0 0 392.35 166.69">
  <defs>
    <style>
      .cls-1 {
        fill: #4d4d4d;
      }

      .cls-2 {
        isolation: isolate;
      }

      .cls-3 {
        fill: #f0f0f0;
      }

      .cls-4 {
        fill: #787878;
      }
    </style>
  </defs>
  <g>
    <path class="cls-1" d="M203.48,75.33c.89-1.49,1.34-3.21,1.34-5.14,0-1.38-.23-2.64-.68-3.8-.45-1.16-1.08-2.16-1.89-3-.81-.84-1.77-1.5-2.87-1.96-1.1-.46-2.3-.7-3.6-.7s-2.36.23-3.37.68c-1.01.45-1.77,1.02-2.29,1.72h-.15l.73-7.28h12.53v-4.87h-17.42l-1.37,15.1,5.29.93c.44-.58,1.05-1.04,1.84-1.38.79-.34,1.62-.51,2.48-.51.99,0,1.86.22,2.62.66.75.44,1.35,1.05,1.78,1.84.43.79.65,1.7.65,2.71s-.21,1.91-.64,2.68c-.42.77-1.01,1.37-1.75,1.81-.74.43-1.59.65-2.56.65-.81,0-1.56-.16-2.24-.47-.68-.31-1.23-.76-1.65-1.33-.42-.57-.65-1.23-.69-1.98h-5.75c.05,1.64.52,3.09,1.42,4.36.89,1.27,2.11,2.28,3.65,3,1.54.73,3.29,1.09,5.26,1.09,2.11,0,3.97-.43,5.57-1.28,1.6-.86,2.85-2.03,3.75-3.52Z"/>
    <rect class="cls-1" x="216.5" y="50.98" width="5.79" height="28.77"/>
    <path class="cls-1" d="M230.28,78.83c1.6.9,3.49,1.35,5.7,1.35,1.69,0,3.18-.25,4.47-.73,1.29-.49,2.37-1.18,3.23-2.08.86-.89,1.47-1.93,1.81-3.12l-5.25-.98c-.21.55-.51,1.02-.9,1.4-.39.38-.87.67-1.42.86s-1.17.29-1.85.29c-1,0-1.88-.21-2.64-.64-.75-.42-1.34-1.06-1.76-1.91-.38-.76-.56-1.71-.6-2.8h14.74v-1.62c0-1.85-.26-3.46-.78-4.83-.52-1.36-1.25-2.5-2.17-3.41-.93-.91-2-1.59-3.22-2.04-1.22-.45-2.54-.68-3.96-.68-2.1,0-3.93.47-5.48,1.41-1.56.94-2.76,2.25-3.61,3.92-.85,1.67-1.27,3.62-1.27,5.85s.43,4.25,1.28,5.91c.86,1.66,2.08,2.94,3.68,3.84ZM233.19,62.96c.7-.46,1.55-.69,2.56-.69s1.82.23,2.5.69c.68.46,1.18,1.1,1.53,1.93.24.58.36,1.25.43,1.96h-9.08c.07-.72.2-1.4.47-2,.36-.79.89-1.42,1.59-1.88Z"/>
    <path class="cls-1" d="M249.68,73.94c0,1.97.57,3.48,1.72,4.54,1.15,1.06,2.8,1.58,4.96,1.58.58,0,1.19-.04,1.82-.12.64-.08,1.28-.21,1.92-.41l-.83-4.34c-.21.05-.51.11-.91.16-.4.06-.71.09-.93.09-.71,0-1.21-.16-1.52-.49-.3-.33-.45-.83-.45-1.52v-10.85h4.04v-4.42h-4.04v-5.14h-5.79v5.14h-2.97v4.42h2.97v11.35Z"/>
    <path class="cls-1" d="M194.75,97.94c-.75-.42-1.63-.64-2.63-.64-1.17,0-2.16.3-2.98.91-.65.48-1.17,1.2-1.58,2.13l-.02-2.86h-2.78v14.8h2.91v-8.76c0-.79.15-1.45.45-2,.3-.55.71-.96,1.23-1.25s1.11-.43,1.76-.43c.97,0,1.73.3,2.29.9.56.6.83,1.43.83,2.5v9.04h2.91v-9.4c0-1.23-.21-2.25-.64-3.08-.42-.83-1.01-1.45-1.76-1.87Z"/>
    <path class="cls-1" d="M209.87,98.28c-.59-.37-1.22-.63-1.89-.77s-1.31-.21-1.91-.21c-.86,0-1.7.12-2.52.37-.81.25-1.53.64-2.16,1.18-.63.54-1.11,1.25-1.44,2.13l2.74.72c.14-.34.36-.66.64-.97s.66-.56,1.13-.76,1.02-.3,1.66-.3,1.15.1,1.57.31c.42.21.73.5.95.88.21.38.32.85.32,1.4v.08c0,.34-.13.59-.39.75-.26.15-.66.26-1.21.33s-1.26.15-2.13.26c-.7.08-1.38.2-2.06.36-.68.16-1.29.4-1.84.71s-.99.75-1.31,1.28c-.32.54-.48,1.23-.48,2.07,0,.97.22,1.79.66,2.46.44.67,1.04,1.18,1.8,1.53.76.35,1.61.52,2.54.52.8,0,1.49-.12,2.07-.35.58-.23,1.06-.53,1.44-.89.38-.36.67-.73.86-1.11h.15v2.03h2.82v-9.82c0-1.08-.19-1.95-.56-2.62-.37-.67-.85-1.19-1.44-1.56ZM208.97,106.96c0,.57-.15,1.12-.45,1.63s-.73.92-1.3,1.23c-.56.31-1.24.46-2.04.46-.55,0-1.03-.08-1.44-.24-.42-.16-.74-.4-.99-.71-.24-.32-.36-.71-.36-1.18,0-.51.13-.92.4-1.23.27-.31.63-.55,1.09-.72.45-.17.96-.29,1.5-.36.23-.03.52-.06.87-.11.35-.04.72-.1,1.1-.17.38-.07.72-.14,1.01-.23.3-.08.5-.18.6-.28v1.89Z"/>
    <path class="cls-1" d="M230.93,108.55c-.2.33-.45.61-.75.85-.3.23-.64.42-1.02.54-.38.13-.8.19-1.26.19-.89,0-1.63-.23-2.22-.7-.59-.47-1.02-1.09-1.31-1.87-.29-.78-.43-1.64-.43-2.59s.14-1.82.43-2.61c.29-.79.72-1.41,1.31-1.89.59-.47,1.33-.71,2.22-.71.45,0,.86.06,1.24.19.38.12.71.3.99.53s.53.5.73.81c.2.31.35.66.45,1.04l2.77-.66c-.19-.68-.47-1.29-.84-1.83-.38-.54-.83-1-1.38-1.38-.54-.38-1.15-.66-1.82-.86-.67-.2-1.39-.3-2.16-.3-1.39,0-2.61.32-3.64.95-1.03.64-1.84,1.53-2.41,2.68-.57,1.15-.86,2.5-.86,4.03s.29,2.85.86,4c.57,1.15,1.38,2.04,2.41,2.67,1.03.64,2.25.95,3.64.95.78,0,1.5-.1,2.18-.3.68-.2,1.29-.5,1.83-.89s1-.86,1.38-1.41c.38-.55.66-1.18.83-1.87l-2.75-.66c-.09.4-.23.76-.44,1.09Z"/>
    <path class="cls-1" d="M247.33,99.02c-.63-.59-1.33-1.03-2.12-1.3-.79-.28-1.6-.42-2.45-.42-1.38,0-2.58.32-3.6.97s-1.82,1.55-2.38,2.71-.84,2.49-.84,4.01.28,2.87.85,4.01c.57,1.14,1.38,2.02,2.44,2.65,1.06.63,2.32.94,3.77.94,1.06,0,2.01-.16,2.84-.48.83-.32,1.53-.77,2.09-1.36s.96-1.25,1.2-2.01l-2.74-.65c-.17.46-.41.85-.73,1.16-.32.31-.7.55-1.15.7-.44.15-.94.23-1.48.23-.83,0-1.56-.18-2.18-.54s-1.11-.89-1.46-1.59c-.31-.63-.46-1.4-.5-2.28h10.47v-1.03c0-1.34-.18-2.48-.55-3.42-.37-.94-.86-1.71-1.49-2.3ZM239.32,101.88c.3-.65.75-1.17,1.33-1.57.58-.4,1.28-.6,2.11-.6s1.52.19,2.07.58c.55.39.97.93,1.25,1.62.2.5.31,1.08.36,1.69h-7.54c.04-.61.17-1.2.42-1.73Z"/>
    <rect class="cls-1" x="251.88" y="92.56" width="2.91" height="19.73"/>
    <polygon class="cls-1" points="267.75 91.61 264.74 91.61 262.89 95.57 265.12 95.57 267.75 91.61"/>
    <path class="cls-1" d="M265.14,105.9c-.33.93-.61,1.86-.84,2.79-.09.35-.19.7-.28,1.05-.09-.35-.18-.69-.27-1.04-.22-.93-.49-1.86-.81-2.79l-2.93-8.41h-3.15l5.63,14.87-.32,1.09c-.18.64-.41,1.11-.71,1.42-.3.31-.64.5-1.05.56-.4.06-.85.03-1.36-.11l-.33-.08-.72,2.37c.18.08.45.15.81.22s.77.1,1.23.1c.79,0,1.49-.13,2.09-.4s1.12-.67,1.56-1.2.81-1.19,1.11-1.99l6.43-16.85h-3.12l-2.98,8.41Z"/>
    <path class="cls-1" d="M290.21,98.2c-.93-.6-1.99-.9-3.17-.9-.93,0-1.67.15-2.23.46-.56.3-1,.66-1.31,1.07-.31.41-.56.76-.73,1.07h-.24v-2.41h-2.83v20.34h2.91v-7.85h.16c.18.32.43.68.75,1.09.32.41.77.76,1.34,1.07.57.3,1.3.46,2.19.46,1.2,0,2.27-.31,3.2-.92s1.66-1.49,2.19-2.63c.53-1.14.79-2.51.79-4.1s-.27-2.98-.81-4.12c-.54-1.14-1.27-2.01-2.2-2.61ZM289.81,107.55c-.29.79-.72,1.41-1.29,1.87-.57.46-1.28.69-2.13.69s-1.52-.22-2.09-.66c-.57-.44-1.01-1.05-1.3-1.83-.3-.78-.44-1.68-.44-2.71s.15-1.93.44-2.69.72-1.36,1.3-1.79c.57-.43,1.28-.64,2.11-.64s1.57.23,2.14.68,1,1.06,1.28,1.83.43,1.64.43,2.61-.14,1.86-.43,2.65Z"/>
    <path class="cls-1" d="M302.5,97.28c-.86,0-1.64.23-2.32.69-.68.46-1.16,1.09-1.43,1.91h-.16v-2.38h-2.82v14.8h2.91v-8.99c0-.65.15-1.23.45-1.73.3-.5.72-.89,1.26-1.17s1.14-.42,1.81-.42c.31,0,.61.02.91.05.3.04.5.07.61.11v-2.78c-.16-.03-.36-.05-.6-.06-.24-.01-.45-.02-.64-.02Z"/>
    <path class="cls-1" d="M314.93,98.26c-1.04-.64-2.25-.95-3.65-.95s-2.6.32-3.63.95c-1.04.64-1.84,1.53-2.42,2.68-.57,1.15-.86,2.5-.86,4.03s.29,2.85.86,4c.57,1.15,1.38,2.04,2.42,2.67,1.04.64,2.25.95,3.63.95s2.61-.32,3.65-.95c1.04-.64,1.84-1.53,2.42-2.67.57-1.15.86-2.48.86-4s-.29-2.88-.86-4.03c-.57-1.15-1.38-2.05-2.42-2.68ZM314.83,107.54c-.29.78-.72,1.41-1.31,1.88-.59.47-1.33.71-2.23.71s-1.63-.24-2.21-.71c-.58-.47-1.02-1.1-1.3-1.88s-.43-1.64-.43-2.58.14-1.82.43-2.61.72-1.41,1.3-1.89c.58-.47,1.32-.71,2.21-.71s1.64.24,2.23.71c.59.47,1.02,1.1,1.31,1.89.29.79.43,1.66.43,2.6s-.14,1.79-.43,2.58Z"/>
    <path class="cls-1" d="M330.69,99.9h-.16c-.17-.31-.41-.67-.73-1.07-.32-.41-.76-.76-1.32-1.07-.56-.3-1.3-.46-2.22-.46-1.18,0-2.24.3-3.18.9-.94.6-1.67,1.47-2.21,2.61-.54,1.14-.81,2.51-.81,4.12s.26,2.95.79,4.1c.53,1.14,1.26,2.02,2.2,2.63.94.61,2,.92,3.2.92.89,0,1.62-.15,2.18-.46.56-.3,1.01-.66,1.34-1.07.33-.41.57-.77.74-1.09h.24v2.32h2.83v-19.73h-2.91v7.33ZM330.3,107.61c-.3.78-.73,1.39-1.3,1.83-.57.44-1.27.66-2.1.66s-1.54-.23-2.12-.69c-.57-.46-1.01-1.08-1.3-1.87-.29-.79-.44-1.67-.44-2.65s.14-1.84.43-2.61.71-1.38,1.28-1.83c.57-.45,1.28-.68,2.14-.68s1.54.21,2.11.64c.57.43,1,1.02,1.29,1.79.29.76.44,1.66.44,2.69s-.15,1.93-.44,2.71Z"/>
    <path class="cls-1" d="M346.32,106.25c0,.78-.15,1.44-.45,1.99-.3.55-.71.97-1.22,1.26s-1.11.43-1.77.43c-.96,0-1.72-.3-2.28-.9-.56-.6-.84-1.43-.84-2.5v-9.04h-2.91v9.4c0,1.22.21,2.24.63,3.07.42.83,1.01,1.46,1.77,1.88.76.42,1.64.64,2.65.64,1.13,0,2.11-.3,2.94-.9.67-.49,1.21-1.23,1.62-2.2v2.91h2.79v-14.8h-2.91v8.76Z"/>
    <polygon class="cls-1" points="364.99 97.49 361.49 97.49 355.66 103.74 355.39 103.74 355.39 92.56 352.48 92.56 352.48 112.29 355.39 112.29 355.39 107.07 356.81 105.66 361.8 112.29 365.4 112.29 359.03 103.87 364.99 97.49"/>
    <path class="cls-1" d="M373.18,109.85c-.18.04-.39.07-.64.11-.25.04-.45.05-.6.05-.57,0-.99-.14-1.24-.42-.25-.28-.38-.71-.38-1.3v-8.43h2.95v-2.37h-2.95v-3.52h-2.91v3.52h-2.16v2.37h2.16v8.67c0,1.25.37,2.23,1.11,2.92.74.69,1.78,1.04,3.12,1.04.34,0,.69-.02,1.05-.07.35-.05.68-.13.99-.23l-.52-2.33Z"/>
  </g>
  <g>
    <path class="cls-4" d="M118.45,132.26,86.04,24.94"/>
    <g class="cls-2">
      <path class="cls-1" d="M54.94,112.25l11.59-13.58c5.85,5.01,11.49,7.94,17.76,7.94,6.68,0,10.65-3.34,10.65-8.56v-.21c0-5.33-4.39-8.46-10.76-8.46-4.49,0-8.25,1.57-11.7,3.66l-12.01-6.79,2.09-36.97h48.88v16.71h-32.9l-.63,11.07c3.34-1.57,6.79-2.61,11.7-2.61,13.16,0,25.07,7.31,25.07,23.19v.21c0,16.19-12.43,26.01-30.19,26.01-12.95,0-21.93-4.49-29.56-11.59Z"/>
    </g>
    <path class="cls-1" d="M116.21,145.83l-2.85-5.68c10.22-5.12,18.85-12.95,24.95-22.63,6.27-9.95,9.59-21.46,9.59-33.28,0-34.46-28.04-62.5-62.5-62.5v-6.36c37.97,0,68.85,30.89,68.85,68.85,0,13.02-3.65,25.7-10.57,36.67-6.72,10.67-16.23,19.29-27.48,24.93Z"/>
    <path class="cls-3" d="M85.41,153.08c-37.97,0-68.85-30.89-68.85-68.85S47.44,15.38,85.41,15.38v6.36c-34.46,0-62.5,28.04-62.5,62.5s28.04,62.5,62.5,62.5c9.83,0,19.23-2.22,27.95-6.58l2.85,5.68c-9.61,4.82-19.98,7.26-30.8,7.26Z"/>
  </g>
</svg>