<?xml version="1.0" encoding="UTF-8"?>
<svg id="Vrstva_1" data-name="Vrstva 1" xmlns="http://www.w3.org/2000/svg" viewBox="0 0 181.74 68">
  <defs>
    <style>
      .cls-1 {
        fill: #4d4d4d;
      }
    </style>
  </defs>
  <polygon class="cls-1" points="44.64 28.92 34.88 28.92 44.64 9.97 44.64 5.81 28.92 5.81 28.92 10.69 38.36 10.69 28.6 29.64 28.6 33.8 44.64 33.8 44.64 28.92"/>
  <polygon class="cls-1" points="59.04 33.92 66.36 5.81 60.88 5.81 56.52 24.6 52.16 5.81 46.52 5.81 53.84 33.92 59.04 33.92"/>
  <polygon class="cls-1" points="8 8 14.13 19.68 8 31.35 10.77 31.35 13.55 31.35 19.68 19.68 13.55 8 8 8"/>
  <path class="cls-1" d="M10.97,57.89c-.3,0-.6,0-.91,0,.18-.22.37-.45.55-.67.34-.43.67-.87,1-1.3l7.22-9.56v-1.45h-10.61v1.58h5.92c.56,0,1.12,0,1.67,0,.32,0,.63,0,.95,0-.16.19-.32.39-.47.58-.32.4-.63.8-.93,1.2l-7.36,9.76v1.45h10.91v-1.58h-6.29c-.55,0-1.1,0-1.65,0Z"/>
  <path class="cls-1" d="M27.7,49.71c-.36-.29-.78-.51-1.26-.65-.48-.14-1-.21-1.54-.21-.76,0-1.44.13-2.05.39-.61.26-1.11.62-1.49,1.08-.38.47-.62,1.02-.71,1.66l1.69.12c.05-.32.19-.61.41-.88.22-.27.51-.48.88-.64s.8-.24,1.28-.24.9.08,1.25.25.6.4.78.69.26.64.26,1.04v.09c0,.26-.08.44-.25.55s-.44.18-.83.23c-.39.05-.91.11-1.56.21-.51.07-1.02.15-1.51.26-.5.11-.94.27-1.33.48-.39.21-.71.51-.94.88s-.35.87-.35,1.46c0,.69.16,1.27.48,1.74.32.47.75.83,1.3,1.07s1.16.36,1.85.36c.62,0,1.14-.08,1.56-.25.41-.17.74-.38.99-.63.25-.25.43-.5.56-.75h.06v1.46h1.66v-7.13c0-.59-.1-1.1-.31-1.53s-.49-.8-.85-1.09ZM27.19,55.55c0,.45-.1.87-.3,1.26-.2.39-.52.71-.95.96s-.98.37-1.65.37c-.44,0-.82-.06-1.14-.19-.33-.13-.58-.31-.75-.54s-.26-.52-.26-.85c0-.4.11-.71.33-.95.22-.23.51-.42.87-.54.36-.13.74-.22,1.14-.27.26-.03.54-.07.83-.12.29-.05.57-.09.83-.14s.49-.1.68-.16c.19-.06.32-.12.38-.18v1.34Z"/>
  <polygon class="cls-1" points="40.13 49.02 37.97 49.02 33.21 53.7 33.14 53.7 33.14 44.92 31.46 44.92 31.46 59.47 33.14 59.47 33.14 55.61 34.29 54.56 38.31 59.47 40.46 59.47 35.58 53.5 40.13 49.02"/>
  <path class="cls-1" d="M48.58,49.71c-.36-.29-.78-.51-1.26-.65-.48-.14-1-.21-1.54-.21-.76,0-1.44.13-2.05.39-.61.26-1.11.62-1.49,1.08-.38.47-.62,1.02-.71,1.66l1.69.12c.05-.32.19-.61.41-.88.22-.27.51-.48.88-.64s.8-.24,1.28-.24.9.08,1.25.25.6.4.78.69.26.64.26,1.04v.09c0,.26-.08.44-.25.55s-.44.18-.83.23c-.39.05-.91.11-1.56.21-.51.07-1.02.15-1.51.26-.5.11-.94.27-1.33.48-.39.21-.71.51-.94.88s-.35.87-.35,1.46c0,.69.16,1.27.48,1.74.32.47.75.83,1.3,1.07s1.16.36,1.85.36c.62,0,1.14-.08,1.56-.25.41-.17.74-.38.99-.63.25-.25.43-.5.56-.75h.06v1.46h1.66v-7.13c0-.59-.1-1.1-.31-1.53s-.49-.8-.85-1.09ZM48.07,55.55c0,.45-.1.87-.3,1.26-.2.39-.52.71-.95.96s-.98.37-1.65.37c-.44,0-.82-.06-1.14-.19-.33-.13-.58-.31-.75-.54s-.26-.52-.26-.85c0-.4.11-.71.33-.95.22-.23.51-.42.87-.54.36-.13.74-.22,1.14-.27.26-.03.54-.07.83-.12.29-.05.57-.09.83-.14s.49-.1.68-.16c.19-.06.32-.12.38-.18v1.34Z"/>
  <polygon class="cls-1" points="48.22 44.77 46.31 44.77 44.94 47.67 46.34 47.67 48.22 44.77"/>
  <polygon class="cls-1" points="54.21 57.89 59.88 50.37 59.88 49.02 52.07 49.02 52.07 50.54 57.78 50.54 57.78 50.59 52.02 58.19 52.02 59.47 59.94 59.47 59.94 57.95 54.21 57.95 54.21 57.89"/>
  <polygon class="cls-1" points="70.91 49.02 68.75 49.02 63.99 53.7 63.92 53.7 63.92 44.92 62.24 44.92 62.24 59.47 63.92 59.47 63.92 55.61 65.07 54.56 69.09 59.47 71.24 59.47 66.36 53.5 70.91 49.02"/>
  <path class="cls-1" d="M79.41,49.5c-.72-.47-1.57-.7-2.54-.7s-1.8.23-2.52.7c-.73.47-1.29,1.11-1.69,1.93-.4.82-.61,1.77-.61,2.84s.2,2.01.61,2.82c.4.81.97,1.45,1.69,1.91.73.46,1.57.69,2.52.69s1.82-.23,2.54-.69,1.29-1.1,1.69-1.91c.4-.81.61-1.75.61-2.82s-.2-2.02-.61-2.84c-.4-.82-.97-1.46-1.69-1.93ZM79.64,56.3c-.24.59-.6,1.05-1.06,1.38-.47.33-1.03.5-1.7.5s-1.23-.17-1.69-.5c-.47-.33-.82-.79-1.06-1.38-.24-.59-.36-1.26-.36-2.03s.12-1.46.36-2.05c.24-.59.59-1.06,1.06-1.39.46-.33,1.03-.5,1.69-.5s1.24.17,1.7.51c.46.34.82.8,1.06,1.39s.37,1.27.37,2.05-.12,1.44-.37,2.03Z"/>
  <path class="cls-1" d="M88.56,55.07c-.2.53-.38,1.07-.54,1.6-.09.3-.19.59-.28.88-.09-.29-.19-.58-.28-.88-.17-.53-.36-1.07-.56-1.6l-2.25-6.05h-1.83l4.03,10.45h1.71l4.03-10.45h-1.81l-2.23,6.05Z"/>
  <polygon class="cls-1" points="100.66 44.77 98.75 44.77 97.39 47.67 98.78 47.67 100.66 44.77"/>
  <path class="cls-1" d="M101.02,49.71c-.36-.29-.78-.51-1.26-.65-.48-.14-1-.21-1.54-.21-.76,0-1.44.13-2.05.39-.61.26-1.11.62-1.49,1.08-.38.47-.62,1.02-.71,1.66l1.69.12c.05-.32.19-.61.41-.88.22-.27.51-.48.88-.64s.8-.24,1.28-.24.9.08,1.25.25.6.4.78.69.26.64.26,1.04v.09c0,.26-.08.44-.25.55s-.44.18-.83.23c-.39.05-.91.11-1.56.21-.51.07-1.02.15-1.51.26-.5.11-.94.27-1.33.48-.39.21-.71.51-.94.88s-.35.87-.35,1.46c0,.69.16,1.27.48,1.74.32.47.75.83,1.3,1.07s1.16.36,1.85.36c.62,0,1.14-.08,1.56-.25.41-.17.74-.38.99-.63.25-.25.43-.5.56-.75h.06v1.46h1.66v-7.13c0-.59-.1-1.1-.31-1.53s-.49-.8-.85-1.09ZM100.51,55.55c0,.45-.1.87-.3,1.26-.2.39-.52.71-.95.96s-.98.37-1.65.37c-.44,0-.82-.06-1.14-.19-.33-.13-.58-.31-.75-.54s-.26-.52-.26-.85c0-.4.11-.71.33-.95.22-.23.51-.42.87-.54.36-.13.74-.22,1.14-.27.26-.03.54-.07.83-.12.29-.05.57-.09.83-.14s.49-.1.68-.16c.19-.06.32-.12.38-.18v1.34Z"/>
  <path class="cls-1" d="M114.7,55.07c-.2.53-.38,1.07-.54,1.6-.09.3-.19.59-.28.88-.09-.29-.19-.58-.28-.88-.17-.53-.36-1.07-.56-1.6l-2.25-6.05h-1.83l4.03,10.45h1.71l4.03-10.45h-1.81l-2.23,6.05Z"/>
  <polygon class="cls-1" points="126.84 44.77 124.93 44.77 123.57 47.67 124.96 47.67 126.84 44.77"/>
  <path class="cls-1" d="M125.17,55.07c-.2.53-.38,1.07-.56,1.6-.1.28-.19.56-.28.85-.09-.28-.18-.56-.27-.84-.18-.53-.37-1.07-.57-1.61l-2.25-6.05h-1.83l4.03,10.39-.51,1.35c-.12.34-.27.61-.42.8-.16.2-.34.33-.53.41-.19.08-.41.11-.66.09h-.83s-.11,1.46-.11,1.46c.16.01.33.02.51.03.18,0,.37.01.58.01.45,0,.86-.09,1.24-.26.37-.17.7-.42.99-.76.29-.33.53-.74.72-1.23l4.77-12.3h-1.81l-2.22,6.05Z"/>
  <path class="cls-1" d="M135.06,48.86c-.65,0-1.19.16-1.63.49-.43.33-.74.76-.93,1.3h-.06v-1.64h-1.61v10.45h1.68v-6.46c0-.57.1-1.04.31-1.41s.48-.65.83-.84c.34-.19.72-.28,1.13-.28.24,0,.46.01.64.04.19.03.32.05.38.07v-1.68c-.08-.01-.19-.03-.32-.04s-.28-.02-.42-.02Z"/>
  <path class="cls-1" d="M144.36,49.5c-.72-.47-1.57-.7-2.54-.7s-1.8.23-2.52.7c-.73.47-1.29,1.11-1.69,1.93-.4.82-.61,1.77-.61,2.84s.2,2.01.61,2.82c.4.81.97,1.45,1.69,1.91.73.46,1.57.69,2.52.69s1.82-.23,2.54-.69,1.29-1.1,1.69-1.91c.4-.81.61-1.75.61-2.82s-.2-2.02-.61-2.84c-.4-.82-.97-1.46-1.69-1.93ZM144.59,56.3c-.24.59-.6,1.05-1.06,1.38-.47.33-1.03.5-1.7.5s-1.23-.17-1.69-.5c-.47-.33-.82-.79-1.06-1.38-.24-.59-.36-1.26-.36-2.03s.12-1.46.36-2.05c.24-.59.59-1.06,1.06-1.39.46-.33,1.03-.5,1.69-.5s1.24.17,1.7.51c.46.34.82.8,1.06,1.39s.37,1.27.37,2.05-.12,1.44-.37,2.03Z"/>
  <path class="cls-1" d="M156.03,49.52c-.68-.45-1.46-.67-2.36-.67-.5,0-.96.08-1.37.22-.41.15-.77.36-1.08.62-.31.26-.56.56-.76.9h-.05v-5.67h-1.68v14.55h1.64v-1.59h.06c.22.35.49.66.8.93s.67.48,1.08.63c.41.15.86.23,1.36.23.9,0,1.69-.23,2.36-.68.68-.46,1.2-1.09,1.58-1.9.37-.81.56-1.76.56-2.83s-.19-2.03-.56-2.84c-.38-.81-.9-1.45-1.58-1.89ZM156.09,56.36c-.25.58-.61,1.03-1.06,1.34-.46.31-.99.46-1.61.46s-1.2-.16-1.67-.49c-.47-.33-.82-.78-1.07-1.37-.25-.59-.38-1.27-.38-2.06s.12-1.47.37-2.06c.25-.58.61-1.04,1.07-1.36s1.03-.48,1.67-.48,1.16.15,1.61.46c.46.31.81.75,1.06,1.33s.38,1.28.38,2.11-.13,1.53-.38,2.11Z"/>
  <path class="cls-1" d="M167.88,50.81c-.21-.44-.49-.8-.85-1.09s-.78-.51-1.26-.65c-.48-.14-1-.21-1.54-.21-.76,0-1.44.13-2.05.39-.61.26-1.11.62-1.49,1.08-.38.47-.62,1.02-.71,1.66l1.69.12c.05-.32.19-.61.41-.88.22-.27.51-.48.88-.64s.8-.24,1.28-.24.9.08,1.25.25.6.4.78.69.26.64.26,1.04v.09c0,.26-.08.44-.25.55s-.44.18-.83.23c-.39.05-.91.11-1.56.21-.51.07-1.02.15-1.51.26-.5.11-.94.27-1.33.48-.39.21-.71.51-.94.88s-.35.87-.35,1.46c0,.69.16,1.27.48,1.74.32.47.75.83,1.3,1.07s1.16.36,1.85.36c.62,0,1.14-.08,1.56-.25.41-.17.74-.38.99-.63.25-.25.43-.5.56-.75h.06v1.46h1.66v-7.13c0-.59-.1-1.1-.31-1.53ZM166.52,55.55c0,.45-.1.87-.3,1.26-.2.39-.52.71-.95.96s-.98.37-1.65.37c-.44,0-.82-.06-1.14-.19-.33-.13-.58-.31-.75-.54s-.26-.52-.26-.85c0-.4.11-.71.33-.95.22-.23.51-.42.87-.54.36-.13.74-.22,1.14-.27.26-.03.54-.07.83-.12.29-.05.57-.09.83-.14s.49-.1.68-.16c.19-.06.32-.12.38-.18v1.34Z"/>
</svg>