<svg width="160" height="190" viewBox="0 0 160 190" fill="none" xmlns="http://www.w3.org/2000/svg">
<path fill-rule="evenodd" clip-rule="evenodd" d="M80 15C35.8474 15 0 50.8474 0 95C0 139.153 35.8474 175 80 175C124.153 175 160 139.153 160 95C160 50.8474 124.153 15 80 15ZM80 22.1628C117.991 22.1628 152.837 57.0093 152.837 95C152.837 132.991 117.991 167.837 80 167.837C42.0093 167.837 7.16279 132.991 7.16279 95C7.16279 57.0093 42.0093 22.1628 80 22.1628Z" fill="#D1D1D1"/>
<path fill-rule="evenodd" clip-rule="evenodd" d="M80 15V22.1628C117.991 22.1628 152.837 57.0093 152.837 95C152.837 124.797 131.401 152.66 103.824 163.293L107.197 170.251C106.683 170.437 106.166 170.618 105.647 170.794C137.237 160.094 160 130.184 160 95C160 50.8474 124.153 15 80 15Z" fill="#777777"/>
<path d="M79.0073 140.25C63.5073 140.25 52.7573 134.875 43.6323 126.375L57.5073 110.125C64.5073 116.125 71.2573 119.625 78.7573 119.625C86.7573 119.625 91.5073 115.75 91.5073 109.375V109.125C91.5073 102.75 86.2573 99 78.6323 99C73.2573 99 68.7573 100.875 64.6323 103.375L50.2573 95.25L52.7573 51H111.257V71H71.8823L71.1323 84.25C75.1323 82.375 79.2573 81.125 85.1323 81.125C100.757 81.125 115.132 89.875 115.132 108.875V109.125C115.132 128.5 100.257 140.25 79.0073 140.25Z" fill="#777777"/>
</svg>
